<svg width="21" height="20" viewBox="0 0 21 20" fill="none" xmlns="http://www.w3.org/2000/svg">
<path d="M0 13.9406C0 13.7438 0 13.5141 0.0328125 13.3172L1.11562 7.05C1.37812 5.40938 2.46094 3.99844 4.06875 3.60469C5.57812 3.21094 7.74375 2.85 10.5 2.85C13.2234 2.85 15.3891 3.21094 16.8984 3.60469C18.5062 3.99844 19.5891 5.40938 19.8516 7.05L20.9344 13.3172C20.9672 13.5141 21 13.7438 21 13.9406V14.0391C21 15.975 19.3922 17.55 17.4562 17.55C15.8156 17.55 14.4047 16.4672 14.0109 14.8922L13.9125 14.4H7.0875L6.95625 14.8922C6.5625 16.4672 5.15156 17.55 3.51094 17.55C1.575 17.55 0 15.975 0 14.0391L0 13.9406ZM14.175 9.4125C13.6828 9.4125 13.2562 9.675 13.0266 10.0688C12.7969 10.4953 12.7969 10.9875 13.0266 11.3813C13.2562 11.8078 13.6828 12.0375 14.175 12.0375C14.6344 12.0375 15.0609 11.8078 15.2906 11.3813C15.5203 10.9875 15.5203 10.4953 15.2906 10.0688C15.0609 9.675 14.6344 9.4125 14.175 9.4125ZM14.9625 7.575C14.9625 8.06719 15.1922 8.49375 15.6187 8.72344C16.0125 8.95313 16.5047 8.95313 16.9312 8.72344C17.325 8.49375 17.5875 8.06719 17.5875 7.575C17.5875 7.11563 17.325 6.68906 16.9312 6.45938C16.5047 6.22969 16.0125 6.22969 15.6187 6.45938C15.1922 6.68906 14.9625 7.11563 14.9625 7.575ZM7.0875 7.3125C7.0875 6.88594 6.72656 6.525 6.3 6.525C5.84062 6.525 5.5125 6.88594 5.5125 7.3125V8.3625H4.4625C4.00312 8.3625 3.675 8.72344 3.675 9.15C3.675 9.60938 4.00312 9.9375 4.4625 9.9375H5.5125V10.9875C5.5125 11.4469 5.84062 11.775 6.3 11.775C6.72656 11.775 7.0875 11.4469 7.0875 10.9875V9.9375H8.1375C8.56406 9.9375 8.925 9.60938 8.925 9.15C8.925 8.72344 8.56406 8.3625 8.1375 8.3625H7.0875V7.3125Z" fill="#333336"/>
</svg>
