<svg width="20" height="20" viewBox="0 0 20 20" fill="none" xmlns="http://www.w3.org/2000/svg">
<path d="M4.55 17.55C3.95937 17.55 3.5 17.0906 3.5 16.5C3.5 15.9422 3.95937 15.45 4.55 15.45H15.05C15.6078 15.45 16.1 15.9422 16.1 16.5C16.1 17.0906 15.6078 17.55 15.05 17.55H4.55ZM10.5219 13.0547C10.1281 13.4813 9.43906 13.4813 9.04531 13.0547L4.84531 8.85469C4.41875 8.46094 4.41875 7.77188 4.84531 7.37813C5.23906 6.95156 5.92812 6.95156 6.32187 7.37813L8.75 9.77344V3.9C8.75 3.34219 9.20937 2.85 9.8 2.85C10.3578 2.85 10.85 3.34219 10.85 3.9V9.77344L13.2453 7.37813C13.6391 6.95156 14.3281 6.95156 14.7219 7.37813C15.1484 7.77188 15.1484 8.46094 14.7219 8.85469L10.5219 13.0547Z" fill="currentColor"/>
</svg>
