<svg width="42" height="42" viewBox="0 0 42 42" fill="none" xmlns="http://www.w3.org/2000/svg">
<path d="M14.8533 18.6668C14.6279 19.3126 13.9139 19.6545 13.3126 19.4266C12.6738 19.1987 12.3356 18.5149 12.5611 17.8691C12.9744 16.6914 13.6508 15.5897 14.5527 14.678C17.8596 11.373 23.1581 11.373 26.465 14.678L27.1039 15.3618V13.9942C27.1039 13.3484 27.6675 12.7785 28.3064 12.7785C28.9828 12.7785 29.5089 13.3484 29.5089 13.9942V18.2489C29.5089 18.9327 28.9828 19.4646 28.3064 19.4646H24.1352C23.4588 19.4646 22.9327 18.9327 22.9327 18.2489C22.9327 17.6031 23.4588 17.0333 24.1352 17.0333H25.4128L24.774 16.3875C22.4066 14.0322 18.6112 14.0322 16.2437 16.3875C15.6049 17.0713 15.1164 17.8311 14.8533 18.6668Z" fill="#F8F6F4"/>
<path d="M12.8555 22.573C12.893 22.5351 12.9682 22.5351 13.0058 22.5351C13.0809 22.5351 13.1185 22.4971 13.1937 22.4971H17.4024C18.0413 22.4971 18.6049 23.0669 18.6049 23.7127C18.6049 24.3965 18.0413 24.9284 17.4024 24.9284H16.0872L16.726 25.5742V25.6122C19.0934 27.9675 22.8889 27.9675 25.2563 25.6122C25.8951 24.9284 26.3836 24.1686 26.6467 23.3328C26.8722 22.687 27.5861 22.3451 28.1874 22.573C28.8262 22.801 29.1644 23.4848 28.939 24.1306C28.5256 25.3082 27.8492 26.3719 26.9473 27.3217C23.6404 30.6267 18.3419 30.6267 15.035 27.3217L14.3962 26.6379V27.9675C14.3962 28.6513 13.8325 29.1831 13.1937 29.1831C12.5172 29.1831 11.9911 28.6513 11.9911 27.9675V23.7507C11.9911 23.6747 11.9911 23.5987 11.9911 23.5608C11.9911 23.4848 11.9911 23.4468 12.0287 23.4088C12.0663 23.2189 12.179 23.0289 12.3294 22.877C12.4797 22.725 12.6676 22.611 12.8555 22.573Z" fill="#F8F6F4"/>
</svg>
