<svg width="17" height="18" viewBox="0 0 17 18" fill="none" xmlns="http://www.w3.org/2000/svg">
<path d="M9.95 1.85V8.675C9.95 8.97031 10.1797 9.2 10.475 9.2C10.7375 9.2 11 8.97031 11 8.675V2.9C11 2.34219 11.4594 1.85 12.05 1.85C12.6078 1.85 13.1 2.34219 13.1 2.9V8.675C13.1 8.97031 13.3297 9.2 13.625 9.2C13.8875 9.2 14.15 8.97031 14.15 8.675V5C14.15 4.44219 14.6094 3.95 15.2 3.95C15.7578 3.95 16.25 4.44219 16.25 5V11.825C16.25 15.0406 13.6578 17.6 10.475 17.6H9.81875C7.88281 17.6 5.97969 16.8781 4.56875 15.5L0.89375 11.9891C0.36875 11.4969 0.335938 10.6766 0.860937 10.1516C1.35312 9.62656 2.17344 9.59375 2.69844 10.0859L4.7 11.9891C4.7 11.9563 4.7 11.8906 4.7 11.825V2.9C4.7 2.34219 5.15937 1.85 5.75 1.85C6.30781 1.85 6.8 2.34219 6.8 2.9V8.675C6.8 8.97031 7.02969 9.2 7.325 9.2C7.5875 9.2 7.85 8.97031 7.85 8.675V1.85C7.85 1.29219 8.30937 0.800001 8.9 0.800001C9.45781 0.800001 9.95 1.29219 9.95 1.85Z" fill="currentColor"/>
</svg>
