<svg width="17" height="11" viewBox="0 0 17 11" fill="none" xmlns="http://www.w3.org/2000/svg">
<path d="M0 1.5C0 0.947715 0.447715 0.5 1 0.5H16C16.5523 0.5 17 0.947715 17 1.5C17 2.05228 16.5523 2.5 16 2.5H1C0.447715 2.5 0 2.05228 0 1.5Z" fill="#53FFBC"/>
<path d="M0 5.5C0 4.94772 0.447715 4.5 1 4.5H16C16.5523 4.5 17 4.94772 17 5.5C17 6.05228 16.5523 6.5 16 6.5H1C0.447715 6.5 0 6.05228 0 5.5Z" fill="#53FFBC"/>
<path d="M1 8.5C0.447715 8.5 0 8.94771 0 9.5C0 10.0523 0.447715 10.5 1 10.5H16C16.5523 10.5 17 10.0523 17 9.5C17 8.94771 16.5523 8.5 16 8.5H1Z" fill="#53FFBC"/>
</svg>
