<svg width="1282" height="628" viewBox="0 0 1282 628" fill="none" xmlns="http://www.w3.org/2000/svg">
<path d="M593.587 414.473L616.885 282.038H576.174L572.986 300.186C566.609 287.433 554.102 279.34 534.972 279.34C501.618 279.34 473.66 304.11 467.528 340.898C459.926 382.345 481.998 417.17 519.766 417.17C557.535 417.17 547.97 409.813 556.554 398.286L553.611 414.473H593.587ZM533.991 378.911C515.597 378.911 504.561 362.725 507.504 344.822C509.711 329.371 522.955 317.108 539.386 317.108C555.818 317.108 569.062 332.314 565.628 350.953C562.685 366.894 549.687 378.911 533.991 378.911ZM413.083 292.093C418.969 259.965 395.915 235.44 358.147 235.44H285.553L254.161 414.473H331.905C372.371 414.473 397.877 397.796 403.273 367.875C406.951 347.519 401.066 333.785 389.294 324.956C401.801 317.844 410.385 307.053 413.083 292.093ZM360.354 360.518C358.392 370.573 350.299 376.949 333.131 376.949H302.475L308.606 342.124H337.546C355.939 342.124 362.316 349.727 360.354 360.518ZM371.145 289.886C369.673 297.734 363.297 304.601 347.111 304.601H315.228L320.869 272.718H352.261C367.466 272.718 373.352 279.585 371.145 289.886ZM445.946 414.473H404.744L439.079 221.216H479.791L445.946 414.473ZM482.325 211.487H440.633L464.176 79.0523H505.624L482.325 211.487ZM1015.5 211.487L1026.29 151.156C1030.7 126.876 1037.82 121.235 1060.62 121.235H1071.91C1069.7 126.386 1068.06 131.863 1067 137.667C1059.89 178.379 1085.64 214.185 1131.5 214.185C1177.36 214.185 1179.08 203.149 1192.32 187.208L1160.2 166.361C1153.57 174.209 1144.01 179.85 1133.22 179.85C1117.28 179.85 1106.49 171.757 1103.3 159.004H1201.89L1203.61 148.703C1210.23 110.444 1184.48 76.3545 1142.29 76.3545C1100.11 76.3545 1094.22 87.7178 1080.16 106.847L1085.15 79.0523H1067.25C1050.81 79.0523 1039.29 87.1455 1031.44 104.068L1036.1 79.0523H997.35L973.806 211.487H1015.5ZM1139.84 110.444C1155.05 110.444 1163.63 117.557 1165.84 128.593H1107.96C1114.09 117.557 1125.13 110.444 1139.84 110.444ZM981.572 232.988C932.277 232.988 890.83 269.039 882.737 316.373C873.662 369.837 910.205 416.925 966.122 416.925C1022.04 416.925 1056.62 380.873 1064.71 333.54C1073.79 280.076 1037 232.988 981.572 232.988ZM1021.55 329.616C1017.13 355.122 996.778 374.742 969.555 374.742C942.332 374.742 920.75 348.746 925.655 320.297C930.315 294.79 950.426 274.925 977.648 274.925C1004.87 274.925 1026.7 300.922 1021.55 329.616ZM664.219 318.58C663.483 323.73 672.312 326.673 687.763 331.333C707.873 336.728 732.643 347.029 727.493 376.949C723.569 399.512 703.704 417.17 668.388 417.17C633.072 417.17 616.64 405.398 604.133 390.438L637.977 366.404C645.089 376.949 658.333 384.062 671.086 384.062C683.839 384.062 684.574 380.383 685.555 374.497C686.536 367.875 675.01 364.932 661.766 361.008C641.165 355.367 616.395 346.784 621.79 317.108C625.714 294.791 648.523 279.34 678.443 279.34C708.364 279.34 725.041 288.659 736.813 302.148L706.156 324.221C700.761 316.618 689.725 310.241 677.953 310.241C666.181 310.241 664.954 313.43 664.219 318.58ZM1161.67 59.6775C1194.61 59.6775 1221.34 32.9453 1221.34 0C1221.34 32.9453 1248.08 59.6775 1281.02 59.6775C1248.08 59.6775 1221.34 86.4098 1221.34 119.355C1221.34 86.4098 1194.61 59.6775 1161.67 59.6775ZM947.81 41.2838C950.262 28.5308 961.789 19.947 974.297 19.947C986.804 19.947 998.576 32.7 995.878 46.9245C993.426 59.4323 983.861 68.016 969.637 68.016C955.412 68.016 945.357 55.9988 947.81 41.2838ZM921.568 211.487L945.112 79.0523H986.559L963.26 211.487H921.568ZM639.53 211.487L663.074 79.0523H703.786L700.843 95.2388C710.162 82.9763 722.18 76.3545 738.611 76.3545C767.305 76.3545 783.983 99.6533 777.361 135.46L763.872 211.487H721.934L735.423 138.158C738.366 121.726 732.971 112.652 718.991 112.652C705.012 112.652 696.673 121.235 693.73 139.384L680.487 211.487H639.53ZM799.352 354.877C795.673 373.516 798.371 375.968 819.462 375.968H825.348L818.481 414.473H805.973C761.093 414.473 751.773 400.248 759.621 356.839L766.243 318.335H742.699L749.32 282.038H772.619L778.26 250.891L821.669 228.573L812.104 282.038H841.78L835.403 318.335H805.728L799.352 354.877ZM837.202 214.185C852.898 214.185 865.405 206.828 873.989 195.301L871.046 211.487H911.022L934.321 79.0523H893.609L890.421 97.2008C884.044 84.4478 871.537 76.3545 852.407 76.3545C819.053 76.3545 791.095 101.125 784.964 137.912C777.361 179.36 799.433 214.185 837.202 214.185ZM824.939 141.836C827.146 126.386 840.39 114.123 856.822 114.123C873.253 114.123 886.497 129.329 883.063 147.968C880.12 163.909 867.122 175.926 851.426 175.926C835.73 175.926 821.996 159.74 824.939 141.836ZM337.954 541.103C337.954 548.134 332.477 553.693 325.61 553.693C318.743 553.693 313.266 548.134 313.266 541.103C313.266 534.073 318.661 528.514 325.61 528.514C332.559 528.514 337.954 534.073 337.954 541.103ZM594.813 541.103C594.813 548.134 589.417 553.775 582.305 553.775C575.193 553.775 569.797 548.216 569.797 541.103C569.797 533.991 575.357 528.432 582.305 528.432C589.254 528.432 594.813 534.073 594.813 541.103ZM891.075 536.198H867.04C868.839 530.966 873.417 527.533 879.221 527.533C885.026 527.533 889.522 530.639 891.075 536.198ZM668.96 541.103C668.96 548.216 663.483 553.775 656.534 553.775C649.585 553.775 644.026 548.134 644.026 541.103C644.026 534.073 649.422 528.432 656.534 528.432C663.646 528.432 668.96 533.991 668.96 541.103ZM542.738 536.198H518.704C520.502 530.966 525.08 527.533 530.885 527.533C536.689 527.533 541.185 530.639 542.738 536.198ZM567.427 214.185C607.648 214.185 635.116 187.453 641.492 153.363C648.604 114.123 624.57 76.3545 577.972 76.3545C531.375 76.3545 510.284 103.087 503.907 136.686C496.795 175.926 520.584 214.185 567.427 214.185ZM543.883 141.591C546.826 124.914 560.805 113.878 575.52 113.878C594.159 114.368 604.705 130.8 601.516 148.703C598.573 165.38 585.085 176.171 570.125 176.171C555.164 176.171 540.94 159.494 543.883 141.591ZM459.762 536.198H435.728C437.526 530.966 442.104 527.533 447.908 527.533C453.713 527.533 458.209 530.639 459.762 536.198ZM1138.53 282.038H1168.94L1162.32 319.07H1132.16L1115.72 414.473H1074.77L1091.44 319.07H1072.07L1078.69 282.038H1098.07L1098.31 280.566C1107.39 229.064 1119.16 221.216 1162.57 221.216H1179.49L1172.87 258.739H1159.13C1146.63 258.739 1142.21 262.418 1139.51 277.378L1138.53 282.038ZM1041.09 447.173H239.936C190.232 447.173 150.011 487.394 150.011 537.098C150.011 586.802 190.232 627.023 239.936 627.023H1041.09C1090.79 627.023 1131.01 586.802 1131.01 537.098C1131.01 487.394 1090.79 447.173 1041.09 447.173ZM275.416 547.153H263.317V563.748H251.463V502.844H275.497C289.15 502.844 298.306 512.654 298.306 524.917C298.306 537.179 289.15 547.071 275.334 547.071L275.416 547.153ZM325.529 564.647C312.04 564.647 301.739 554.102 301.739 541.185C301.739 528.269 311.958 517.723 325.529 517.723C339.099 517.723 349.4 528.187 349.4 541.185C349.4 554.183 339.181 564.647 325.529 564.647ZM408.341 563.748H397.469L386.677 534.4L375.805 563.748H364.768L350.135 518.704H361.826L370.9 548.052L381.609 518.704H391.828L402.374 548.216L411.775 518.704H423.465L408.178 563.748H408.341ZM471.207 545.191H435.4C436.872 550.995 441.695 554.674 448.317 554.674C454.939 554.674 457.228 552.303 459.517 548.706L468.918 554.183C464.422 560.56 458.045 564.647 448.154 564.647C433.684 564.647 424.283 554.429 424.283 541.267C424.283 528.105 434.42 517.723 447.908 517.723C461.397 517.723 471.207 527.451 471.207 540.858V545.191ZM497.939 529.331C492.053 529.331 488.211 532.356 488.211 539.959V563.748H476.766V518.704H488.129V525.653C490.336 520.339 494.833 517.886 500.555 517.886C506.278 517.886 506.196 518.622 508.158 519.603L503.989 530.966C502.763 530.067 500.555 529.413 498.021 529.413L497.939 529.331ZM554.183 545.191H518.377C519.848 550.995 524.672 554.674 531.293 554.674C537.915 554.674 540.204 552.303 542.493 548.706L551.894 554.183C547.398 560.56 541.021 564.647 531.13 564.647C516.66 564.647 507.259 554.429 507.259 541.267C507.259 528.105 517.396 517.723 530.885 517.723C544.373 517.723 554.183 527.451 554.183 540.858V545.191ZM605.44 563.748H594.077V557.617C590.889 562.031 585.82 564.729 580.016 564.729C568.898 564.729 558.352 555.655 558.352 541.267C558.352 526.879 568.653 517.805 580.18 517.805C591.706 517.805 591.052 520.339 594.077 524.508V498.021H605.44V563.83V563.748ZM658.905 564.647C652.937 564.647 647.623 561.95 644.68 557.453V563.748H633.317V497.939H644.762V524.835C647.787 520.502 652.774 517.723 658.823 517.723C670.187 517.723 680.487 526.797 680.487 541.185C680.487 555.573 669.941 564.647 658.905 564.647ZM708.773 566.119C704.113 577.646 699.289 581.57 689.725 581.57C680.16 581.57 680.242 579.853 676.89 577.4L683.594 568.081C685.147 569.716 687.109 570.86 689.643 570.86C693.73 570.86 696.265 569.062 698.472 563.666L699.208 561.868L681.141 518.786H693.404L705.094 547.807L716.212 518.786H728.229L708.773 566.201V566.119ZM792.648 514.044H765.262V528.105H792.648V539.141H765.262V563.748H753.408V502.844H792.566V514.044H792.648ZM813.085 563.748H801.313V518.704H813.085V563.748ZM807.118 513.308C802.785 513.308 799.76 510.202 799.76 505.951C799.76 501.7 802.867 498.43 807.118 498.43C811.369 498.43 814.557 501.618 814.557 505.951C814.557 510.284 811.532 513.308 807.118 513.308ZM848.974 530.966C847.747 530.067 845.54 529.413 843.006 529.413C837.12 529.413 833.278 532.438 833.278 540.041V563.83H821.833V518.786H833.196V525.734C835.403 520.421 839.9 517.968 845.622 517.968C851.345 517.968 851.263 518.704 853.225 519.685L849.055 531.048L848.974 530.966ZM902.438 545.191H866.632C868.103 550.995 872.927 554.674 879.548 554.674C886.17 554.674 888.459 552.303 890.748 548.706L900.149 554.183C895.653 560.56 889.276 564.647 879.385 564.647C864.915 564.647 855.514 554.429 855.514 541.267C855.514 528.105 865.651 517.723 879.14 517.723C892.628 517.723 902.438 527.451 902.438 540.858V545.191ZM935.383 508.485H933.503C925.492 508.485 924.592 509.63 924.592 516.497V518.704H935.465V529.004H924.592V563.666H913.148V529.004H905.708V518.704H913.148V517.151C913.148 502.517 917.725 498.021 932.44 498.021H935.465V508.567L935.383 508.485ZM962.933 564.647C949.445 564.647 939.144 554.102 939.144 541.185C939.144 528.269 949.363 517.723 962.933 517.723C976.504 517.723 986.804 528.187 986.804 541.185C986.804 554.183 976.586 564.647 962.933 564.647ZM1019.91 563.748L1009.61 549.687L999.557 563.748H985.742L1002.58 540.613L986.641 518.704H1000.29L1009.69 532.029L1019.18 518.704H1032.67L1016.64 540.695L1033.81 563.748H1019.91ZM975.359 541.103C975.359 548.134 969.882 553.693 963.015 553.693C956.148 553.693 950.671 548.134 950.671 541.103C950.671 534.073 956.066 528.514 963.015 528.514C969.964 528.514 975.359 534.073 975.359 541.103ZM1261.57 221.216H1278.49L1271.87 258.739H1258.13C1245.62 258.739 1241.21 262.418 1238.51 277.378L1237.53 282.038H1267.94L1261.32 319.07H1231.16L1214.72 414.473H1173.77L1190.44 319.07H1171.07L1177.69 282.038H1197.07L1197.31 280.566C1206.38 229.064 1218.16 221.216 1261.57 221.216ZM389.866 211.487L424.201 18.2303H464.912L431.068 211.487H389.866ZM314.083 41.2838C316.536 28.5308 328.063 19.947 340.57 19.947C353.078 19.947 364.85 32.7 362.152 46.9245C359.7 59.4323 350.135 68.016 335.911 68.016C321.686 68.016 311.631 55.9988 314.083 41.2838ZM339.099 211.487L373.434 18.2303H414.145L380.301 211.487H339.099ZM466.874 41.2838C469.327 28.5308 480.853 19.947 493.361 19.947C505.869 19.947 517.641 32.7 514.943 46.9245C512.491 59.4323 502.926 68.016 488.701 68.016C474.477 68.016 464.422 55.9988 466.874 41.2838ZM287.842 211.487L311.386 79.0523H352.833L329.534 211.487H287.842ZM118.537 533.01C118.537 467.528 65.4818 414.473 0 414.473C65.4818 414.473 118.537 361.417 118.537 295.935C118.537 361.417 171.593 414.473 237.075 414.473C171.593 414.473 118.537 467.528 118.537 533.01ZM286.452 524.917C286.452 531.457 281.792 536.198 274.762 536.198H263.317V513.635H274.762C281.792 513.635 286.452 518.377 286.452 524.999V524.917ZM287.596 164.89C291.275 144.534 285.389 130.8 273.617 121.971C286.125 114.859 294.709 104.068 297.406 89.1075C303.292 56.9798 280.239 32.4548 242.471 32.4548H169.876L138.484 211.487H216.229C256.695 211.487 282.201 194.81 287.596 164.89ZM205.193 69.7328H236.584C251.79 69.7328 257.676 76.5998 255.469 86.9003C253.997 94.7483 247.621 101.615 231.434 101.615H199.552L205.193 69.7328ZM192.93 139.139H221.869C240.263 139.139 246.64 146.741 244.678 157.532C242.716 167.588 234.622 173.964 217.455 173.964H186.799L192.93 139.139Z" fill="#F8F6F4"/>
</svg>
