<svg xmlns="http://www.w3.org/2000/svg" width="226" height="133" viewBox="0 0 226 133" fill="none">
  <g clip-path="url(#clip0_2104_48773)">
    <path d="M110.427 105.128C110.588 106.278 109.826 107.333 108.659 107.497C107.492 107.661 106.471 106.87 106.308 105.707C106.144 104.544 106.935 103.499 108.075 103.339C109.215 103.178 110.265 103.98 110.427 105.128ZM99.5953 104.377C98.6342 104.512 97.9713 105.177 97.791 106.082L101.746 105.526C101.369 104.645 100.585 104.238 99.5966 104.377L99.5953 104.377ZM156.945 96.3172C155.984 96.4523 155.321 97.1172 155.141 98.022L159.096 97.4662C158.719 96.5849 157.935 96.1781 156.947 96.317L156.945 96.3172ZM57.0967 108.019L55.2163 108.284L55.7373 111.991L57.6177 111.727C58.7713 111.565 59.4304 110.677 59.2803 109.61C59.1303 108.542 58.2503 107.857 57.0967 108.019ZM85.9341 106.297C84.9731 106.432 84.3102 107.097 84.1299 108.002L88.0846 107.446C87.7082 106.565 86.9235 106.158 85.9355 106.297L85.9341 106.297ZM65.8161 109.291C64.676 109.452 63.9123 110.493 64.0738 111.643C64.2354 112.792 65.2566 113.583 66.3967 113.423C67.5368 113.262 68.3005 112.221 68.1389 111.071C67.9774 109.922 66.9427 109.133 65.8161 109.291ZM120.308 101.619C119.141 101.783 118.379 102.84 118.541 103.988C118.702 105.136 119.725 105.942 120.892 105.778C122.059 105.613 122.81 104.574 122.646 103.411C122.483 102.248 121.448 101.459 120.308 101.619ZM198.627 92.0609C199.773 100.209 194.072 107.747 185.894 108.896L53.9808 127.436C45.8035 128.585 38.2457 122.911 37.1005 114.762C35.9553 106.613 41.6563 99.0758 49.8335 97.9265L181.747 79.3873C189.924 78.238 197.482 83.9123 198.627 92.0609ZM61.2442 109.334C60.9617 107.323 59.2244 105.92 56.9725 106.237L53.0177 106.792L54.4214 116.78L56.3705 116.506L55.9878 113.783L57.9786 113.503C60.244 113.185 61.5217 111.318 61.2429 109.334L61.2442 109.334ZM70.0215 110.822C69.7215 108.688 67.765 107.219 65.5547 107.529C63.3445 107.84 61.8821 109.79 62.182 111.924C62.4819 114.058 64.4116 115.53 66.6353 115.218C68.859 114.905 70.3195 112.943 70.0215 110.822ZM81.7216 105.409L79.7994 105.679L78.9281 110.741L76.5178 106.141L74.8285 106.378L73.7474 111.442L71.5737 106.835L69.6515 107.106L73.0925 114.156L74.9043 113.901L76.0123 108.834L78.4606 113.401L80.2455 113.151L81.7203 105.409L81.7216 105.409ZM90.0727 107.948C89.765 105.759 87.9341 104.383 85.7091 104.696C83.484 105.008 82.0633 106.952 82.3653 109.101C82.6673 111.25 84.4409 112.716 86.8302 112.38C88.4643 112.15 89.4132 111.333 90.0088 110.189L88.3299 109.504C88.0444 110.159 87.5072 110.624 86.6282 110.748C85.5298 110.902 84.6618 110.41 84.2809 109.487L90.1712 108.659L90.0713 107.948L90.0727 107.948ZM95.2402 105.561L95.6652 103.604C95.3259 103.485 94.8697 103.423 94.3757 103.493C93.4281 103.626 92.7422 104.127 92.5086 105.053L92.3489 103.917L90.4819 104.179L91.5203 111.567L93.4007 111.303L92.8527 107.404C92.6778 106.159 93.2397 105.577 94.2142 105.44C94.6396 105.38 95.0117 105.44 95.2388 105.561L95.2402 105.561ZM103.734 106.028C103.426 103.839 101.595 102.463 99.3702 102.776C97.1451 103.088 95.7245 105.032 96.0265 107.181C96.3285 109.33 98.102 110.796 100.491 110.46C102.125 110.23 103.074 109.413 103.67 108.269L101.991 107.585C101.706 108.239 101.168 108.704 100.289 108.828C99.191 108.982 98.3229 108.49 97.942 107.567L103.832 106.739L103.732 106.028L103.734 106.028ZM111.187 97.7939L109.32 98.0562L109.932 102.407C109.328 101.795 108.46 101.498 107.486 101.635C105.59 101.901 104.097 103.632 104.428 105.985C104.758 108.338 106.711 109.584 108.538 109.328C109.499 109.192 110.275 108.638 110.695 107.838L110.837 108.851L112.704 108.589L111.187 97.7939ZM124.542 103.16C124.211 100.807 122.299 99.5546 120.432 99.817C119.429 99.9579 118.669 100.526 118.275 101.306L117.654 96.8864L115.772 97.1509L117.289 107.946L119.156 107.683L119.012 106.657C119.61 107.327 120.537 107.643 121.525 107.504C123.351 107.247 124.871 105.512 124.541 103.16L124.542 103.16ZM131.877 98.3603L129.9 98.6382L128.742 103.657L126.151 99.1651L124.132 99.4489L128.106 106.104L128.025 106.422C127.778 107.35 127.408 107.708 126.735 107.803C126.309 107.863 125.968 107.729 125.668 107.492L124.785 109.178C125.39 109.498 126.213 109.675 126.996 109.565C128.562 109.345 129.267 108.59 129.771 106.594L131.877 98.359L131.877 98.3603ZM142.124 94.2694L135.671 95.1763L137.075 105.164L139.024 104.89L138.457 100.854L142.96 100.221L142.707 98.4154L138.203 99.0484L137.878 96.736L142.382 96.103L142.124 94.2694ZM145.853 96.3961L143.918 96.6682L144.956 104.056L146.891 103.784L145.853 96.3961ZM145.809 94.2823C145.709 93.5714 145.142 93.1204 144.413 93.2227C143.685 93.3251 143.278 93.913 143.378 94.6239C143.478 95.3348 144.041 95.759 144.756 95.6585C145.47 95.5581 145.907 94.9811 145.809 94.2823ZM152.465 95.6215C152.125 95.5023 151.669 95.4406 151.175 95.51C150.228 95.6432 149.542 96.1444 149.308 97.0705L149.148 95.9344L147.281 96.1967L148.32 103.585L150.202 103.32L149.654 99.4211C149.479 98.1763 150.041 97.594 151.015 97.457C151.44 97.3972 151.813 97.4571 152.04 97.5784L152.465 95.6215ZM161.084 97.9678C160.776 95.7788 158.945 94.4029 156.72 94.7156C154.495 95.0283 153.075 96.972 153.377 99.1208C153.679 101.27 155.452 102.736 157.841 102.4C159.476 102.17 160.424 101.353 161.02 100.209L159.341 99.5245C159.056 100.179 158.518 100.644 157.639 100.768C156.541 100.922 155.674 100.43 155.292 99.5067L161.182 98.6789L161.083 97.968L161.084 97.9678ZM165.517 90.1733L165.023 90.2427C162.607 90.5823 161.956 91.4275 162.292 93.8217L162.329 94.0819L161.107 94.2537L161.345 95.9505L162.568 95.7787L163.367 101.47L165.248 101.206L164.448 95.5144L166.233 95.2636L165.994 93.5668L164.209 93.8177L164.16 93.4622C164.002 92.3395 164.126 92.1279 165.445 91.9425L165.761 91.898L165.519 90.1744L165.517 90.1733ZM174.972 96.072C174.672 93.938 172.716 92.469 170.505 92.7796C168.295 93.0903 166.833 95.0398 167.133 97.1738C167.433 99.3078 169.362 100.781 171.586 100.468C173.81 100.156 175.27 98.1927 174.972 96.072ZM183.235 98.6777L179.876 95.2993L182.004 91.3168L179.781 91.6293L178.523 94.0383L176.663 92.0674L174.411 92.3839L177.539 95.6142L175.299 99.7944L177.578 99.4741L178.914 96.9283L180.942 99.0014L183.235 98.679L183.235 98.6777ZM170.767 94.5416C169.627 94.7018 168.863 95.7434 169.025 96.8929C169.186 98.0424 170.207 98.8331 171.347 98.6728C172.488 98.5126 173.251 97.4711 173.09 96.3216C172.928 95.172 171.893 94.3832 170.767 94.5416ZM51.4243 92.2317L64.2253 90.4326C70.8883 89.4962 74.7035 86.1697 74.9019 81.1356C75.0382 77.7106 73.7524 75.5934 71.6105 74.4172C73.5059 72.9608 74.6705 70.9916 74.7697 68.4746C74.998 63.067 70.6366 59.5765 64.4178 60.4505L52.4648 62.1304L51.4243 92.2317ZM63.4858 78.4314C66.5144 78.0058 67.7397 79.1057 67.6654 80.9216C67.5743 82.6168 66.3887 83.8503 63.562 84.2476L58.5143 84.957L58.7208 79.1011L63.4858 78.4314ZM64.3083 66.7031C66.8119 66.3512 67.9394 67.3417 67.8135 69.0829C67.7522 70.4046 66.8606 71.6789 64.1954 72.0534L58.9458 72.7912L59.1394 67.4295L64.3083 66.7031ZM76.2187 88.7471L83.0028 87.7936L84.1191 55.3016L77.4158 56.2437L76.2187 88.7471ZM95.2199 86.528C97.8044 86.1648 99.6942 84.6682 100.842 82.5783L100.73 85.3022L107.313 84.3771L108.095 62.1086L101.392 63.0507L101.285 66.1022C99.9412 64.1573 97.6951 63.1188 94.5453 63.5615C89.0534 64.3333 85.0211 69.0445 84.8598 75.2223C84.5637 82.1988 89.0011 87.402 95.2199 86.528ZM96.6798 79.9215C93.6512 80.3471 91.4608 77.9467 91.5325 74.9411C91.5397 72.3549 93.4375 70.0365 96.1431 69.6562C99.091 69.2419 101.38 71.4644 101.244 74.602C101.127 77.2857 99.2643 79.5583 96.6798 79.9215ZM119.691 83.0888C125.506 82.2716 128.37 78.9146 128.496 75.1218C128.654 70.0934 124.338 68.9765 120.902 68.5566C118.251 68.1496 116.729 67.871 116.731 67.009C116.734 66.1469 117.468 65.5103 118.8 65.323C120.739 65.0506 122.703 65.8414 123.767 66.964L128.305 62.633C126.056 60.6923 122.288 59.6626 118.169 60.2415C113.242 60.9338 109.843 63.9967 109.711 67.7493C109.507 72.7432 113.784 73.5784 117.306 74.0272C119.577 74.3645 121.543 74.5807 121.534 75.6898C121.508 76.6783 120.705 77.4067 119.372 77.594C117.272 77.8891 114.928 77.0287 113.513 75.4629L108.495 80.1896C110.899 82.3548 114.603 83.8039 119.691 83.0888ZM129.648 65.1526L133.524 64.6078L133.322 71.0787C133.031 78.3827 134.893 80.5009 142.283 79.4623L144.343 79.1729L144.585 72.6964L143.616 72.8326C140.143 73.3206 139.643 72.9807 139.819 69.8373L140.026 63.6941L144.912 63.0074L145.125 56.9044L140.239 57.5911L140.581 48.5975L133.948 53.2638L133.737 58.5048L129.901 59.0439L129.648 65.1526ZM168.709 76.1588C177.108 74.9783 182.778 68.1494 183.02 60.1958C183.281 51.2136 176.138 44.3389 167.012 45.6215C158.895 46.7623 152.902 53.6366 152.661 61.5901C152.399 70.5723 159.502 77.4527 168.709 76.1588ZM168.302 69.1581C163.254 69.8675 159.666 66.0221 159.818 61.2408C159.997 56.948 162.85 53.2233 167.332 52.5933C172.38 51.8839 176.008 55.7236 175.822 60.5509C175.683 64.8379 172.784 68.5281 168.302 69.1581ZM183.897 57.6514L187.088 57.2031L186.542 73.2422L193.285 72.2945L193.791 56.261L198.758 55.5629L198.994 49.3335L193.987 50.0373L194.041 49.25C194.14 46.733 194.782 46.0272 196.842 45.7378L199.103 45.42L199.328 39.1101L196.542 39.5017C189.394 40.5062 187.637 42.0663 187.33 50.7266L187.324 50.9737L184.134 51.422L183.897 57.6514ZM200.195 55.3609L203.386 54.9126L202.84 70.9517L209.583 70.0039L210.089 53.9705L215.056 53.2724L215.292 47.043L210.285 47.7467L210.339 46.9595C210.438 44.4424 211.08 43.7367 213.14 43.4472L215.401 43.1294L215.626 36.8195L212.84 37.2111C205.692 38.2157 203.935 39.7757 203.628 48.436L203.622 48.6831L200.432 49.1315L200.195 55.3609ZM27.6927 61.6028L40.4937 59.8037C47.1567 58.8673 50.9718 55.5408 51.1703 50.5067C51.3066 47.0817 50.0207 44.9645 47.8788 43.7883C49.7743 42.3319 50.9388 40.3627 51.038 37.8457C51.2664 32.4381 46.9049 28.9476 40.6862 29.8216L28.7332 31.5015L27.6927 61.6028ZM39.7542 47.8025C42.7828 47.3769 44.008 48.4767 43.9338 50.2927C43.8426 51.9879 42.6571 53.2214 39.8303 53.6187L34.7826 54.3281L34.9891 48.4722L39.7542 47.8025ZM40.5766 36.0742C43.0803 35.7223 44.2078 36.7128 44.0819 38.454C44.0206 39.7757 43.129 41.05 40.4638 41.4245L35.2142 42.1623L35.4078 36.8006L40.5766 36.0742ZM59.15 57.1818L59.9324 34.9132L53.1079 35.8723L52.2852 58.1466L59.15 57.1818ZM56.8916 33.494C59.2338 33.1649 60.6107 31.5351 60.7261 29.4262C60.8423 27.0299 59.1349 25.136 56.5504 25.4992C54.491 25.7887 52.791 27.4638 52.6812 29.613C52.6167 32.0841 54.3879 33.8459 56.8916 33.494ZM60.7249 56.9604L67.5091 56.007L68.6253 23.515L61.922 24.4571L60.7249 56.9604ZM69.0839 55.7856L75.8681 54.8322L76.9844 22.3402L70.281 23.2823L69.0839 55.7856ZM84.3078 53.6461L85.0902 31.3775L78.2657 32.3366L77.443 54.6109L84.3078 53.6461ZM82.0494 29.9583C84.3915 29.6292 85.7685 27.9994 85.8839 25.8905C86.0001 23.4942 84.2927 21.6003 81.7082 21.9635C79.6488 22.253 77.9488 23.9281 77.839 26.0773C77.7745 28.5484 79.5457 30.3102 82.0494 29.9583ZM98.3825 52.1194C105.005 51.1886 108.911 46.1669 109.175 40.426C109.441 33.8231 104.613 28.1824 96.9406 29.2607C90.6007 30.1517 86.4117 35.2132 86.1366 40.8736C85.8703 47.4765 90.6696 53.2033 98.3825 52.1194ZM97.9501 45.8198C94.9215 46.2455 92.7601 43.7589 92.8319 40.7533C92.9319 37.9489 94.9792 35.8146 97.4021 35.4741C100.482 35.1233 102.598 37.5753 102.486 40.5865C102.386 43.3909 100.413 45.4736 97.9501 45.8198ZM110.193 50.0082L116.936 49.0604L117.454 36.9235C117.52 33.8777 118.776 32.265 120.997 31.9529C123.218 31.6407 124.397 32.9934 124.291 35.7575L123.761 48.1013L130.666 47.1308L131.134 34.3444C131.399 28.3162 128.115 24.8794 123.391 25.5434C120.685 25.9236 118.859 27.2882 117.607 29.5158L117.719 26.7919L111.015 27.734L110.193 50.0082ZM142.802 45.8766C145.387 45.5133 147.277 44.0167 148.424 41.9268L148.313 44.6507L154.895 43.7257L155.677 21.4571L148.974 22.3992L148.868 25.4507C147.524 23.5058 145.278 22.4674 142.128 22.91C136.636 23.6819 132.604 28.3931 132.442 34.5709C132.146 41.5473 136.584 46.7506 142.802 45.8766ZM144.262 39.27C141.234 39.6957 139.043 37.2952 139.115 34.2896C139.122 31.7035 141.02 29.385 143.726 29.0048C146.673 28.5905 148.962 30.8129 148.827 33.9506C148.71 36.6343 146.847 38.9068 144.262 39.27ZM163.496 42.5168L164.279 20.2483L157.454 21.2074L156.631 43.4816L163.496 42.5168ZM161.238 18.8291C163.58 18.4999 164.957 16.8702 165.072 14.7613C165.189 12.3649 163.481 10.4711 160.897 10.8343C158.837 11.1238 157.137 12.7989 157.028 14.9481C156.963 17.4192 158.734 19.181 161.238 18.8291ZM165.233 42.2728L172.098 41.308L172.483 31.1594C172.65 27.0735 173.691 25.9834 177.447 25.4556L180.233 25.064L180.512 17.9668L177.564 18.3811C174.859 18.7614 173.147 20.356 172.245 23.3142L172.436 19.1019L166.056 19.9986L165.233 42.2728ZM191.26 39.0662C195.985 38.4022 198.84 36.1544 200.653 33.2324L194.882 30.5555C193.973 31.9964 192.528 33.1433 190.751 33.393C188.127 33.7619 186.163 32.6837 185.344 30.665L201.578 28.3835L201.623 26.6537C201.831 20.2231 196.805 15.2257 189.859 16.2019C183.802 17.0532 179.112 21.7747 178.876 28.0041C178.643 34.8484 183.709 40.1275 191.26 39.0662ZM190.241 21.8519C192.745 21.5001 194.322 22.4684 194.94 24.2281L185.41 25.5674C186.165 23.6148 187.818 22.1924 190.241 21.8519ZM48.6084 92.6275C37.8292 94.1424 27.8668 86.6627 26.3572 75.9214C27.8668 86.6627 20.352 96.5986 9.57274 98.1136C20.352 96.5986 30.3144 104.078 31.824 114.82C30.3144 104.078 37.8292 94.1424 48.6084 92.6275ZM212.318 10.2564C206.891 11.0192 201.876 7.25396 201.116 1.84576C201.876 7.25396 198.093 12.2556 192.666 13.0184C198.093 12.2556 203.108 16.0208 203.868 21.429C203.108 16.0208 206.891 11.0192 212.318 10.2564Z" fill="#F8F6F4"/>
  </g>
  <defs>
    <clipPath id="clip0_2104_48773">
      <rect width="213" height="104" fill="white" transform="translate(0 30) rotate(-8)"/>
    </clipPath>
  </defs>
</svg>