<svg xmlns="http://www.w3.org/2000/svg" width="98" height="48" viewBox="0 0 98 48" fill="none">
<path d="M45.5015 41.4303C45.5015 41.966 45.0869 42.3993 44.5447 42.3993C44.0024 42.3993 43.5878 41.9723 43.5878 41.4303C43.5878 40.8883 44.0149 40.4613 44.5447 40.4613C45.0744 40.4613 45.5015 40.8951 45.5015 41.4303ZM40.6147 40.3913C40.1681 40.3913 39.8235 40.6526 39.6834 41.0546H41.5209C41.4058 40.6276 41.0743 40.3913 40.6153 40.3913H40.6147ZM67.2604 40.3913C66.8139 40.3913 66.4693 40.6526 66.3292 41.0546H68.1666C68.0515 40.6276 67.7201 40.3913 67.261 40.3913H67.2604ZM21.0184 39.326H20.1447V41.0539H21.0184C21.5544 41.0539 21.9115 40.6907 21.9115 40.1931C21.9115 39.6955 21.5544 39.326 21.0184 39.326ZM34.2675 40.3913C33.8209 40.3913 33.4763 40.6526 33.3363 41.0546H35.1737C35.0586 40.6276 34.7271 40.3913 34.2681 40.3913H34.2675ZM24.9096 40.4675C24.3799 40.4675 23.9653 40.8945 23.9653 41.4303C23.9653 41.966 24.3799 42.393 24.9096 42.393C25.4393 42.393 25.854 41.966 25.854 41.4303C25.854 40.8945 25.4331 40.4675 24.9096 40.4675ZM50.2283 40.4613C49.6861 40.4613 49.2714 40.8951 49.2714 41.4303C49.2714 41.9654 49.6861 42.3993 50.2283 42.3993C50.7705 42.3993 51.1789 41.9723 51.1789 41.4303C51.1789 40.8883 50.758 40.4613 50.2283 40.4613ZM86.5239 41.1233C86.5239 44.9211 83.4438 48 79.6445 48H18.3555C14.5562 48 11.4761 44.9211 11.4761 41.1233C11.4761 37.3255 14.5562 34.2466 18.3555 34.2466H79.6445C83.4438 34.2466 86.5239 37.3255 86.5239 41.1233ZM22.8239 40.1931C22.8239 39.256 22.1222 38.5033 21.0759 38.5033H19.2385V43.1582H20.1441V41.8891H21.0691C22.1216 41.8891 22.8233 41.1177 22.8233 40.1931H22.8239ZM26.7277 41.4371C26.7277 40.4425 25.9303 39.6455 24.9034 39.6455C23.8765 39.6455 23.0853 40.4425 23.0853 41.4371C23.0853 42.4318 23.8702 43.2288 24.9034 43.2288C25.9365 43.2288 26.7277 42.4255 26.7277 41.4371ZM32.405 39.7149H31.512L30.7909 41.9723L29.9872 39.7149H29.2024L28.3856 41.9598L27.6902 39.7149H26.7971L27.9134 43.1582H28.7552L29.5845 40.9133L30.4075 43.1582H31.2368L32.4044 39.7149H32.405ZM36.0474 41.4115C36.0474 40.3913 35.3013 39.6448 34.2675 39.6448C33.2337 39.6448 32.462 40.4419 32.462 41.4434C32.462 42.4449 33.1762 43.2288 34.2862 43.2288C35.0455 43.2288 35.5302 42.9163 35.8748 42.4318L35.1537 42.011C34.9817 42.2917 34.7071 42.4699 34.2987 42.4699C33.7884 42.4699 33.4244 42.1892 33.31 41.7428H36.0467V41.4115H36.0474ZM38.5546 40.6526L38.8735 39.7855C38.7266 39.7092 38.5227 39.6517 38.2932 39.6517C37.8529 39.6517 37.5083 39.8368 37.3426 40.245V39.7155H36.4751V43.1588H37.3488V41.3415C37.3488 40.7614 37.6421 40.5313 38.0949 40.5313C38.2925 40.5313 38.4583 40.5826 38.554 40.6526H38.5546ZM42.3945 41.4115C42.3945 40.3913 41.6484 39.6448 40.6147 39.6448C39.5809 39.6448 38.8091 40.4419 38.8091 41.4434C38.8091 42.4449 39.5233 43.2288 40.6334 43.2288C41.3926 43.2288 41.8773 42.9163 42.2219 42.4318L41.5008 42.011C41.3289 42.2917 41.0543 42.4699 40.6459 42.4699C40.1356 42.4699 39.7716 42.1892 39.6572 41.7428H42.3939V41.4115H42.3945ZM46.3177 38.127H45.4502V40.155C45.2145 39.8361 44.838 39.6448 44.3852 39.6448C43.5046 39.6448 42.7135 40.34 42.7135 41.4365C42.7135 42.533 43.5234 43.2282 44.372 43.2282C44.8186 43.2282 45.2076 43.0244 45.4502 42.6862V43.1582H46.3177V38.127ZM52.0588 41.4371C52.0588 40.3406 51.2677 39.6455 50.4003 39.6455C49.9343 39.6455 49.5516 39.8561 49.3221 40.1875V38.1276H48.4478V43.1588H49.3152V42.6806C49.5447 43.025 49.9468 43.2288 50.4059 43.2288C51.2546 43.2288 52.0582 42.5337 52.0582 41.4371H52.0588ZM55.708 39.7149H54.7893L53.9407 41.9342L53.0476 39.7149H52.1095L53.4941 43.0119L53.4366 43.152C53.2646 43.5602 53.0732 43.7002 52.7605 43.7002C52.5629 43.7002 52.4159 43.6171 52.2946 43.4895L51.7843 44.2035C52.0394 44.3885 52.4028 44.5223 52.7668 44.5223C53.4941 44.5223 53.8637 44.2228 54.2215 43.3426L55.708 39.7142V39.7149ZM60.6387 38.5033H57.6405V43.1582H58.5461V41.2771H60.6387V40.4356H58.5461V39.3579H60.6387V38.5033ZM62.2015 39.7149H61.3022V43.1582H62.2015V39.7149ZM62.3166 38.7459C62.3166 38.4145 62.0871 38.172 61.7488 38.172C61.4104 38.172 61.1871 38.4145 61.1871 38.7459C61.1871 39.0772 61.4167 39.3072 61.7488 39.3072C62.0808 39.3072 62.3166 39.0716 62.3166 38.7459ZM65.2635 39.7855C65.1165 39.7092 64.9127 39.6517 64.6831 39.6517C64.2428 39.6517 63.8983 39.8368 63.7325 40.245V39.7155H62.8651V43.1588H63.7394V41.3415C63.7394 40.7614 64.0327 40.5313 64.4855 40.5313C64.6831 40.5313 64.8489 40.5826 64.9445 40.6526L65.2635 39.7855ZM69.0403 41.4115C69.0403 40.3913 68.2942 39.6448 67.2604 39.6448C66.2266 39.6448 65.4549 40.4419 65.4549 41.4434C65.4549 42.4449 66.1691 43.2288 67.2792 43.2288C68.0384 43.2288 68.5231 42.9163 68.8677 42.4318L68.1466 42.011C67.9746 42.2917 67.7001 42.4699 67.2917 42.4699C66.7813 42.4699 66.418 42.1892 66.3029 41.7428H69.0397V41.4115H69.0403ZM71.5594 38.1338H71.3299C70.2073 38.1338 69.8564 38.4783 69.8564 39.5942V39.7155H69.2886V40.5063H69.8564V43.1588H70.7301V40.5063H71.5594V39.7155H70.7301V39.5498C70.7301 39.0266 70.8001 38.9378 71.413 38.9378H71.56V38.1345L71.5594 38.1338ZM75.4894 41.4371C75.4894 40.4425 74.692 39.6455 73.6651 39.6455C72.6382 39.6455 71.8471 40.4425 71.8471 41.4371C71.8471 42.4318 72.6319 43.2288 73.6651 43.2288C74.6983 43.2288 75.4894 42.4255 75.4894 41.4371ZM79.0873 43.1588L77.7733 41.399L78.9979 39.7155H77.9647L77.2374 40.7357L76.5163 39.7155H75.47L76.6883 41.3928L75.4 43.1595H76.4588L77.2305 42.0817L78.0216 43.1595H79.0873V43.1588ZM73.6714 40.4675C73.1416 40.4675 72.727 40.8945 72.727 41.4303C72.727 41.966 73.1416 42.393 73.6714 42.393C74.2011 42.393 74.6157 41.966 74.6157 41.4303C74.6157 40.8945 74.1948 40.4675 73.6714 40.4675ZM19.4449 31.746H25.3924C28.4882 31.746 30.4394 30.4707 30.8522 28.1826C31.1336 26.626 30.6833 25.5757 29.7827 24.9006C30.7396 24.3567 31.3963 23.5315 31.6027 22.3874C32.0529 19.9306 30.2893 18.0551 27.4 18.0551H21.8464L19.4449 31.746ZM25.824 26.2134C27.2311 26.2134 27.7189 26.7948 27.5688 27.62C27.4187 28.3889 26.7996 28.8765 25.4863 28.8765H23.141L23.6101 26.2134H25.824ZM26.9497 20.9058C28.1129 20.9058 28.5632 21.431 28.3944 22.2186C28.2818 22.8188 27.794 23.3439 26.5557 23.3439H24.1166L24.5482 20.9058H26.9497ZM30.9647 31.746H34.1168L36.7059 16.9673H33.5914L30.9647 31.746ZM39.7641 31.9523C40.9649 31.9523 41.9217 31.3897 42.5784 30.5082L42.3533 31.746H45.4115L47.1938 21.6185H44.0794L43.8355 23.0063C43.3476 22.0311 42.3908 21.4122 40.9273 21.4122C38.3757 21.4122 36.2369 23.3064 35.7678 26.1196C35.1862 29.2891 36.8748 31.9523 39.7641 31.9523ZM40.8523 29.0266C39.4452 29.0266 38.6009 27.7888 38.826 26.4197C38.9949 25.2381 40.008 24.3004 41.2651 24.3004C42.6347 24.3004 43.5353 25.4632 43.2726 26.8885C43.0475 28.1076 42.0531 29.0266 40.8523 29.0266ZM51.1339 31.9523C53.8356 31.9523 55.3553 30.602 55.6555 28.8765C56.0495 26.5885 54.1545 25.8008 52.6161 25.3882C51.4341 25.0318 50.7586 24.8068 50.8149 24.4129C50.8712 24.0191 51.2464 23.7753 51.8656 23.7753C52.7662 23.7753 53.6104 24.2629 54.0232 24.8443L56.3684 23.1564C55.4679 22.1249 53.8168 21.4122 51.9031 21.4122C49.6141 21.4122 47.8693 22.5937 47.5691 24.3004C47.1563 26.5697 49.0513 27.2261 50.6273 27.6575C51.6404 27.9576 52.5222 28.1826 52.4472 28.689C52.3721 29.1391 51.9594 29.4204 51.3402 29.4204C50.3646 29.4204 49.3515 28.8765 48.8074 28.0701L46.2182 29.908C47.1751 31.0521 48.7699 31.9523 51.1339 31.9523ZM56.8187 24.3942H58.6199L58.1133 27.3387C57.5129 30.6582 58.2259 31.746 61.6593 31.746H62.6162L63.1415 28.8015H62.6912C61.0777 28.8015 60.8713 28.614 61.1527 27.1886L61.6406 24.3942H63.9108L64.3986 21.6185H62.1284L62.8601 17.53L59.5392 19.2367L59.1077 21.6185H57.3253L56.8187 24.3942ZM73.9109 31.9335C77.8134 31.9335 80.8341 29.1766 81.4532 25.557C82.1474 21.4685 79.3331 17.8676 75.0929 17.8676C71.3217 17.8676 68.151 20.6245 67.5318 24.2441C66.8376 28.3327 69.6332 31.9335 73.9109 31.9335ZM74.1736 28.7077C71.8283 28.7077 70.4399 26.7198 70.8152 24.5442C71.1716 22.5937 72.7101 21.0746 74.7927 21.0746C77.1379 21.0746 78.5451 23.0626 78.1511 25.2569C77.8134 27.2074 76.2561 28.7077 74.1736 28.7077ZM82.0161 24.4504H83.4982L82.2224 31.746H85.3557L86.6127 24.4504H88.9205L89.427 21.6185H87.1005L87.1756 21.2622C87.382 20.1181 87.7197 19.8368 88.6766 19.8368H89.7272L90.2338 16.9673H88.9392C85.6183 16.9673 84.7178 17.5675 84.0236 21.506L84.0048 21.6185H82.5226L82.0161 24.4504ZM89.5884 24.4504H91.0706L89.7948 31.746H92.928L94.1851 24.4504H96.4928L96.9994 21.6185H94.6729L94.7479 21.2622C94.9543 20.1181 95.292 19.8368 96.2489 19.8368H97.2996L97.8061 16.9673H96.5115C93.1907 16.9673 92.2901 17.5675 91.5959 21.506L91.5772 21.6185H90.095L89.5884 24.4504ZM10.5936 16.2228H16.5412C19.6369 16.2228 21.5881 14.9475 22.0009 12.6594C22.2823 11.1028 21.832 10.0525 20.9315 9.37734C21.8883 8.83346 22.545 8.00825 22.7514 6.86422C23.2017 4.40736 21.438 2.5319 18.5487 2.5319H12.9952L10.5936 16.2228ZM16.9727 10.6902C18.3798 10.6902 18.8677 11.2716 18.7176 12.0968C18.5675 12.8657 17.9483 13.3533 16.635 13.3533H14.2897L14.7588 10.6902H16.9727ZM18.0984 5.3826C19.2617 5.3826 19.7119 5.90773 19.5431 6.69543C19.4305 7.29558 18.9427 7.82071 17.7044 7.82071H15.2654L15.6969 5.3826H18.0984ZM25.2092 16.2228L26.9916 6.09528H23.8208L22.0197 16.2228H25.2092ZM25.697 5.25132C26.7852 5.25132 27.5169 4.59491 27.7045 3.63842C27.9109 2.55065 27.2543 1.57541 26.0535 1.57541C25.0966 1.57541 24.2148 2.23182 24.0272 3.20707C23.8396 4.33234 24.5338 5.25132 25.697 5.25132ZM25.9409 16.2228H29.0929L31.6821 1.44413H28.5676L25.9409 16.2228ZM29.8246 16.2228H32.9767L35.5658 1.44413H32.4513L29.8246 16.2228ZM36.8979 16.2228L38.6803 6.09528H35.5095L33.7084 16.2228H36.8979ZM37.3857 5.25132C38.4739 5.25132 39.2056 4.59491 39.3932 3.63842C39.5996 2.55065 38.943 1.57541 37.7422 1.57541C36.7853 1.57541 35.9035 2.23182 35.7159 3.20707C35.5283 4.33234 36.2225 5.25132 37.3857 5.25132ZM43.4083 16.4291C46.4853 16.4291 48.5866 14.3848 49.0744 11.7779C49.6185 8.77719 47.7798 5.88898 44.2151 5.88898C41.2694 5.88898 39.0368 7.93323 38.549 10.5026C38.0049 13.5034 39.8248 16.4291 43.4083 16.4291ZM43.6147 13.5221C42.2075 13.5221 41.382 12.2468 41.6072 10.8777C41.8323 9.6024 42.9017 8.75844 44.0275 8.75844C45.4534 8.79595 46.2601 10.0525 46.0162 11.4216C45.7911 12.6969 44.7592 13.5221 43.6147 13.5221ZM48.9243 16.2228H52.0576L53.0707 10.7089C53.2959 9.32108 53.9713 8.66467 55.0032 8.66467C56.0351 8.66467 56.4854 9.35859 56.2603 10.6151L55.2283 16.2228H58.4366L59.4686 10.4088C59.9751 7.67067 58.6993 5.88898 56.5042 5.88898C55.2471 5.88898 54.3278 6.39535 53.6148 7.33309L53.84 6.09528H50.7255L48.9243 16.2228ZM64.0465 16.4291C65.2472 16.4291 66.2041 15.8664 66.8608 14.985L66.6356 16.2228H69.6938L71.4762 6.09528H68.3617L68.1178 7.48312C67.63 6.50788 66.6731 5.88898 65.2097 5.88898C62.6581 5.88898 60.5192 7.7832 60.0502 10.5964C59.4685 13.7659 61.1571 16.4291 64.0465 16.4291ZM65.1347 13.5034C63.7275 13.5034 62.8832 12.2656 63.1084 10.8965C63.2772 9.71493 64.2904 8.77719 65.5474 8.77719C66.917 8.77719 67.8176 9.93998 67.555 11.3653C67.3298 12.5844 66.3354 13.5034 65.1347 13.5034ZM73.6901 16.2228L75.4725 6.09528H72.3017L70.5006 16.2228H73.6901ZM74.1779 5.25132C75.2661 5.25132 75.9978 4.59491 76.1855 3.63842C76.3918 2.55065 75.7352 1.57541 74.5344 1.57541C73.5776 1.57541 72.6957 2.23182 72.5081 3.20707C72.3205 4.33234 73.0147 5.25132 74.1779 5.25132ZM74.4969 16.2228H77.6864L78.5119 11.6091C78.8497 9.75243 79.3938 9.32108 81.1386 9.32108H82.4332L83.0148 6.09528H81.6452C80.3881 6.09528 79.5063 6.71418 78.9059 8.00825L79.2624 6.09528H76.298L74.4969 16.2228ZM86.5608 16.4291C88.756 16.4291 90.2006 15.5851 91.2138 14.3661L88.756 12.7719C88.2494 13.3721 87.5177 13.8034 86.6922 13.8034C85.4726 13.8034 84.6471 13.1845 84.4032 12.2093H91.9455L92.0768 11.4216C92.5834 8.49587 90.6134 5.88898 87.3864 5.88898C84.5721 5.88898 82.133 7.74569 81.6264 10.5776C81.0823 13.6909 83.0523 16.4291 86.5608 16.4291ZM87.1987 8.49587C88.362 8.49587 89.0186 9.03976 89.1875 9.88372H84.7597C85.2287 9.03976 86.073 8.49587 87.1987 8.49587ZM18.1366 31.746C13.1284 31.746 9.06828 27.6875 9.06828 22.6813C9.06828 27.6875 5.00819 31.746 0 31.746C5.00819 31.746 9.06828 35.8045 9.06828 40.8107C9.06828 35.8045 13.1284 31.746 18.1366 31.746ZM98 4.61429C95.4784 4.61429 93.4346 2.57128 93.4346 0.0506592C93.4346 2.57128 91.3908 4.61429 88.8692 4.61429C91.3908 4.61429 93.4346 6.65729 93.4346 9.17792C93.4346 6.65729 95.4784 4.61429 98 4.61429Z" fill="#F8F6F4"/>
</svg>