<svg width="752" height="423" viewBox="0 0 752 423" fill="none" xmlns="http://www.w3.org/2000/svg">
<g opacity="0.5">
<path d="M-0.00135194 -121L-200.426 123.468" stroke="#00A6F9" stroke-width="1.98826"/>
<path d="M22.7872 -121L-167.859 123.468" stroke="#00A6F9" stroke-width="1.98826"/>
<path d="M45.5722 -121L-135.297 123.468" stroke="#00A6F9" stroke-width="1.98826"/>
<path d="M68.3613 -121L-102.73 123.468" stroke="#00A6F9" stroke-width="1.98826"/>
<path d="M91.1496 -121L-70.1641 123.468" stroke="#00A6F9" stroke-width="1.98826"/>
<path d="M113.938 -121L-37.5977 123.468" stroke="#00A6F9" stroke-width="1.98826"/>
<path d="M136.727 -121L-5.03125 123.468" stroke="#00A6F9" stroke-width="1.98826"/>
<path d="M159.508 -121L27.5273 123.468" stroke="#00A6F9" stroke-width="1.98826"/>
<path d="M182.297 -121L60.0938 123.468" stroke="#00A6F9" stroke-width="1.98826"/>
<path d="M205.085 -121L92.6602 123.468" stroke="#00A6F9" stroke-width="1.98826"/>
<path d="M227.874 -121L125.227 123.468" stroke="#00A6F9" stroke-width="1.98826"/>
<path d="M250.66 -121L157.789 123.468" stroke="#00A6F9" stroke-width="1.98826"/>
<path d="M273.448 -121L190.355 123.468" stroke="#00A6F9" stroke-width="1.98826"/>
<path d="M296.236 -121L222.922 123.468" stroke="#00A6F9" stroke-width="1.98826"/>
<path d="M319.025 -121L255.488 123.468" stroke="#00A6F9" stroke-width="1.98826"/>
<path d="M341.811 -121L288.051 123.468" stroke="#00A6F9" stroke-width="1.98826"/>
<path d="M364.599 -121L320.617 123.468" stroke="#00A6F9" stroke-width="1.98826"/>
<path d="M387.387 -121L353.184 123.468" stroke="#00A6F9" stroke-width="1.98826"/>
<path d="M410.178 -121L385.752 123.468" stroke="#00A6F9" stroke-width="1.98826"/>
<path d="M432.958 -121L418.309 123.468" stroke="#00A6F9" stroke-width="1.98826"/>
<path d="M455.75 -121L450.879 123.468" stroke="#00A6F9" stroke-width="1.98826"/>
<path d="M-411.992 6.97754H481.007" stroke="#00A6F9" stroke-width="1.98826"/>
<path d="M-430.324 21.532H481.297" stroke="#00A6F9" stroke-width="1.98826"/>
<path d="M-449.441 36.6987H481.595" stroke="#00A6F9" stroke-width="1.98826"/>
<path d="M-469.383 52.5308H481.915" stroke="#00A6F9" stroke-width="1.98826"/>
<path d="M-490.219 69.0637H482.241" stroke="#00A6F9" stroke-width="1.98826"/>
<path d="M-511.992 86.3506H482.59" stroke="#00A6F9" stroke-width="1.98826"/>
<path d="M-534.789 104.439H482.948" stroke="#00A6F9" stroke-width="1.98826"/>
<path d="M478.621 -120.965L483.564 123.539" stroke="#00A6F9" stroke-width="1.98826"/>
<path d="M501.41 -120.965L516.132 123.539" stroke="#00A6F9" stroke-width="1.98826"/>
<path d="M524.201 -120.965L548.702 123.539" stroke="#00A6F9" stroke-width="1.98826"/>
<path d="M546.984 -120.965L581.264 123.539" stroke="#00A6F9" stroke-width="1.98826"/>
<path d="M569.775 -120.965L613.835 123.539" stroke="#00A6F9" stroke-width="1.98826"/>
<path d="M592.564 -120.965L646.403 123.539" stroke="#00A6F9" stroke-width="1.98826"/>
<path d="M615.354 -120.965L678.971 123.539" stroke="#00A6F9" stroke-width="1.98826"/>
<path d="M638.145 -120.964L711.541 123.54" stroke="#00A6F9" stroke-width="1.98826"/>
<path d="M660.928 -120.965L744.103 123.539" stroke="#00A6F9" stroke-width="1.98826"/>
<path d="M683.723 -120.965L776.677 123.539" stroke="#00A6F9" stroke-width="1.98826"/>
<path d="M706.508 -120.965L809.241 123.539" stroke="#00A6F9" stroke-width="1.98826"/>
<path d="M729.297 -120.965L841.81 123.539" stroke="#00A6F9" stroke-width="1.98826"/>
<path d="M752.088 -120.965L874.38 123.539" stroke="#00A6F9" stroke-width="1.98826"/>
<path d="M453.199 7.0332H1346.27" stroke="#00A6F9" stroke-width="1.98826"/>
<path d="M452.91 21.585H1364.6" stroke="#00A6F9" stroke-width="1.98826"/>
<path d="M452.605 36.7568H1383.71" stroke="#00A6F9" stroke-width="1.98826"/>
<path d="M452.293 52.5916H1403.67" stroke="#00A6F9" stroke-width="1.98826"/>
<path d="M451.957 69.127H1424.5" stroke="#00A6F9" stroke-width="1.98826"/>
<path d="M451.613 86.4163H1446.28" stroke="#00A6F9" stroke-width="1.98826"/>
<path d="M451.26 104.51H1469.08" stroke="#00A6F9" stroke-width="1.98826"/>
<path d="M6.0004 104.439L-326.605 678.033" stroke="#00A6F9" stroke-width="1.98826"/>
<path d="M37.8036 104.439L-271.863 678.033" stroke="#00A6F9" stroke-width="1.98826"/>
<path d="M69.6076 104.439L-217.117 678.033" stroke="#00A6F9" stroke-width="1.98826"/>
<path d="M101.412 104.439L-162.371 678.033" stroke="#00A6F9" stroke-width="1.98826"/>
<path d="M133.22 104.439L-107.621 678.033" stroke="#00A6F9" stroke-width="1.98826"/>
<path d="M165.015 104.439L-52.8867 678.033" stroke="#00A6F9" stroke-width="1.98826"/>
<path d="M196.827 104.439L1.86719 678.033" stroke="#00A6F9" stroke-width="1.98826"/>
<path d="M228.627 104.439L56.6094 678.033" stroke="#00A6F9" stroke-width="1.98826"/>
<path d="M260.439 104.439L111.363 678.033" stroke="#00A6F9" stroke-width="1.98826"/>
<path d="M292.234 104.439L166.098 678.033" stroke="#00A6F9" stroke-width="1.98826"/>
<path d="M324.04 104.439L220.846 678.033" stroke="#00A6F9" stroke-width="1.98826"/>
<path d="M355.848 104.439L275.596 678.033" stroke="#00A6F9" stroke-width="1.98826"/>
<path d="M387.65 104.439L330.34 678.033" stroke="#00A6F9" stroke-width="1.98826"/>
<path d="M419.453 104.439L385.082 678.033" stroke="#00A6F9" stroke-width="1.98826"/>
<path d="M451.255 104.439L439.826 678.033" stroke="#00A6F9" stroke-width="1.98826"/>
<path d="M-558.586 123.327H483.319" stroke="#00A6F9" stroke-width="1.98826"/>
<path d="M-583.621 143.202H483.722" stroke="#00A6F9" stroke-width="1.98826"/>
<path d="M-609.922 164.074H484.133" stroke="#00A6F9" stroke-width="1.98826"/>
<path d="M-637.566 186.016H484.572" stroke="#00A6F9" stroke-width="1.98826"/>
<path d="M-666.664 209.111H485.037" stroke="#00A6F9" stroke-width="1.98826"/>
<path d="M-697.348 233.461H485.516" stroke="#00A6F9" stroke-width="1.98826"/>
<path d="M-729.727 259.163H486.033" stroke="#00A6F9" stroke-width="1.98826"/>
<path d="M-763.973 286.336H486.565" stroke="#00A6F9" stroke-width="1.98826"/>
<path d="M-800.223 315.112H487.141" stroke="#00A6F9" stroke-width="1.98826"/>
<path d="M-838.676 345.632H487.75" stroke="#00A6F9" stroke-width="1.98826"/>
<path d="M-879.535 378.061H488.396" stroke="#00A6F9" stroke-width="1.98826"/>
<path d="M-923.031 412.586H489.087" stroke="#00A6F9" stroke-width="1.98826"/>
<path d="M483.178 104.51L494.776 678.237" stroke="#00A6F9" stroke-width="1.98826"/>
<path d="M514.986 104.51L549.531 678.237" stroke="#00A6F9" stroke-width="1.98826"/>
<path d="M546.793 104.51L604.284 678.237" stroke="#00A6F9" stroke-width="1.98826"/>
<path d="M578.6 104.51L659.038 678.237" stroke="#00A6F9" stroke-width="1.98826"/>
<path d="M610.408 104.51L713.793 678.237" stroke="#00A6F9" stroke-width="1.98826"/>
<path d="M642.215 104.51L768.546 678.237" stroke="#00A6F9" stroke-width="1.98826"/>
<path d="M674.021 104.51L823.299 678.237" stroke="#00A6F9" stroke-width="1.98826"/>
<path d="M705.83 104.51L878.054 678.237" stroke="#00A6F9" stroke-width="1.98826"/>
<path d="M737.631 104.51L932.802 678.237" stroke="#00A6F9" stroke-width="1.98826"/>
<path d="M450.879 123.396H1492.87" stroke="#00A6F9" stroke-width="1.98826"/>
<path d="M450.484 143.278H1517.92" stroke="#00A6F9" stroke-width="1.98826"/>
<path d="M450.064 164.15H1544.22" stroke="#00A6F9" stroke-width="1.98826"/>
<path d="M449.629 186.097H1571.87" stroke="#00A6F9" stroke-width="1.98826"/>
<path d="M449.174 209.2H1600.99" stroke="#00A6F9" stroke-width="1.98826"/>
<path d="M448.688 233.555H1631.67" stroke="#00A6F9" stroke-width="1.98826"/>
<path d="M448.172 259.264H1664.05" stroke="#00A6F9" stroke-width="1.98826"/>
<path d="M447.635 286.44H1698.3" stroke="#00A6F9" stroke-width="1.98826"/>
<path d="M447.057 315.218H1734.56" stroke="#00A6F9" stroke-width="1.98826"/>
<path d="M446.449 345.746H1773.02" stroke="#00A6F9" stroke-width="1.98826"/>
<path d="M445.801 378.185H1813.89" stroke="#00A6F9" stroke-width="1.98826"/>
<path d="M445.113 412.712H1857.4" stroke="#00A6F9" stroke-width="1.98826"/>
</g>
</svg>
