<svg width="24" height="25" viewBox="0 0 24 25" fill="none" xmlns="http://www.w3.org/2000/svg">
<path d="M7.25367 18.5C6.93501 18.5 6.61635 18.3826 6.36478 18.1312C5.87841 17.645 5.87841 16.8402 6.36478 16.354L15.8574 6.86465C16.3438 6.37845 17.1488 6.37845 17.6352 6.86465C18.1216 7.35086 18.1216 8.15561 17.6352 8.64181L8.14256 18.1312C7.90776 18.3826 7.57233 18.5 7.25367 18.5Z" fill="#53FFBC"/>
<path d="M16.7463 18.5C16.4277 18.5 16.109 18.3826 15.8574 18.1312L6.36478 8.64181C5.87841 8.15561 5.87841 7.35086 6.36478 6.86465C6.85115 6.37845 7.65618 6.37845 8.14256 6.86465L17.6352 16.354C18.1216 16.8402 18.1216 17.645 17.6352 18.1312C17.3836 18.3826 17.065 18.5 16.7463 18.5Z" fill="#53FFBC"/>
</svg>
