<svg width="55" height="57" viewBox="0 0 55 57" fill="none" xmlns="http://www.w3.org/2000/svg">
<mask id="path-1-outside-1_5506_14173" maskUnits="userSpaceOnUse" x="-3.58125" y="-3.67423" width="61.7549" height="63.1691" fill="black">
<rect fill="white" x="-3.58125" y="-3.67423" width="61.7549" height="63.1691"/>
<path fill-rule="evenodd" clip-rule="evenodd" d="M32.6486 5.5352C32.6741 5.53393 32.701 5.55798 32.7026 5.58301C32.7967 5.85512 32.9175 6.15106 33.0884 6.41836C33.1731 6.5395 33.2601 6.68579 33.3736 6.85571C33.5445 7.12309 33.7414 7.38918 33.9379 7.65497C37.7426 12.8533 42.15 15.084 45.0458 21.0347C44.549 18.8981 43.7239 16.848 42.6136 14.9437C42.5392 14.816 42.4633 14.6887 42.3863 14.5623C42.487 14.605 42.5892 14.655 42.6934 14.7103L42.6943 14.7105C42.7684 14.7497 42.8421 14.794 42.9177 14.8391C42.9492 14.858 42.9821 14.8753 43.0138 14.8952C44.5115 15.8313 46.2441 17.8747 47.222 19.8293C48.2792 22.0468 48.9522 24.4057 49.2331 26.8164C49.2768 27.1832 49.3133 27.5509 49.3389 27.9194C49.4034 28.8488 49.4102 29.7827 49.3592 30.7153C49.3524 31.019 49.3193 31.2993 49.311 31.5779C49.0319 34.073 48.3322 36.4376 47.2857 38.6046C47.2832 38.6097 47.281 38.6149 47.2785 38.6199C43.8744 45.684 36.7774 50.6483 28.4836 51.1664C16.1672 51.9608 5.56748 42.7864 4.81066 30.6711L4.8043 30.5703C4.77631 29.8134 4.80574 29.0388 4.88241 28.279C4.88953 28.2085 4.89768 28.1381 4.90562 28.0679C4.92254 27.8683 4.93992 27.6689 4.96257 27.4705L4.99209 27.1943C4.99741 27.1438 5.0032 27.0944 5.00856 27.046C5.02767 26.8772 5.05034 26.6857 5.07198 26.515C5.0791 26.4601 5.08583 26.4082 5.09236 26.3598C5.10762 26.2289 5.1217 26.1228 5.13183 26.0691L5.14862 25.9158C5.36876 24.5602 5.7453 23.2268 6.27669 21.9435C6.6828 20.9503 7.17799 19.9839 7.75818 19.0557C7.97239 18.7285 8.19647 18.4062 8.42615 18.0872C8.81839 17.5268 9.24292 16.9883 9.70041 16.4784C10.3237 15.7568 11.0287 15.1055 11.7623 14.5034C11.9833 14.3379 12.2318 14.1961 12.4815 14.0794C12.4815 14.081 12.4812 14.0827 12.4812 14.0843C12.4829 14.0835 12.485 14.0835 12.4867 14.0828C12.4827 14.8404 12.6577 18.4598 13.5936 19.5204C14.9462 17.717 16.7039 16.2172 18.6907 15.1072C18.6888 15.1167 18.687 15.1265 18.6851 15.136C18.6873 15.1347 18.6898 15.134 18.692 15.1328C18.5274 15.9173 18.4622 16.7149 18.4926 17.5068C18.5337 18.5098 18.7283 19.5031 19.0702 20.4489C19.0824 20.4567 19.0958 20.4629 19.1077 20.4711C19.2889 20.5822 19.4949 20.7163 19.679 20.8517C21.3336 19.3889 23.4295 18.4526 25.6426 18.1629C25.6362 15.1795 27.1585 9.09104 32.54 5.51821L32.5412 5.54381C32.5622 5.5425 32.5664 5.54168 32.567 5.54164L32.5692 5.5412L32.5716 5.53982C32.5969 5.53824 32.5972 5.53859 32.5972 5.53859C32.6226 5.53701 32.6231 5.53679 32.6486 5.5352ZM4.83142 29.2541C4.82827 29.3306 4.82956 29.4078 4.82894 29.486C4.83191 29.3684 4.83408 29.2506 4.83867 29.1327C4.8364 29.1731 4.83309 29.2135 4.83142 29.2541Z"/>
</mask>
<path fill-rule="evenodd" clip-rule="evenodd" d="M32.6486 5.5352C32.6741 5.53393 32.701 5.55798 32.7026 5.58301C32.7967 5.85512 32.9175 6.15106 33.0884 6.41836C33.1731 6.5395 33.2601 6.68579 33.3736 6.85571C33.5445 7.12309 33.7414 7.38918 33.9379 7.65497C37.7426 12.8533 42.15 15.084 45.0458 21.0347C44.549 18.8981 43.7239 16.848 42.6136 14.9437C42.5392 14.816 42.4633 14.6887 42.3863 14.5623C42.487 14.605 42.5892 14.655 42.6934 14.7103L42.6943 14.7105C42.7684 14.7497 42.8421 14.794 42.9177 14.8391C42.9492 14.858 42.9821 14.8753 43.0138 14.8952C44.5115 15.8313 46.2441 17.8747 47.222 19.8293C48.2792 22.0468 48.9522 24.4057 49.2331 26.8164C49.2768 27.1832 49.3133 27.5509 49.3389 27.9194C49.4034 28.8488 49.4102 29.7827 49.3592 30.7153C49.3524 31.019 49.3193 31.2993 49.311 31.5779C49.0319 34.073 48.3322 36.4376 47.2857 38.6046C47.2832 38.6097 47.281 38.6149 47.2785 38.6199C43.8744 45.684 36.7774 50.6483 28.4836 51.1664C16.1672 51.9608 5.56748 42.7864 4.81066 30.6711L4.8043 30.5703C4.77631 29.8134 4.80574 29.0388 4.88241 28.279C4.88953 28.2085 4.89768 28.1381 4.90562 28.0679C4.92254 27.8683 4.93992 27.6689 4.96257 27.4705L4.99209 27.1943C4.99741 27.1438 5.0032 27.0944 5.00856 27.046C5.02767 26.8772 5.05034 26.6857 5.07198 26.515C5.0791 26.4601 5.08583 26.4082 5.09236 26.3598C5.10762 26.2289 5.1217 26.1228 5.13183 26.0691L5.14862 25.9158C5.36876 24.5602 5.7453 23.2268 6.27669 21.9435C6.6828 20.9503 7.17799 19.9839 7.75818 19.0557C7.97239 18.7285 8.19647 18.4062 8.42615 18.0872C8.81839 17.5268 9.24292 16.9883 9.70041 16.4784C10.3237 15.7568 11.0287 15.1055 11.7623 14.5034C11.9833 14.3379 12.2318 14.1961 12.4815 14.0794C12.4815 14.081 12.4812 14.0827 12.4812 14.0843C12.4829 14.0835 12.485 14.0835 12.4867 14.0828C12.4827 14.8404 12.6577 18.4598 13.5936 19.5204C14.9462 17.717 16.7039 16.2172 18.6907 15.1072C18.6888 15.1167 18.687 15.1265 18.6851 15.136C18.6873 15.1347 18.6898 15.134 18.692 15.1328C18.5274 15.9173 18.4622 16.7149 18.4926 17.5068C18.5337 18.5098 18.7283 19.5031 19.0702 20.4489C19.0824 20.4567 19.0958 20.4629 19.1077 20.4711C19.2889 20.5822 19.4949 20.7163 19.679 20.8517C21.3336 19.3889 23.4295 18.4526 25.6426 18.1629C25.6362 15.1795 27.1585 9.09104 32.54 5.51821L32.5412 5.54381C32.5622 5.5425 32.5664 5.54168 32.567 5.54164L32.5692 5.5412L32.5716 5.53982C32.5969 5.53824 32.5972 5.53859 32.5972 5.53859C32.6226 5.53701 32.6231 5.53679 32.6486 5.5352ZM4.83142 29.2541C4.82827 29.3306 4.82956 29.4078 4.82894 29.486C4.83191 29.3684 4.83408 29.2506 4.83867 29.1327C4.8364 29.1731 4.83309 29.2135 4.83142 29.2541Z" fill="white"/>
<path fill-rule="evenodd" clip-rule="evenodd" d="M32.6486 5.5352L32.537 3.29161C32.5275 3.29208 32.518 3.29261 32.5086 3.2932L32.6486 5.5352ZM32.7026 5.58301L30.4606 5.72306C30.4732 5.92557 30.5132 6.12543 30.5796 6.31719L32.7026 5.58301ZM33.0884 6.41836L31.1956 7.62811C31.2123 7.65426 31.2295 7.68007 31.2473 7.7055L33.0884 6.41836ZM33.3736 6.85571L35.2663 5.6458C35.2582 5.63323 35.2501 5.62074 35.2418 5.60833L33.3736 6.85571ZM33.9379 7.65497L35.7506 6.32821L35.7442 6.31949L33.9379 7.65497ZM45.0458 21.0347L43.026 22.0176C43.5262 23.0456 44.7188 23.5339 45.7964 23.1519C46.874 22.7699 47.4928 21.6395 47.2338 20.5259L45.0458 21.0347ZM42.6136 14.9437L40.673 16.0751L42.6136 14.9437ZM42.3863 14.5623L43.2634 12.4942C42.3652 12.1133 41.3238 12.3556 40.6862 13.094C40.0485 13.8324 39.9603 14.8979 40.4679 15.731L42.3863 14.5623ZM42.6934 14.7103L41.6404 16.6946C41.7901 16.774 41.9483 16.8363 42.112 16.8801L42.6934 14.7103ZM42.6943 14.7105L43.7434 12.7242C43.5948 12.6457 43.438 12.5842 43.2757 12.5407L42.6943 14.7105ZM42.9177 14.8391L44.0733 12.9128L44.0698 12.9107L42.9177 14.8391ZM43.0138 14.8952L41.82 16.7981L41.8233 16.8002L43.0138 14.8952ZM47.222 19.8293L49.2497 18.8626C49.2436 18.8497 49.2373 18.8369 49.231 18.8242L47.222 19.8293ZM49.2331 26.8164L47.0018 27.0763L47.0025 27.0819L49.2331 26.8164ZM49.3389 27.9194L51.5799 27.7639L49.3389 27.9194ZM49.3592 30.7153L47.1162 30.5925C47.1148 30.6168 47.1139 30.6411 47.1134 30.6654L49.3592 30.7153ZM49.311 31.5779L51.5435 31.8276C51.5503 31.7669 51.5546 31.7059 51.5564 31.6448L49.311 31.5779ZM47.2857 38.6046L45.2628 37.6278L45.2612 37.631L47.2857 38.6046ZM47.2785 38.6199L45.2549 37.6447L47.2785 38.6199ZM28.4836 51.1664L28.3436 48.9243L28.339 48.9246L28.4836 51.1664ZM4.81066 30.6711L7.05266 30.531L7.05257 30.5296L4.81066 30.6711ZM4.8043 30.5703L2.55947 30.6533C2.56019 30.6728 2.56117 30.6923 2.56239 30.7117L4.8043 30.5703ZM4.88241 28.279L2.64739 28.0535L4.88241 28.279ZM4.90562 28.0679L7.13779 28.32C7.14014 28.2992 7.14219 28.2784 7.14396 28.2576L4.90562 28.0679ZM4.96257 27.4705L7.19444 27.7253C7.19505 27.7199 7.19565 27.7146 7.19622 27.7092L4.96257 27.4705ZM4.99209 27.1943L7.22574 27.433L7.22611 27.4295L4.99209 27.1943ZM5.00856 27.046L2.77643 26.7935L2.77585 26.7987L5.00856 27.046ZM5.07198 26.515L2.84423 26.2264L2.84344 26.2326L5.07198 26.515ZM5.09236 26.3598L7.31858 26.6599C7.32037 26.6466 7.32205 26.6333 7.32361 26.6199L5.09236 26.3598ZM5.13183 26.0691L7.33937 26.4849C7.35005 26.4282 7.35855 26.3711 7.36483 26.3138L5.13183 26.0691ZM5.14862 25.9158L2.9313 25.5558C2.92508 25.5941 2.91985 25.6325 2.91562 25.6711L5.14862 25.9158ZM6.27669 21.9435L8.35218 22.803L8.35596 22.7937L6.27669 21.9435ZM7.75818 19.0557L5.87867 17.8254C5.87008 17.8386 5.86164 17.8518 5.85333 17.8651L7.75818 19.0557ZM8.42615 18.0872L10.2492 19.3997C10.255 19.3916 10.2608 19.3835 10.2665 19.3753L8.42615 18.0872ZM9.70041 16.4784L11.3724 17.9786C11.3819 17.9681 11.3912 17.9575 11.4004 17.9468L9.70041 16.4784ZM11.7623 14.5034L10.4158 12.7053C10.3892 12.7252 10.3629 12.7458 10.3372 12.7669L11.7623 14.5034ZM12.4815 14.0794L14.7279 14.0911C14.7319 13.321 14.3412 12.6026 13.6926 12.1874C13.044 11.7722 12.2279 11.7182 11.5303 12.0443L12.4815 14.0794ZM12.4812 14.0843L10.2349 14.075C10.2317 14.8451 10.6232 15.5631 11.2722 15.9776C11.9212 16.3921 12.7373 16.4452 13.4346 16.1183L12.4812 14.0843ZM12.4867 14.0828L14.733 14.0946C14.7371 13.3246 14.3464 12.6061 13.6978 12.1909C13.0493 11.7757 12.2332 11.7216 11.5355 12.0477L12.4867 14.0828ZM13.5936 19.5204L11.9094 21.0068C12.3564 21.5134 13.0078 21.7918 13.6829 21.7649C14.3581 21.7381 14.9852 21.4088 15.3906 20.8682L13.5936 19.5204ZM18.6907 15.1072L20.8892 15.5686C21.0701 14.707 20.7309 13.8191 20.0216 13.2975C19.3123 12.7759 18.3637 12.7167 17.5951 13.1461L18.6907 15.1072ZM18.6851 15.136L16.4852 14.6812C16.3072 15.5424 16.648 16.4282 17.3573 16.948C18.0667 17.4677 19.0141 17.5258 19.7816 17.0966L18.6851 15.136ZM18.692 15.1328L20.8905 15.5941C21.0713 14.7325 20.7321 13.8447 20.0228 13.3231C19.3135 12.8015 18.3649 12.7423 17.5963 13.1717L18.692 15.1328ZM18.4926 17.5068L16.2479 17.593L16.2481 17.5988L18.4926 17.5068ZM19.0702 20.4489L16.9575 21.2124C17.1258 21.678 17.4431 22.0749 17.8601 22.3415L19.0702 20.4489ZM19.1077 20.4711L17.8314 22.3197C17.8648 22.3427 17.8988 22.3649 17.9334 22.3861L19.1077 20.4711ZM19.679 20.8517L18.3489 22.6619C19.2011 23.2881 20.3747 23.2351 21.1669 22.5346L19.679 20.8517ZM25.6426 18.1629L25.9341 20.3903C27.0543 20.2437 27.8914 19.2879 27.889 18.1581L25.6426 18.1629ZM32.54 5.51821L34.7838 5.41064C34.745 4.60316 34.2754 3.87875 33.5541 3.51379C32.8328 3.14883 31.971 3.1996 31.2975 3.64675L32.54 5.51821ZM32.5412 5.54381L30.2974 5.65138C30.3262 6.2521 30.5947 6.81619 31.0427 7.21737C31.4908 7.61854 32.081 7.8233 32.6812 7.78581L32.5412 5.54381ZM32.567 5.54164L32.7071 7.78364C32.8114 7.77713 32.9151 7.76335 33.0174 7.7424L32.567 5.54164ZM32.5692 5.5412L33.0195 7.74196C33.2561 7.69356 33.4833 7.60734 33.6924 7.48661L32.5692 5.5412ZM32.5716 5.53982L32.4315 3.29782C32.0853 3.31945 31.7488 3.42097 31.4484 3.59441L32.5716 5.53982ZM32.5972 5.53859L30.8012 6.88796C31.2553 7.49227 31.9828 7.82772 32.7372 7.78059L32.5972 5.53859ZM4.83142 29.2541L2.58696 29.1616L4.83142 29.2541ZM4.82894 29.486L2.58264 29.4682C2.57286 30.7012 3.55877 31.7116 4.79163 31.732C6.0245 31.7525 7.04342 30.7754 7.07459 29.5428L4.82894 29.486ZM4.83867 29.1327L7.08334 29.2201C7.1313 27.988 6.17714 26.9475 4.94549 26.8889C3.71385 26.8303 2.66516 27.7754 2.59586 29.0065L4.83867 29.1327ZM32.6486 5.5352L32.7603 7.77879C32.0493 7.81418 31.5087 7.50971 31.1918 7.22784C30.8769 6.94785 30.5055 6.44304 30.4606 5.72306L32.7026 5.58301L34.9446 5.44296C34.898 4.69795 34.5124 4.1686 34.1774 3.87065C33.8402 3.57081 33.2734 3.25494 32.537 3.29161L32.6486 5.5352ZM32.7026 5.58301L30.5796 6.31719C30.6984 6.66093 30.8873 7.14582 31.1956 7.62811L33.0884 6.41836L34.9812 5.20861C34.9677 5.1876 34.9455 5.14831 34.9168 5.08428C34.8882 5.02047 34.8583 4.94352 34.8256 4.84882L32.7026 5.58301ZM33.0884 6.41836L31.2473 7.7055C31.3488 7.85059 31.2703 7.75106 31.5054 8.10308L33.3736 6.85571L35.2418 5.60833C35.201 5.5472 35.1649 5.49041 35.1141 5.41079C35.07 5.34167 35.0029 5.23635 34.9294 5.13121L33.0884 6.41836ZM33.3736 6.85571L31.4809 8.06561C31.7003 8.40883 31.9446 8.73746 32.1316 8.99045L33.9379 7.65497L35.7442 6.31949C35.5382 6.0409 35.3887 5.83736 35.2663 5.6458L33.3736 6.85571ZM33.9379 7.65497L32.1252 8.98172C34.1577 11.7587 36.3933 13.7888 38.2394 15.6462C40.1143 17.5327 41.7381 19.3711 43.026 22.0176L45.0458 21.0347L47.0657 20.0517C45.4578 16.7475 43.4298 14.4953 41.4259 12.4791C39.3932 10.4339 37.5228 8.74951 35.7506 6.32822L33.9379 7.65497ZM45.0458 21.0347L47.2338 20.5259C46.6845 18.1634 45.7739 15.9041 44.5543 13.8123L42.6136 14.9437L40.673 16.0751C41.6739 17.7919 42.4136 19.6328 42.8578 21.5434L45.0458 21.0347ZM42.6136 14.9437L44.5543 13.8123C44.4723 13.6717 44.389 13.532 44.3046 13.3935L42.3863 14.5623L40.4679 15.731C40.5375 15.8454 40.606 15.9602 40.673 16.0751L42.6136 14.9437ZM42.3863 14.5623L41.5091 16.6303C41.5345 16.6411 41.5765 16.6607 41.6404 16.6946L42.6934 14.7103L43.7463 12.726C43.6019 12.6494 43.4394 12.5689 43.2634 12.4942L42.3863 14.5623ZM42.6934 14.7103L42.112 16.8801L42.1129 16.8804L42.6943 14.7105L43.2757 12.5407L43.2748 12.5405L42.6934 14.7103ZM42.6943 14.7105L41.6453 16.6969C41.6451 16.6968 41.6472 16.698 41.6524 16.7009C41.6576 16.7038 41.665 16.708 41.6753 16.714C41.6987 16.7276 41.7229 16.7421 41.7656 16.7676L42.9177 14.8391L44.0698 12.9107C44.0098 12.8749 43.8807 12.7967 43.7434 12.7242L42.6943 14.7105ZM42.9177 14.8391L41.762 16.7655C41.7878 16.7809 41.8101 16.7938 41.8251 16.8024C41.8327 16.8067 41.8396 16.8106 41.8444 16.8134C41.851 16.8171 41.8517 16.8175 41.8556 16.8197C41.8611 16.8229 41.8588 16.8216 41.8536 16.8185C41.8479 16.8152 41.8359 16.8081 41.82 16.7981L43.0138 14.8952L44.2077 12.9924C44.1473 12.9545 44.0946 12.9246 44.0757 12.9139C44.0608 12.9054 44.0619 12.9061 44.0579 12.9038C44.0569 12.9032 44.0633 12.9068 44.0733 12.9128L42.9177 14.8391ZM43.0138 14.8952L41.8233 16.8002C42.8893 17.4664 44.3718 19.1529 45.213 20.8344L47.222 19.8293L49.231 18.8242C48.1164 16.5964 46.1337 14.1961 44.2044 12.9903L43.0138 14.8952ZM47.222 19.8293L45.1943 20.796C46.1443 22.7886 46.7493 24.9085 47.0018 27.0763L49.2331 26.8164L51.4644 26.5564C51.1552 23.9029 50.4141 21.305 49.2497 18.8626L47.222 19.8293ZM49.2331 26.8164L47.0025 27.0819C47.0428 27.4204 47.0754 27.7505 47.0979 28.075L49.3389 27.9194L51.5799 27.7639C51.5513 27.3512 51.5108 26.9461 51.4637 26.5508L49.2331 26.8164ZM49.3389 27.9194L47.0979 28.075C47.156 28.9115 47.1621 29.7524 47.1162 30.5925L49.3592 30.7153L51.6022 30.838C51.6583 29.8129 51.6508 28.7861 51.5799 27.7639L49.3389 27.9194ZM49.3592 30.7153L47.1134 30.6654C47.1113 30.7563 47.1052 30.8527 47.095 30.9967C47.0859 31.1246 47.0715 31.3155 47.0656 31.511L49.311 31.5779L51.5564 31.6448C51.5589 31.5616 51.5652 31.4732 51.5764 31.3153C51.5865 31.1736 51.6003 30.978 51.605 30.7651L49.3592 30.7153ZM49.311 31.5779L47.0786 31.3282C46.8283 33.5655 46.2012 35.6847 45.2628 37.6278L47.2857 38.6046L49.3085 39.5815C50.4631 37.1906 51.2355 34.5805 51.5435 31.8276L49.311 31.5779ZM47.2857 38.6046L45.2612 37.631C45.2549 37.6443 45.2498 37.6552 45.2465 37.6623C45.2448 37.6659 45.2434 37.669 45.2424 37.671C45.2415 37.6729 45.2407 37.6747 45.2406 37.6751C45.2402 37.6758 45.2405 37.6753 45.2409 37.6745C45.2413 37.6735 45.2421 37.6717 45.2433 37.6692C45.2455 37.6644 45.2496 37.6557 45.2549 37.6447L47.2785 38.6199L49.3022 39.5951C49.3087 39.5816 49.3139 39.5704 49.3174 39.563C49.3191 39.5593 49.3206 39.5561 49.3216 39.5539C49.3225 39.5519 49.3234 39.55 49.3236 39.5495C49.324 39.5486 49.3238 39.5491 49.3235 39.5497C49.3231 39.5505 49.3223 39.5523 49.3213 39.5546C49.3191 39.5591 49.3152 39.5676 49.3101 39.5783L47.2857 38.6046ZM47.2785 38.6199L45.2549 37.6447C42.1995 43.9851 35.8177 48.4575 28.3436 48.9244L28.4836 51.1664L28.6237 53.4083C37.7371 52.8391 45.5493 47.3829 49.3022 39.5951L47.2785 38.6199ZM28.4836 51.1664L28.339 48.9246C17.2265 49.6414 7.72979 41.3707 7.05266 30.531L4.81066 30.6711L2.56866 30.8111C3.40517 44.2022 15.108 54.2802 28.6282 53.4081L28.4836 51.1664ZM4.81066 30.6711L7.05257 30.5296L7.04621 30.4288L4.8043 30.5703L2.56239 30.7117L2.56875 30.8125L4.81066 30.6711ZM4.8043 30.5703L7.04914 30.4873C7.02531 29.8429 7.05009 29.1718 7.11743 28.5045L4.88241 28.279L2.64739 28.0535C2.56138 28.9059 2.52732 29.7839 2.55947 30.6533L4.8043 30.5703ZM4.88241 28.279L7.11743 28.5045C7.12281 28.4512 7.12879 28.3997 7.13779 28.32L4.90562 28.0679L2.67345 27.8157C2.66657 27.8766 2.65624 27.9657 2.64739 28.0535L4.88241 28.279ZM4.90562 28.0679L7.14396 28.2576C7.16091 28.0577 7.1759 27.8877 7.19444 27.7253L4.96257 27.4705L2.73071 27.2156C2.70394 27.4501 2.68417 27.6788 2.66728 27.8781L4.90562 28.0679ZM4.96257 27.4705L7.19622 27.7092L7.22574 27.433L4.99209 27.1943L2.75845 26.9555L2.72893 27.2317L4.96257 27.4705ZM4.99209 27.1943L7.22611 27.4295C7.23077 27.3852 7.23359 27.3627 7.24127 27.2934L5.00856 27.046L2.77585 26.7987C2.77282 26.8261 2.76404 26.9024 2.75808 26.959L4.99209 27.1943ZM5.00856 27.046L7.24069 27.2986C7.25893 27.1374 7.28041 26.9561 7.30052 26.7975L5.07198 26.515L2.84344 26.2326C2.82028 26.4154 2.7964 26.617 2.77644 26.7935L5.00856 27.046ZM5.07198 26.515L7.29972 26.8037C7.30701 26.7475 7.31297 26.7016 7.31858 26.6599L5.09236 26.3598L2.86614 26.0596C2.85869 26.1148 2.8512 26.1726 2.84424 26.2264L5.07198 26.515ZM5.09236 26.3598L7.32361 26.6199C7.33026 26.5629 7.33589 26.5179 7.34019 26.486C7.34233 26.4702 7.34367 26.4611 7.34419 26.4577C7.34503 26.4521 7.34344 26.4633 7.33937 26.4849L5.13183 26.0691L2.92429 25.6532C2.89731 25.7964 2.87514 25.9792 2.86111 26.0996L5.09236 26.3598ZM5.13183 26.0691L7.36483 26.3138L7.38162 26.1605L5.14862 25.9158L2.91562 25.6711L2.89883 25.8243L5.13183 26.0691ZM5.14862 25.9158L7.36595 26.2759C7.55847 25.0903 7.88772 23.9246 8.35216 22.803L6.27669 21.9435L4.20122 21.0841C3.60289 22.5291 3.17904 24.0301 2.9313 25.5558L5.14862 25.9158ZM6.27669 21.9435L8.35596 22.7937C8.71316 21.9201 9.14978 21.0675 9.66304 20.2464L7.75818 19.0557L5.85333 17.8651C5.20621 18.9003 4.65244 19.9805 4.19742 21.0934L6.27669 21.9435ZM7.75818 19.0557L9.6377 20.286C9.8292 19.9934 10.0335 19.6993 10.2492 19.3997L8.42615 18.0872L6.60312 16.7747C6.35947 17.1131 6.11557 17.4635 5.87867 17.8254L7.75818 19.0557ZM8.42615 18.0872L10.2665 19.3753C10.6098 18.8848 10.9785 18.4176 11.3724 17.9786L9.70041 16.4784L8.02839 14.9782C7.5073 15.559 7.02692 16.1688 6.58575 16.7991L8.42615 18.0872ZM9.70041 16.4784L11.4004 17.9468C11.9155 17.3504 12.5192 16.7882 13.1875 16.2398L11.7623 14.5034L10.3372 12.7669C9.5382 13.4227 8.73191 14.1631 8.00042 15.01L9.70041 16.4784ZM11.7623 14.5034L13.1088 16.3015C13.1816 16.247 13.2912 16.1806 13.4327 16.1144L12.4815 14.0794L11.5303 12.0443C11.1724 12.2116 10.785 12.4288 10.4158 12.7053L11.7623 14.5034ZM12.4815 14.0794L10.2352 14.0676C10.2354 14.0342 10.2363 14.0047 10.2374 13.9799C10.2385 13.9552 10.2398 13.9342 10.241 13.9181C10.2421 13.9022 10.2432 13.8893 10.2439 13.8818C10.2443 13.878 10.2445 13.8749 10.2447 13.8731C10.2449 13.8716 10.245 13.8702 10.2449 13.8707C10.2449 13.8708 10.2449 13.8712 10.2448 13.8718C10.2448 13.8724 10.2447 13.8733 10.2446 13.8745C10.2444 13.8767 10.2441 13.8802 10.2437 13.8844C10.2429 13.8928 10.2418 13.9064 10.2406 13.923C10.2394 13.9398 10.238 13.9614 10.237 13.9865C10.2359 14.0117 10.235 14.0415 10.2349 14.075L12.4812 14.0843L14.7276 14.0936C14.7274 14.1267 14.7266 14.1561 14.7255 14.1808C14.7244 14.2056 14.7231 14.2267 14.7219 14.2431C14.7208 14.2594 14.7196 14.2725 14.7189 14.2805C14.7186 14.2845 14.7183 14.2878 14.7181 14.2898C14.718 14.2908 14.7179 14.2917 14.7179 14.2922C14.7178 14.2924 14.7178 14.2926 14.7178 14.2928C14.7178 14.2928 14.7178 14.2929 14.7178 14.2929C14.7178 14.2929 14.7178 14.2929 14.7178 14.2929C14.7178 14.293 14.7178 14.293 14.7178 14.293C14.7178 14.2933 14.7179 14.2917 14.7181 14.2899C14.7183 14.2879 14.7186 14.2846 14.7189 14.2806C14.7196 14.2727 14.7208 14.2594 14.722 14.2431C14.7232 14.2266 14.7245 14.2051 14.7256 14.18C14.7268 14.1549 14.7277 14.1249 14.7279 14.0911L12.4815 14.0794ZM12.4812 14.0843L13.4346 16.1183C13.3513 16.1574 13.2762 16.1863 13.2144 16.2076C13.1833 16.2184 13.1546 16.2275 13.129 16.2352C13.1034 16.2429 13.0803 16.2493 13.0601 16.2547C13.04 16.2601 13.0221 16.2645 13.0073 16.2681C12.9925 16.2716 12.9798 16.2745 12.9701 16.2767C12.9604 16.2788 12.9526 16.2805 12.948 16.2815C12.9437 16.2824 12.9401 16.2831 12.9408 16.283C12.9408 16.283 12.9408 16.283 12.9408 16.2829C12.9409 16.2829 12.9409 16.2829 12.9409 16.2829C12.941 16.2829 12.9411 16.2829 12.9413 16.2829C12.9416 16.2828 12.9421 16.2827 12.9427 16.2826C12.944 16.2823 12.9459 16.2819 12.9484 16.2814C12.9532 16.2804 12.9611 16.2787 12.9709 16.2765C12.9807 16.2743 12.9935 16.2714 13.0085 16.2678C13.0235 16.2642 13.0415 16.2598 13.0617 16.2544C13.082 16.249 13.1053 16.2425 13.131 16.2348C13.1567 16.2271 13.1855 16.218 13.2168 16.2072C13.2788 16.1859 13.3542 16.1569 13.4378 16.1178L12.4867 14.0828L11.5355 12.0477C11.6188 12.0088 11.6937 11.98 11.7553 11.9588C11.7863 11.9481 11.8149 11.9391 11.8404 11.9314C11.8659 11.9238 11.8889 11.9174 11.909 11.9121C11.929 11.9067 11.9468 11.9023 11.9615 11.8988C11.9762 11.8953 11.9888 11.8924 11.9984 11.8903C12.008 11.8882 12.0157 11.8865 12.0202 11.8856C12.0243 11.8847 12.0279 11.8839 12.0271 11.8841C12.0271 11.8841 12.0268 11.8842 12.0265 11.8842C12.0262 11.8843 12.0256 11.8844 12.025 11.8846C12.0237 11.8848 12.0217 11.8852 12.0192 11.8858C12.0143 11.8868 12.0063 11.8885 11.9964 11.8907C11.9864 11.8929 11.9735 11.8959 11.9585 11.8995C11.9434 11.9031 11.9253 11.9076 11.9049 11.913C11.8845 11.9184 11.8611 11.925 11.8353 11.9327C11.8095 11.9405 11.7806 11.9497 11.7493 11.9605C11.6871 11.982 11.6116 12.0111 11.5278 12.0503L12.4812 14.0843ZM12.4867 14.0828L10.2403 14.0709C10.2378 14.5533 10.2871 15.7569 10.4635 17.0028C10.552 17.6282 10.6804 18.322 10.8711 18.9669C11.0434 19.5497 11.3416 20.3635 11.9094 21.0068L13.5936 19.5204L15.2779 18.0339C15.3776 18.1469 15.3029 18.1106 15.1794 17.6928C15.0742 17.3371 14.9836 16.8798 14.9119 16.3732C14.7677 15.3547 14.7316 14.3698 14.733 14.0946L12.4867 14.0828ZM13.5936 19.5204L15.3906 20.8682C16.5429 19.332 18.0557 18.0352 19.7864 17.0683L18.6907 15.1072L17.5951 13.1461C15.3521 14.3992 13.3495 16.102 11.7966 18.1725L13.5936 19.5204ZM18.6907 15.1072L16.4923 14.6458C16.4894 14.6597 16.487 14.6715 16.4854 14.6797C16.4838 14.6876 16.4825 14.6945 16.482 14.6969C16.4813 14.7007 16.4816 14.6992 16.4819 14.6975C16.4824 14.6951 16.4835 14.6892 16.4852 14.6812L18.6851 15.136L20.8849 15.5908C20.8875 15.578 20.8897 15.5673 20.8911 15.5602C20.8918 15.5565 20.8924 15.5534 20.8928 15.5512C20.8932 15.5491 20.8936 15.5469 20.8937 15.5463C20.8942 15.5439 20.8938 15.5459 20.8932 15.549C20.8925 15.5525 20.8911 15.5594 20.8892 15.5686L18.6907 15.1072ZM18.6851 15.136L19.7816 17.0966C19.7442 17.1174 19.7106 17.1348 19.682 17.149C19.6536 17.1631 19.6289 17.1745 19.6099 17.1831C19.591 17.1916 19.5757 17.1981 19.5666 17.202C19.5619 17.204 19.5581 17.2056 19.5559 17.2065C19.5539 17.2074 19.5522 17.2081 19.5526 17.2079C19.5526 17.2079 19.5527 17.2079 19.5529 17.2078C19.5531 17.2077 19.5534 17.2076 19.5537 17.2075C19.5544 17.2072 19.5554 17.2067 19.5567 17.2062C19.5591 17.2052 19.5632 17.2035 19.5681 17.2014C19.5778 17.1973 19.5936 17.1905 19.613 17.1818C19.6325 17.173 19.6576 17.1613 19.6866 17.147C19.7157 17.1326 19.7498 17.115 19.7876 17.0938L18.692 15.1328L17.5963 13.1717C17.6336 13.1509 17.6672 13.1336 17.6957 13.1195C17.7241 13.1054 17.7486 13.0941 17.7676 13.0855C17.7864 13.077 17.8016 13.0705 17.8107 13.0666C17.8153 13.0647 17.8191 13.0631 17.8212 13.0622C17.8232 13.0614 17.8249 13.0607 17.8244 13.0609C17.8244 13.0609 17.8239 13.0611 17.8233 13.0613C17.8226 13.0616 17.8215 13.0621 17.8203 13.0626C17.8177 13.0637 17.8137 13.0654 17.8087 13.0675C17.799 13.0716 17.7831 13.0785 17.7636 13.0872C17.744 13.0961 17.7188 13.1078 17.6898 13.1221C17.6606 13.1365 17.6264 13.1542 17.5886 13.1754L18.6851 15.136ZM18.692 15.1328L16.4935 14.6714C16.2905 15.6389 16.2105 16.6204 16.2479 17.593L18.4926 17.5068L20.7373 17.4206C20.7138 16.8093 20.7642 16.1957 20.8905 15.5941L18.692 15.1328ZM18.4926 17.5068L16.2481 17.5988C16.2986 18.8306 16.5376 20.0504 16.9575 21.2124L19.0702 20.4489L21.1828 19.6854C20.9191 18.9558 20.7688 18.189 20.7371 17.4148L18.4926 17.5068ZM19.0702 20.4489L17.8601 22.3415C17.8836 22.3566 17.9046 22.3694 17.9221 22.3798C17.9395 22.3903 17.9545 22.3989 17.9657 22.4053C17.9768 22.4116 17.9858 22.4167 17.9906 22.4193C17.993 22.4207 17.9951 22.4218 17.9959 22.4223C17.9971 22.423 17.9968 22.4228 17.9964 22.4226C17.9956 22.4222 17.9904 22.4193 17.9833 22.4152C17.9759 22.411 17.9647 22.4046 17.9511 22.3965C17.9244 22.3807 17.882 22.3547 17.8314 22.3197L19.1077 20.4711L20.384 18.6225C20.3274 18.5835 20.2789 18.5536 20.246 18.5341C20.2143 18.5153 20.1882 18.5008 20.1817 18.4971C20.1797 18.4961 20.1778 18.495 20.1775 18.4948C20.1767 18.4944 20.1772 18.4946 20.178 18.4951C20.1796 18.496 20.1854 18.4992 20.1933 18.5037C20.2085 18.5124 20.2403 18.5308 20.2802 18.5563L19.0702 20.4489ZM19.1077 20.4711L17.9334 22.3861C18.0807 22.4764 18.2307 22.5751 18.3489 22.6619L19.679 20.8517L21.0092 19.0415C20.759 18.8576 20.4971 18.688 20.282 18.5561L19.1077 20.4711ZM19.679 20.8517L21.1669 22.5346C22.4757 21.3775 24.1515 20.6236 25.9341 20.3903L25.6426 18.1629L25.3511 15.9355C22.7075 16.2815 20.1915 17.4002 18.1911 19.1687L19.679 20.8517ZM25.6426 18.1629L27.889 18.1581C27.8836 15.6799 29.2119 10.4241 33.7825 7.38967L32.54 5.51821L31.2975 3.64675C25.1051 7.75796 23.3888 14.6791 23.3962 18.1677L25.6426 18.1629ZM32.54 5.51821L30.2962 5.62578L30.2974 5.65138L32.5412 5.54381L34.785 5.43624L34.7838 5.41064L32.54 5.51821ZM32.5412 5.54381L32.6812 7.78581C32.6962 7.78488 32.712 7.78379 32.7287 7.78249C32.7453 7.7812 32.7639 7.7796 32.784 7.7776C32.7942 7.77658 32.8047 7.77547 32.8156 7.77424C32.8267 7.77299 32.8371 7.77174 32.8468 7.77052C32.8514 7.76993 32.8553 7.76943 32.8579 7.76909C32.8591 7.76893 32.8601 7.76881 32.8602 7.76879C32.8607 7.76872 32.8596 7.76887 32.8584 7.76903C32.8571 7.76919 32.8539 7.76962 32.8497 7.77014C32.8457 7.77066 32.8385 7.77156 32.8294 7.77263C32.8207 7.77365 32.8062 7.77531 32.7883 7.77709C32.779 7.778 32.7676 7.77907 32.7546 7.78017C32.7416 7.78125 32.7256 7.78249 32.7071 7.78364L32.567 5.54164L32.427 3.29964C32.4085 3.3008 32.3924 3.30203 32.3794 3.30312C32.3664 3.30422 32.3549 3.30529 32.3457 3.30621C32.3276 3.30799 32.3131 3.30965 32.3043 3.31069C32.2952 3.31176 32.2879 3.31268 32.2838 3.3132C32.2795 3.31374 32.2762 3.31418 32.2748 3.31436C32.2735 3.31453 32.2722 3.3147 32.2726 3.31464C32.2726 3.31464 32.2734 3.31454 32.2745 3.3144C32.2768 3.3141 32.2803 3.31364 32.2846 3.3131C32.2934 3.31199 32.3027 3.31087 32.3126 3.30976C32.3222 3.30868 32.3311 3.30773 32.3395 3.30691C32.3558 3.30528 32.3694 3.30413 32.3793 3.30336C32.3892 3.30259 32.3967 3.30209 32.4011 3.30181L32.5412 5.54381ZM32.567 5.54164L33.0174 7.7424L33.0195 7.74196L32.5692 5.5412L32.1188 3.34044L32.1167 3.34088L32.567 5.54164ZM32.5692 5.5412L33.6924 7.48661L33.6948 7.48523L32.5716 5.53982L31.4484 3.59441L31.446 3.59579L32.5692 5.5412ZM32.5716 5.53982L32.7116 7.78182C32.719 7.78136 32.6995 7.7827 32.6696 7.78371C32.6603 7.78402 32.6126 7.78572 32.551 7.78447C32.5283 7.784 32.444 7.78232 32.3369 7.76982C32.2906 7.76442 32.1641 7.74881 32.0072 7.70611C31.9296 7.68497 31.7835 7.64112 31.6119 7.55734C31.523 7.51395 31.4022 7.44782 31.27 7.351C31.2026 7.3016 31.1269 7.24041 31.0484 7.16567C31.0089 7.12809 30.968 7.08643 30.9267 7.04044C30.9057 7.01679 30.8746 6.98039 30.8642 6.96786C30.8323 6.92826 30.8012 6.88796 32.5972 5.53859C34.3931 4.18923 34.3621 4.14893 34.3302 4.10933C34.3198 4.0968 34.2887 4.0604 34.2677 4.03675C34.2264 3.99076 34.1855 3.9491 34.146 3.91151C34.0675 3.83678 33.9918 3.77559 33.9243 3.72619C33.7921 3.62937 33.6714 3.56324 33.5825 3.51985C33.4108 3.43607 33.2648 3.39221 33.1871 3.37107C33.0302 3.32837 32.9037 3.31275 32.8574 3.30734C32.7501 3.29483 32.6656 3.29313 32.6425 3.29266C32.5801 3.29139 32.5307 3.2931 32.5182 3.29352C32.4818 3.29475 32.4495 3.29671 32.4315 3.29782L32.5716 5.53982ZM32.5972 5.53859L32.7372 7.78059C32.7464 7.78002 32.7544 7.7795 32.7619 7.779C32.7694 7.7785 32.7754 7.77808 32.7787 7.77786C32.7819 7.77763 32.7824 7.7776 32.783 7.77756C32.7835 7.77753 32.7851 7.77742 32.7887 7.77719L32.6486 5.5352L32.5086 3.2932C32.4994 3.29377 32.4914 3.29429 32.4838 3.29479C32.4764 3.29529 32.4703 3.29571 32.4671 3.29594C32.4638 3.29617 32.4633 3.2962 32.4627 3.29624C32.4623 3.29627 32.4607 3.29638 32.4571 3.2966L32.5972 5.53859ZM4.83142 29.2541L2.58696 29.1616C2.58182 29.2864 2.58266 29.4658 2.58264 29.4682L4.82894 29.486L7.07524 29.5038C7.07546 29.4758 7.0755 29.4496 7.07551 29.4293C7.07553 29.4067 7.07552 29.3928 7.07558 29.378C7.07569 29.3494 7.07601 29.3434 7.07588 29.3466L4.83142 29.2541ZM4.82894 29.486L7.07459 29.5428C7.07808 29.4047 7.07955 29.3176 7.08334 29.2201L4.83867 29.1327L2.594 29.0453C2.58862 29.1836 2.58575 29.3321 2.58329 29.4292L4.82894 29.486ZM4.83867 29.1327L2.59586 29.0065C2.59547 29.0133 2.59529 29.0154 2.59322 29.047C2.59167 29.0708 2.58895 29.1132 2.58696 29.1616L4.83142 29.2541L7.07588 29.3466C7.07556 29.3544 7.07533 29.3562 7.07642 29.3396C7.07667 29.3358 7.07693 29.3318 7.07729 29.3264C7.07762 29.3214 7.07804 29.3151 7.07846 29.3086C7.07931 29.2955 7.0804 29.2782 7.08149 29.259L4.83867 29.1327Z" fill="white" mask="url(#path-1-outside-1_5506_14173)"/>
<path d="M47.4924 21.1865C46.5174 18.8899 44.5673 16.4167 43.002 15.6343C44.1054 17.729 44.8752 19.9751 45.2601 22.2969V22.3222C42.7454 16.139 38.4603 13.6406 34.9707 8.21453C34.7911 7.93692 34.6114 7.65931 34.4575 7.3817C34.3548 7.20504 34.2779 7.05362 34.2009 6.92743C34.0469 6.64982 33.9443 6.34697 33.8673 6.06936C33.8673 6.04413 33.8417 6.01889 33.816 6.01889C33.7903 6.01889 33.7903 6.01889 33.7647 6.01889C33.7647 6.01889 33.7647 6.01889 33.739 6.01889V5.99365C28.1453 9.22403 26.2465 15.2053 26.0669 18.1833C23.8345 18.3347 21.6791 19.1423 19.9343 20.5051C19.7547 20.3537 19.5494 20.2022 19.3698 20.0761C18.8566 18.3347 18.831 16.4671 19.3185 14.7005C17.2657 15.6848 15.4183 17.0728 13.9557 18.789C13.0833 17.6785 13.1346 14.0443 13.1859 13.2872C12.9293 13.3882 12.6727 13.5144 12.4418 13.6658C11.672 14.221 10.9279 14.8267 10.2607 15.5081C9.49097 16.2652 8.79817 17.0981 8.18234 17.9814C6.6941 20.0004 5.66773 22.2717 5.12889 24.644L5.10323 24.7954C5.05191 24.9973 4.89795 25.9564 4.87229 26.1583C4.87229 26.1835 4.87229 26.1835 4.87229 26.2087C4.66702 27.2182 4.56438 28.2277 4.51306 29.2372V29.3382C4.51306 41.4773 14.5202 51.2946 26.8623 51.2694C37.7162 51.2694 47.0049 43.572 48.8524 33.048C48.878 32.7704 48.9293 32.4928 48.955 32.19C49.3912 28.4801 48.9037 24.6945 47.4924 21.1865ZM21.7561 38.3731C21.8588 38.4236 21.9614 38.474 22.064 38.5245H22.0897C21.9871 38.4993 21.8588 38.4236 21.7561 38.3731Z" fill="url(#paint0_linear_5506_14173)"/>
<path d="M47.4982 21.1919C46.5231 18.8953 44.573 16.422 43.0078 15.6396C44.1111 17.7343 44.8809 19.9805 45.2658 22.3023V22.3275V22.3528C46.985 27.1983 46.7284 32.4982 44.573 37.1671C42.0071 42.5678 35.8232 48.0948 26.124 47.8424C15.655 47.5396 6.41761 39.9179 4.69844 29.8987C4.39053 28.3088 4.69844 27.5264 4.85239 26.2393C4.64712 27.2236 4.51882 28.2583 4.49316 29.2678V29.3687C4.49316 41.5079 14.5003 51.3252 26.8424 51.2999C37.6963 51.2999 46.985 43.6026 48.8324 33.0786C48.8581 32.801 48.9094 32.5234 48.9351 32.2205C49.397 28.4854 48.9094 24.6998 47.4982 21.1919Z" fill="url(#paint1_radial_5506_14173)"/>
<path d="M47.4982 21.1919C46.5231 18.8953 44.573 16.422 43.0078 15.6396C44.1111 17.7343 44.8809 19.9805 45.2658 22.3023V22.3275V22.3528C46.985 27.1983 46.7284 32.4982 44.573 37.1671C42.0071 42.5678 35.8232 48.0948 26.124 47.8424C15.655 47.5396 6.41761 39.9179 4.69844 29.8987C4.39053 28.3088 4.69844 27.5264 4.85239 26.2393C4.64712 27.2236 4.51882 28.2583 4.49316 29.2678V29.3687C4.49316 41.5079 14.5003 51.3252 26.8424 51.2999C37.6963 51.2999 46.985 43.6026 48.8324 33.0786C48.8581 32.801 48.9094 32.5234 48.9351 32.2205C49.397 28.4854 48.9094 24.6998 47.4982 21.1919Z" fill="url(#paint2_radial_5506_14173)"/>
<path d="M36.6455 23.7916C36.6968 23.8169 36.7481 23.8673 36.7738 23.8926C36.2093 22.9083 35.5165 22.025 34.6954 21.2427C27.7674 14.4286 32.8736 6.4536 33.746 6.0498C28.1523 9.2297 26.2535 15.2109 26.0739 18.1889C26.3304 18.1637 26.587 18.1385 26.8693 18.1385C30.9235 18.1637 34.6441 20.3089 36.6455 23.7916Z" fill="url(#paint3_radial_5506_14173)"/>
<path d="M26.8928 25.1528C26.8672 25.7081 24.8914 27.5756 24.1986 27.5756C17.8607 27.5756 16.8087 31.3612 16.8087 31.3612C17.091 34.5411 19.349 37.1658 22.0689 38.5538C22.1972 38.6296 22.3255 38.68 22.4538 38.7305C22.6847 38.8315 22.89 38.9072 23.1209 38.9829C24.0446 39.311 25.0454 39.4876 26.0204 39.5381C37.1566 40.0428 39.3119 26.4399 31.2806 22.5029C33.1794 22.2506 35.1038 22.7301 36.669 23.79C34.6676 20.3325 30.947 18.1873 26.8928 18.1621C26.6362 18.1621 26.3796 18.1873 26.0974 18.2126C23.865 18.364 21.7096 19.1716 19.9648 20.5344C20.2984 20.812 20.6833 21.1906 21.5044 21.9729C22.9926 23.4367 26.8672 24.9509 26.8928 25.1528Z" fill="url(#paint4_radial_5506_14173)"/>
<path d="M26.8928 25.1528C26.8672 25.7081 24.8914 27.5756 24.1986 27.5756C17.8607 27.5756 16.8087 31.3612 16.8087 31.3612C17.091 34.5411 19.349 37.1658 22.0689 38.5538C22.1972 38.6296 22.3255 38.68 22.4538 38.7305C22.6847 38.8315 22.89 38.9072 23.1209 38.9829C24.0446 39.311 25.0454 39.4876 26.0204 39.5381C37.1566 40.0428 39.3119 26.4399 31.2806 22.5029C33.1794 22.2506 35.1038 22.7301 36.669 23.79C34.6676 20.3325 30.947 18.1873 26.8928 18.1621C26.6362 18.1621 26.3796 18.1873 26.0974 18.2126C23.865 18.364 21.7096 19.1716 19.9648 20.5344C20.2984 20.812 20.6833 21.1906 21.5044 21.9729C22.9926 23.4367 26.8672 24.9509 26.8928 25.1528Z" fill="url(#paint5_radial_5506_14173)"/>
<path d="M18.8806 19.8081C19.0602 19.909 19.2142 20.0099 19.3425 20.1109C18.8293 18.3695 18.8036 16.502 19.2911 14.7354C17.2384 15.7196 15.3909 17.1077 13.9283 18.8238C14.031 18.8238 17.2641 18.7733 18.8806 19.8081Z" fill="url(#paint6_radial_5506_14173)"/>
<path d="M4.72101 29.8675C6.44018 39.8867 15.6775 47.5336 26.1465 47.8112C35.8458 48.0889 42.0297 42.5366 44.5956 37.1359C46.751 32.467 47.0076 27.1671 45.2884 22.3216V22.2963C45.2884 22.2711 45.2884 22.2711 45.2884 22.2711V22.2963C46.0838 27.3943 43.4409 32.3155 39.3354 35.6469V35.6721C31.3297 42.0824 23.6576 39.5334 22.118 38.4987C22.0154 38.4482 21.9128 38.3977 21.7845 38.3473C17.1145 36.1516 15.19 31.9622 15.6006 28.3785C13.3425 28.4038 11.2641 27.1167 10.3147 25.0977C12.8037 23.5834 15.9085 23.4825 18.5257 24.7696C21.1686 25.9557 24.1708 26.0567 26.9163 25.0977C26.9163 24.921 23.0161 23.4068 21.5022 21.943C20.6811 21.1607 20.2962 20.7821 19.9626 20.5045C19.783 20.3531 19.5778 20.2016 19.3981 20.0755C19.2698 19.9745 19.1159 19.8988 18.9363 19.7726C17.3197 18.7379 14.061 18.7884 13.9584 18.7884C13.0859 17.6779 13.1373 14.0437 13.1886 13.2866C12.932 13.3876 12.6754 13.5138 12.4445 13.6652C11.6747 14.2204 10.9306 14.8261 10.2634 15.5075C9.49364 16.2646 8.80084 17.0975 8.15936 17.9555C6.69678 19.9997 5.6704 22.2711 5.13156 24.6434C5.13156 24.6939 4.33612 28.1009 4.72101 29.8675Z" fill="url(#paint7_radial_5506_14173)"/>
<path d="M34.714 21.207C35.5351 21.9894 36.228 22.8979 36.7925 23.8822C36.9208 23.9831 37.0234 24.0588 37.126 24.1598C42.1809 28.753 39.538 35.239 39.3327 35.6932C43.4382 32.3619 46.0811 27.4406 45.2857 22.3427C42.7711 16.1596 38.486 13.6611 34.9963 8.20981C34.8167 7.9322 34.6371 7.65459 34.4831 7.37697C34.3805 7.20031 34.3035 7.04889 34.2265 6.9227C34.0726 6.64509 33.9699 6.34225 33.893 6.06463C33.893 6.0394 33.8673 6.01416 33.8416 6.01416C33.816 6.01416 33.816 6.01416 33.7903 6.01416C33.7903 6.01416 33.7903 6.01416 33.7647 6.01416C32.8922 6.41796 27.7604 14.3929 34.714 21.207Z" fill="url(#paint8_radial_5506_14173)"/>
<path d="M37.1256 24.1375C37.023 24.0618 36.9203 23.9608 36.792 23.8599C36.7407 23.8346 36.6894 23.7842 36.6637 23.7589C35.0985 22.699 33.1741 22.2195 31.2753 22.4718C39.3067 26.4088 37.1513 40.0118 26.0151 39.507C25.0144 39.4565 24.0394 39.2799 23.1156 38.9518C22.8847 38.8761 22.6794 38.7751 22.4485 38.6994C22.3202 38.6489 22.1919 38.5985 22.0636 38.5228H22.0893C23.6288 39.5575 31.301 42.1064 39.3067 35.6962V35.6709C39.5376 35.2167 42.1805 28.7307 37.1256 24.1375Z" fill="url(#paint9_radial_5506_14173)"/>
<path d="M16.8128 31.3167C16.8128 31.3167 17.8391 27.5311 24.2026 27.5311C24.8954 27.5311 26.8455 25.6383 26.8969 25.1083C24.177 26.0925 21.1492 25.9664 18.5063 24.7802C15.889 23.4679 12.7842 23.5941 10.2953 25.1083C11.2447 27.1273 13.3231 28.4144 15.5811 28.3891C15.1706 31.9728 17.095 36.1622 21.765 38.3579C21.8676 38.4083 21.9703 38.4588 22.0729 38.5093C19.353 37.1212 17.095 34.4966 16.8128 31.3167Z" fill="url(#paint10_radial_5506_14173)"/>
<defs>
<linearGradient id="paint0_linear_5506_14173" x1="44.535" y1="13.0095" x2="8.06776" y2="48.7819" gradientUnits="userSpaceOnUse">
<stop offset="0.048" stop-color="#FFF44F"/>
<stop offset="0.111" stop-color="#FFE847"/>
<stop offset="0.225" stop-color="#FFC830"/>
<stop offset="0.368" stop-color="#FF980E"/>
<stop offset="0.401" stop-color="#FF8B16"/>
<stop offset="0.462" stop-color="#FF672A"/>
<stop offset="0.534" stop-color="#FF3647"/>
<stop offset="0.705" stop-color="#E31587"/>
</linearGradient>
<radialGradient id="paint1_radial_5506_14173" cx="0" cy="0" r="1" gradientUnits="userSpaceOnUse" gradientTransform="translate(42.8313 11.027) scale(46.5402 45.7747)">
<stop offset="0.129" stop-color="#FFBD4F"/>
<stop offset="0.186" stop-color="#FFAC31"/>
<stop offset="0.247" stop-color="#FF9D17"/>
<stop offset="0.283" stop-color="#FF980E"/>
<stop offset="0.403" stop-color="#FF563B"/>
<stop offset="0.467" stop-color="#FF3750"/>
<stop offset="0.71" stop-color="#F5156C"/>
<stop offset="0.782" stop-color="#EB0878"/>
<stop offset="0.86" stop-color="#E50080"/>
</radialGradient>
<radialGradient id="paint2_radial_5506_14173" cx="0" cy="0" r="1" gradientUnits="userSpaceOnUse" gradientTransform="translate(25.8251 29.741) scale(46.5402 45.7747)">
<stop offset="0.3" stop-color="#960E18"/>
<stop offset="0.351" stop-color="#B11927" stop-opacity="0.74"/>
<stop offset="0.435" stop-color="#DB293D" stop-opacity="0.343"/>
<stop offset="0.497" stop-color="#F5334B" stop-opacity="0.094"/>
<stop offset="0.53" stop-color="#FF3750" stop-opacity="0"/>
</radialGradient>
<radialGradient id="paint3_radial_5506_14173" cx="0" cy="0" r="1" gradientUnits="userSpaceOnUse" gradientTransform="translate(31.4374 0.639382) scale(33.7151 33.1606)">
<stop offset="0.132" stop-color="#FFF44F"/>
<stop offset="0.252" stop-color="#FFDC3E"/>
<stop offset="0.506" stop-color="#FF9D12"/>
<stop offset="0.526" stop-color="#FF980E"/>
</radialGradient>
<radialGradient id="paint4_radial_5506_14173" cx="0" cy="0" r="1" gradientUnits="userSpaceOnUse" gradientTransform="translate(20.6763 41.6964) scale(22.1598 21.7954)">
<stop offset="0.353" stop-color="#3A8EE6"/>
<stop offset="0.472" stop-color="#5C79F0"/>
<stop offset="0.669" stop-color="#9059FF"/>
<stop offset="1" stop-color="#C139E6"/>
</radialGradient>
<radialGradient id="paint5_radial_5506_14173" cx="0" cy="0" r="1" gradientTransform="matrix(11.42 -2.71559 -3.23096 -13.1504 28.3672 25.9882)" gradientUnits="userSpaceOnUse">
<stop offset="0.206" stop-color="#9059FF" stop-opacity="0"/>
<stop offset="0.278" stop-color="#8C4FF3" stop-opacity="0.064"/>
<stop offset="0.747" stop-color="#7716A8" stop-opacity="0.45"/>
<stop offset="0.975" stop-color="#6E008B" stop-opacity="0.6"/>
</radialGradient>
<radialGradient id="paint6_radial_5506_14173" cx="0" cy="0" r="1" gradientUnits="userSpaceOnUse" gradientTransform="translate(25.23 9.15841) scale(15.9417 15.6796)">
<stop stop-color="#FFE226"/>
<stop offset="0.121" stop-color="#FFDB27"/>
<stop offset="0.295" stop-color="#FFC82A"/>
<stop offset="0.502" stop-color="#FFA930"/>
<stop offset="0.732" stop-color="#FF7E37"/>
<stop offset="0.792" stop-color="#FF7139"/>
</radialGradient>
<radialGradient id="paint7_radial_5506_14173" cx="0" cy="0" r="1" gradientUnits="userSpaceOnUse" gradientTransform="translate(37.765 -0.797103) scale(68.0163 66.8976)">
<stop offset="0.113" stop-color="#FFF44F"/>
<stop offset="0.456" stop-color="#FF980E"/>
<stop offset="0.622" stop-color="#FF5634"/>
<stop offset="0.716" stop-color="#FF3647"/>
<stop offset="0.904" stop-color="#E31587"/>
</radialGradient>
<radialGradient id="paint8_radial_5506_14173" cx="0" cy="0" r="1" gradientTransform="matrix(5.23158 48.7601 32.5355 -3.38136 32.0297 2.91875)" gradientUnits="userSpaceOnUse">
<stop stop-color="#FFF44F"/>
<stop offset="0.06" stop-color="#FFE847"/>
<stop offset="0.168" stop-color="#FFC830"/>
<stop offset="0.304" stop-color="#FF980E"/>
<stop offset="0.356" stop-color="#FF8B16"/>
<stop offset="0.455" stop-color="#FF672A"/>
<stop offset="0.57" stop-color="#FF3647"/>
<stop offset="0.737" stop-color="#E31587"/>
</radialGradient>
<radialGradient id="paint9_radial_5506_14173" cx="0" cy="0" r="1" gradientUnits="userSpaceOnUse" gradientTransform="translate(24.8558 14.9548) scale(42.4637 41.7653)">
<stop offset="0.137" stop-color="#FFF44F"/>
<stop offset="0.48" stop-color="#FF980E"/>
<stop offset="0.592" stop-color="#FF5634"/>
<stop offset="0.655" stop-color="#FF3647"/>
<stop offset="0.904" stop-color="#E31587"/>
</radialGradient>
<radialGradient id="paint10_radial_5506_14173" cx="0" cy="0" r="1" gradientUnits="userSpaceOnUse" gradientTransform="translate(36.0744 17.3855) scale(46.4762 45.7118)">
<stop offset="0.094" stop-color="#FFF44F"/>
<stop offset="0.231" stop-color="#FFE141"/>
<stop offset="0.509" stop-color="#FFAF1E"/>
<stop offset="0.626" stop-color="#FF980E"/>
</radialGradient>
</defs>
</svg>
