<svg width="1441" height="1024" viewBox="0 0 1441 1024" fill="none" xmlns="http://www.w3.org/2000/svg">
<path d="M2492.61 509.149L-1106.24 509.148" stroke="#525259" stroke-width="1.82713" stroke-miterlimit="10"/>
<path d="M2492.61 525.715L-1106.24 525.715" stroke="#525259" stroke-width="1.82713" stroke-miterlimit="10"/>
<path d="M2492.61 544.821L-1106.24 544.82" stroke="#525259" stroke-width="1.82713" stroke-miterlimit="10"/>
<path d="M2492.61 567.055L-1106.24 567.055" stroke="#525259" stroke-width="1.82713" stroke-miterlimit="10"/>
<path d="M2492.61 592.917L-1106.24 592.916" stroke="#525259" stroke-width="1.82713" stroke-miterlimit="10"/>
<path d="M2492.61 623.432L-1106.24 623.432" stroke="#525259" stroke-width="1.82713" stroke-miterlimit="10"/>
<path d="M2492.61 659.934L-1106.24 659.934" stroke="#525259" stroke-width="1.82713" stroke-miterlimit="10"/>
<path d="M2492.61 704.405L-1106.24 704.404" stroke="#525259" stroke-width="1.82713" stroke-miterlimit="10"/>
<path d="M2492.61 759.749L-1106.24 759.748" stroke="#525259" stroke-width="1.82713" stroke-miterlimit="10"/>
<path d="M2492.61 830.446L-1106.24 830.445" stroke="#525259" stroke-width="1.82713" stroke-miterlimit="10"/>
<path d="M2492.61 924.095L-1106.24 924.094" stroke="#525259" stroke-width="1.82713" stroke-miterlimit="10"/>
<path d="M360.726 509.148L-892.35 1398.6" stroke="#525259" stroke-width="1.82713" stroke-miterlimit="10"/>
<path d="M405.8 509.148L-726.018 1427.21" stroke="#525259" stroke-width="1.82713" stroke-miterlimit="10"/>
<path d="M450.869 509.148L-568.762 1474.06" stroke="#525259" stroke-width="1.82713" stroke-miterlimit="10"/>
<path d="M495.943 508.92L-353.75 1474.05" stroke="#525259" stroke-width="1.82713" stroke-miterlimit="10"/>
<path d="M541.018 509.145L-165.502 1512.05" stroke="#525259" stroke-width="1.82713" stroke-miterlimit="10"/>
<path d="M586.094 508.92L71.2771 1483.52" stroke="#525259" stroke-width="1.82713" stroke-miterlimit="10"/>
<path d="M631.154 508.92L277.893 1512.05" stroke="#525259" stroke-width="1.82713" stroke-miterlimit="10"/>
<path d="M676.242 509.148L482.004 1612.03" stroke="#525259" stroke-width="1.82713" stroke-miterlimit="10"/>
<path d="M721.308 509.148L721.308 1632.01" stroke="#525259" stroke-width="1.82713" stroke-miterlimit="10"/>
<path d="M766.378 509.148L952.204 1564.27" stroke="#525259" stroke-width="1.82713" stroke-miterlimit="10"/>
<path d="M811.464 509.148L1188.15 1578.57" stroke="#525259" stroke-width="1.82713" stroke-miterlimit="10"/>
<path d="M856.533 509.148L1417.83 1571.49" stroke="#525259" stroke-width="1.82713" stroke-miterlimit="10"/>
<path d="M901.603 509.148L1608.6 1512.74" stroke="#525259" stroke-width="1.82713" stroke-miterlimit="10"/>
<path d="M946.689 509.148L1804.72 1483.52" stroke="#525259" stroke-width="1.82713" stroke-miterlimit="10"/>
<path d="M991.756 509.148L1961.88 1427.21" stroke="#525259" stroke-width="1.82713" stroke-miterlimit="10"/>
<path d="M1036.82 509.148L2168.64 1427.21" stroke="#525259" stroke-width="1.82713" stroke-miterlimit="10"/>
<path d="M1081.91 509.148L2345.31 1405.94" stroke="#525259" stroke-width="1.82713" stroke-miterlimit="10"/>
<path d="M1126.98 509.145L2293.99 1245.25" stroke="#525259" stroke-width="1.82713" stroke-miterlimit="10"/>
<path d="M1172.05 509.145L2468.7 1245.25" stroke="#525259" stroke-width="1.82713" stroke-miterlimit="10"/>
<path d="M1217.12 509.145L2643.41 1245.25" stroke="#525259" stroke-width="1.82713" stroke-miterlimit="10"/>
<path d="M1262.19 509.148L2818.12 1245.25" stroke="#525259" stroke-width="1.82713" stroke-miterlimit="10"/>
<path d="M1307.27 509.148L2992.85 1245.25" stroke="#525259" stroke-width="1.82713" stroke-miterlimit="10"/>
<path d="M1352.34 509.145L3167.56 1245.25" stroke="#525259" stroke-width="1.82713" stroke-miterlimit="10"/>
<path d="M1397.41 509.145L3342.27 1245.25" stroke="#525259" stroke-width="1.82713" stroke-miterlimit="10"/>
<path d="M315.648 509.145L-851.838 1245.25" stroke="#525259" stroke-width="1.82713" stroke-miterlimit="10"/>
<path d="M270.567 509.145L-1026.56 1245.25" stroke="#525259" stroke-width="1.82713" stroke-miterlimit="10"/>
<path d="M225.5 509.145L-1201.27 1245.25" stroke="#525259" stroke-width="1.82713" stroke-miterlimit="10"/>
<path d="M180.431 509.145L-1375.98 1245.25" stroke="#525259" stroke-width="1.82713" stroke-miterlimit="10"/>
<path d="M135.362 509.145L-1550.69 1245.25" stroke="#525259" stroke-width="1.82713" stroke-miterlimit="10"/>
<path d="M90.2813 509.145L-1725.54 1245.25" stroke="#525259" stroke-width="1.82713" stroke-miterlimit="10"/>
<path d="M45.1984 509.148L-1897.55 1245.25" stroke="#525259" stroke-width="1.82713" stroke-miterlimit="10"/>
<path d="M0.119419 509.148L-2073.87 1245.25" stroke="#525259" stroke-width="1.82713" stroke-miterlimit="10"/>
<path d="M405.792 -165.504L405.791 509.143" stroke="#525259" stroke-width="1.82713" stroke-miterlimit="10"/>
<path d="M450.877 -165.504L450.877 509.143" stroke="#525259" stroke-width="1.82713" stroke-miterlimit="10"/>
<path d="M495.947 -165.504L495.947 509.142" stroke="#525259" stroke-width="1.82713" stroke-miterlimit="10"/>
<path d="M541.016 -165.504L541.016 509.144" stroke="#525259" stroke-width="1.82713" stroke-miterlimit="10"/>
<path d="M586.099 -165.504L586.099 509.142" stroke="#525259" stroke-width="1.82713" stroke-miterlimit="10"/>
<path d="M631.155 -165.037L631.155 509.143" stroke="#525259" stroke-width="1.82713" stroke-miterlimit="10"/>
<path d="M676.238 -165.504L676.238 509.143" stroke="#525259" stroke-width="1.82713" stroke-miterlimit="10"/>
<path d="M721.308 -165.504L721.308 509.144" stroke="#525259" stroke-width="1.82713" stroke-miterlimit="10"/>
<path d="M766.378 -165.504L766.378 509.142" stroke="#525259" stroke-width="1.82713" stroke-miterlimit="10"/>
<path d="M811.464 -165.504L811.464 509.144" stroke="#525259" stroke-width="1.82713" stroke-miterlimit="10"/>
<path d="M856.533 -165.504L856.533 509.142" stroke="#525259" stroke-width="1.82713" stroke-miterlimit="10"/>
<path d="M901.603 -165.504L901.603 509.144" stroke="#525259" stroke-width="1.82713" stroke-miterlimit="10"/>
<path d="M946.689 -165.504L946.689 509.144" stroke="#525259" stroke-width="1.82713" stroke-miterlimit="10"/>
<path d="M991.756 -165.504L991.756 509.146" stroke="#525259" stroke-width="1.82713" stroke-miterlimit="10"/>
<path d="M1036.82 -165.504V509.146" stroke="#525259" stroke-width="1.82713" stroke-miterlimit="10"/>
<path d="M1081.92 -162.709V509.147" stroke="#525259" stroke-width="1.82713" stroke-miterlimit="10"/>
<path d="M1126.98 -162.709V509.146" stroke="#525259" stroke-width="1.82713" stroke-miterlimit="10"/>
<path d="M1172.05 -162.709V509.147" stroke="#525259" stroke-width="1.82713" stroke-miterlimit="10"/>
<path d="M1217.12 -162.709V509.146" stroke="#525259" stroke-width="1.82713" stroke-miterlimit="10"/>
<path d="M1262.19 -162.246V509.145" stroke="#525259" stroke-width="1.82713" stroke-miterlimit="10"/>
<path d="M1307.27 -162.709V509.147" stroke="#525259" stroke-width="1.82713" stroke-miterlimit="10"/>
<path d="M1352.34 -162.709V509.147" stroke="#525259" stroke-width="1.82713" stroke-miterlimit="10"/>
<path d="M1397.41 -162.709V509.146" stroke="#525259" stroke-width="1.82713" stroke-miterlimit="10"/>
<path d="M0.113037 -162.246L0.113037 509.145" stroke="#525259" stroke-width="1.82713" stroke-miterlimit="10"/>
<path d="M45.2029 -162.709L45.2029 509.147" stroke="#525259" stroke-width="1.82713" stroke-miterlimit="10"/>
<path d="M90.2869 -162.709L90.2869 509.147" stroke="#525259" stroke-width="1.82713" stroke-miterlimit="10"/>
<path d="M135.34 -162.709L135.34 509.146" stroke="#525259" stroke-width="1.82713" stroke-miterlimit="10"/>
<path d="M180.426 -162.709L180.426 509.147" stroke="#525259" stroke-width="1.82713" stroke-miterlimit="10"/>
<path d="M225.496 -162.709L225.496 509.146" stroke="#525259" stroke-width="1.82713" stroke-miterlimit="10"/>
<path d="M270.562 -162.709L270.562 509.147" stroke="#525259" stroke-width="1.82713" stroke-miterlimit="10"/>
<path d="M315.652 -162.709L315.652 509.147" stroke="#525259" stroke-width="1.82713" stroke-miterlimit="10"/>
<path d="M360.721 -162.709L360.721 509.15" stroke="#525259" stroke-width="1.82713" stroke-miterlimit="10"/>
<path d="M-214.078 52.3418L1647.53 52.3418" stroke="#525259" stroke-width="1.82713" stroke-miterlimit="10"/>
<path d="M-214.078 109.398L1647.53 109.398" stroke="#525259" stroke-width="1.82713" stroke-miterlimit="10"/>
<path d="M-214.078 166.416L1647.98 166.416" stroke="#525259" stroke-width="1.82713" stroke-miterlimit="10"/>
<path d="M-212.121 223.447L1647.97 223.447" stroke="#525259" stroke-width="1.82713" stroke-miterlimit="10"/>
<path d="M-213.899 280.475L1647.98 280.475" stroke="#525259" stroke-width="1.82713" stroke-miterlimit="10"/>
<path d="M-214.078 337.504L1647.53 337.504" stroke="#525259" stroke-width="1.82713" stroke-miterlimit="10"/>
<path d="M-213.899 394.506L1647.53 394.506" stroke="#525259" stroke-width="1.82713" stroke-miterlimit="10"/>
<path d="M-214.078 451.557L1647.98 451.557" stroke="#525259" stroke-width="1.82713" stroke-miterlimit="10"/>
</svg>
