<svg width="32" height="33" viewBox="0 0 32 33" fill="none" xmlns="http://www.w3.org/2000/svg">
<path d="M16 0.652344C24.8366 0.652344 32 7.81579 32 16.6523C32 25.4889 24.8366 32.6523 16 32.6523C7.16344 32.6523 0 25.4889 0 16.6523C2.57703e-07 7.81579 7.16344 0.652344 16 0.652344ZM15.999 8.11914C13.6833 8.11915 13.3922 8.12949 12.4824 8.1709C11.574 8.2125 10.9537 8.35636 10.4111 8.56738C9.84996 8.78532 9.37367 9.07638 8.89941 9.55078C8.42474 10.0251 8.13273 10.5014 7.91406 11.0625C7.70253 11.6052 7.55846 12.2258 7.51758 13.1338C7.47687 14.0439 7.4668 14.335 7.4668 16.6523C7.4668 18.9697 7.47732 19.2599 7.51855 20.1699C7.56033 21.0784 7.70419 21.6986 7.91504 22.2412C8.13314 22.8024 8.42409 23.2787 8.89844 23.7529C9.37258 24.2276 9.84926 24.5203 10.4102 24.7383C10.953 24.9492 11.5733 25.0932 12.4814 25.1348C13.3917 25.1762 13.6826 25.1855 16 25.1855C18.3174 25.1855 18.6074 25.1762 19.5176 25.1348C20.426 25.0932 21.0469 24.9493 21.5898 24.7383C22.1509 24.5203 22.6264 24.2276 23.1006 23.7529C23.5752 23.2786 23.8663 22.8022 24.085 22.2412C24.2947 21.6985 24.4388 21.078 24.4814 20.1699C24.5223 19.26 24.5332 18.9695 24.5332 16.6523C24.5332 14.3349 24.5223 14.044 24.4814 13.1338C24.4388 12.2254 24.2947 11.6051 24.085 11.0625C23.8663 10.5014 23.5752 10.025 23.1006 9.55078C22.6259 9.07613 22.1506 8.78516 21.5889 8.56738C21.045 8.35643 20.4248 8.21251 19.5166 8.1709C18.6065 8.12948 18.3165 8.11914 15.999 8.11914Z" fill="#53FFBC"/>
<path d="M15.2357 9.65625C15.4628 9.6559 15.7166 9.65625 16.0013 9.65625C18.2789 9.65625 18.5493 9.66421 19.4485 9.70508C20.2805 9.74312 20.7327 9.88222 21.0335 9.99902C21.4317 10.1537 21.7155 10.339 22.014 10.6377C22.3126 10.9364 22.4976 11.2209 22.6526 11.6191C22.7694 11.9196 22.9087 12.3713 22.9466 13.2031C22.9875 14.1026 22.9964 14.3732 22.9964 16.6504C22.9964 18.9275 22.9875 19.1981 22.9466 20.0977C22.9085 20.9294 22.7694 21.3812 22.6526 21.6816C22.498 22.0796 22.3125 22.3628 22.014 22.6611C21.7153 22.9598 21.4319 23.1451 21.0335 23.2998C20.7331 23.4171 20.2806 23.5557 19.4485 23.5938C18.5494 23.6346 18.2789 23.6436 16.0013 23.6436C13.723 23.6436 13.4523 23.6346 12.553 23.5938C11.7211 23.5554 11.2691 23.4166 10.9681 23.2998C10.5699 23.1451 10.2853 22.9598 9.98663 22.6611C9.68806 22.3625 9.50296 22.079 9.34796 21.6807C9.23117 21.3802 9.09189 20.9286 9.05402 20.0967C9.01313 19.1972 9.00519 18.9268 9.00519 16.6484C9.00519 14.37 9.01314 14.1004 9.05402 13.2012C9.09206 12.3692 9.23116 11.917 9.34796 11.6162C9.50262 11.2181 9.688 10.9334 9.98663 10.6348C10.2853 10.3362 10.5699 10.1511 10.9681 9.99609C11.2689 9.87877 11.7212 9.74036 12.553 9.70215C13.3399 9.66661 13.6455 9.65607 15.2357 9.6543V9.65625ZM16.0003 12.2695C13.5804 12.2698 11.6185 14.2324 11.6185 16.6523C11.6186 19.0723 13.5813 21.0332 16.0013 21.0332C18.4211 21.033 20.382 19.0722 20.3821 16.6523C20.3821 14.2322 18.4204 12.2695 16.0003 12.2695ZM20.4515 11.0791C19.9353 11.1314 19.5317 11.5666 19.5316 12.0967C19.5316 12.662 19.9906 13.1211 20.556 13.1211C21.1213 13.121 21.5804 12.662 21.5804 12.0967C21.5802 11.5315 21.1212 11.0733 20.556 11.0732L20.4515 11.0791Z" fill="#53FFBC"/>
<path d="M16.0008 13.8086C17.5716 13.8086 18.8453 15.082 18.8453 16.6531C18.8453 18.2239 17.5716 19.4975 16.0008 19.4975C14.4297 19.4975 13.1563 18.2239 13.1563 16.6531C13.1563 15.082 14.4297 13.8086 16.0008 13.8086Z" fill="#53FFBC"/>
</svg>
