<svg width="60" height="21" viewBox="0 0 60 21" fill="none" xmlns="http://www.w3.org/2000/svg">
<path d="M24.4026 6.02755H29.7372V7.49043H25.9232V9.48299H29.7372V10.9207H25.9232V14.0987H24.4026V6.02755ZM31.557 5.47266C32.0805 5.47266 32.4544 5.85099 32.4544 6.38066C32.4544 6.91032 32.1054 7.28866 31.557 7.28866C31.0086 7.28866 30.6596 6.91032 30.6596 6.40588C30.6596 5.90143 31.0584 5.47266 31.557 5.47266ZM30.8091 8.14621H32.3297V14.1239H30.8091V8.14621ZM36.6922 9.81088C36.5177 9.65955 36.2185 9.53344 35.9693 9.53344C35.3461 9.53344 34.9971 9.93699 34.9971 10.7945V14.0987H33.5014V8.12099H34.9223V8.97855C35.2214 8.29755 35.6951 8.07055 36.3432 8.07055C36.9913 8.07055 37.0661 8.17143 37.3403 8.37321L36.6922 9.78566V9.81088ZM37.3154 11.1729C37.3154 9.45777 38.5618 8.0201 40.3566 8.0201C42.1514 8.0201 43.3979 9.28121 43.3979 11.072V11.7025H38.8111C38.9856 12.4592 39.5589 12.9637 40.4314 12.9637C41.3039 12.9637 41.603 12.6358 41.9022 12.0809L43.1486 12.8375C42.5254 13.7708 41.628 14.25 40.3815 14.25C38.4621 14.25 37.3154 12.9637 37.3154 11.1729ZM38.8111 10.4919H41.9271C41.7526 9.73521 41.1543 9.30644 40.3566 9.30644C39.5589 9.30644 39.0354 9.70999 38.836 10.4919H38.8111ZM43.7468 8.14621H44.8188V7.84355C44.8188 6.22932 45.4918 5.54832 46.9875 5.54832H47.511V6.85988H47.0872C46.3892 6.85988 46.2397 7.1121 46.2397 7.84355V8.14621H47.511V9.50821H46.2646V14.0987H44.8188V9.50821H43.7468V8.14621ZM47.7852 11.1224C47.7852 9.40732 49.0815 8.0201 50.8763 8.0201C52.6711 8.0201 53.9674 9.40732 53.9674 11.1224C53.9674 12.8375 52.5963 14.2248 50.8763 14.2248C49.1563 14.2248 47.7852 12.8628 47.7852 11.1224ZM52.4966 11.1224C52.4966 10.164 51.7986 9.43255 50.8763 9.43255C49.954 9.43255 49.256 10.164 49.256 11.1224C49.256 12.0809 49.954 12.8123 50.8763 12.8123C51.7986 12.8123 52.4966 12.0809 52.4966 11.1224ZM55.9866 11.0468L53.8428 8.12099H55.6127L56.8591 9.96221L58.1553 8.12099H59.9003L57.7316 11.0215L60 14.0734H58.2301L56.8092 12.1313L55.4382 14.0734H53.6683L55.9367 11.0215L55.9866 11.0468Z" fill="#F8F6F4"/>
<path d="M19.1168 6.75867C18.6974 5.73701 17.8587 4.63676 17.1855 4.28872C17.66 5.22057 17.9911 6.21977 18.1566 7.25266V7.26389C17.0751 4.51327 15.2321 3.40179 13.7312 0.987979C13.6539 0.864481 13.5767 0.740984 13.5105 0.617487C13.4663 0.538897 13.4332 0.471535 13.4001 0.4154C13.3339 0.291903 13.2897 0.157178 13.2566 0.0336811C13.2566 0.0224541 13.2456 0.011227 13.2346 0.011227C13.2235 0.011227 13.2235 0.011227 13.2125 0.011227C13.2125 0.011227 13.2125 0.011227 13.2014 0.011227V0C10.7956 1.43706 9.97893 4.09787 9.90167 5.42265C8.94154 5.49002 8.01451 5.84928 7.26406 6.45554C7.18681 6.38818 7.09852 6.32082 7.02127 6.26468C6.80055 5.49002 6.78951 4.65922 6.9992 3.87332C6.11632 4.31118 5.32172 4.92867 4.69267 5.6921C4.31744 5.19811 4.33951 3.58142 4.36159 3.24461C4.25123 3.28952 4.14087 3.34565 4.04154 3.41302C3.71046 3.66001 3.39042 3.92946 3.10348 4.23259C2.7724 4.5694 2.47443 4.93989 2.20956 5.33284C1.56947 6.231 1.12803 7.24143 0.896273 8.29677L0.885237 8.36414C0.863165 8.45395 0.796949 8.88058 0.785913 8.9704C0.785913 8.98162 0.785913 8.98162 0.785913 8.99285C0.697625 9.44193 0.653481 9.89101 0.631409 10.3401V10.385C0.631409 15.7852 4.93546 20.1525 10.2438 20.1413C14.912 20.1413 18.9071 16.717 19.7017 12.0354C19.7127 11.9119 19.7348 11.7884 19.7458 11.6537C19.9334 10.0033 19.7237 8.31923 19.1168 6.75867ZM8.04762 14.4043C8.09177 14.4267 8.13591 14.4492 8.18005 14.4716H8.19109C8.14695 14.4604 8.09177 14.4267 8.04762 14.4043Z" fill="url(#paint0_linear_2036_3331)"/>
<path d="M19.1174 6.75901C18.698 5.73735 17.8593 4.6371 17.1861 4.28906C17.6607 5.22091 17.9917 6.22011 18.1573 7.253V7.26422V7.27545C18.8967 9.43104 18.7863 11.7887 17.8593 13.8657C16.7557 16.2683 14.096 18.727 9.9244 18.6147C5.4217 18.48 1.44873 15.0895 0.709321 10.6323C0.576889 9.92503 0.709321 9.57699 0.775537 9.00441C0.687249 9.44227 0.632069 9.90257 0.621033 10.3517V10.3966C0.621033 15.7968 4.92508 20.1641 10.2334 20.1528C14.9017 20.1528 18.8967 16.7286 19.6913 12.0469C19.7023 11.9234 19.7244 11.7999 19.7354 11.6652C19.9341 10.0036 19.7244 8.31956 19.1174 6.75901Z" fill="url(#paint1_radial_2036_3331)"/>
<path d="M19.1174 6.75901C18.698 5.73735 17.8593 4.6371 17.1861 4.28906C17.6607 5.22091 17.9917 6.22011 18.1573 7.253V7.26422V7.27545C18.8967 9.43104 18.7863 11.7887 17.8593 13.8657C16.7557 16.2683 14.096 18.727 9.9244 18.6147C5.4217 18.48 1.44873 15.0895 0.709321 10.6323C0.576889 9.92503 0.709321 9.57699 0.775537 9.00441C0.687249 9.44227 0.632069 9.90257 0.621033 10.3517V10.3966C0.621033 15.7968 4.92508 20.1641 10.2334 20.1528C14.9017 20.1528 18.8967 16.7286 19.6913 12.0469C19.7023 11.9234 19.7244 11.7999 19.7354 11.6652C19.9341 10.0036 19.7244 8.31956 19.1174 6.75901Z" fill="url(#paint2_radial_2036_3331)"/>
<path d="M14.449 7.91409C14.4711 7.92531 14.4931 7.94777 14.5042 7.95899C14.2614 7.52114 13.9634 7.12819 13.6103 6.78016C10.6305 3.74886 12.8267 0.201117 13.2019 0.0214844C10.7961 1.43609 9.97941 4.0969 9.90216 5.42169C10.0125 5.41046 10.1229 5.39923 10.2443 5.39923C11.988 5.41046 13.5882 6.36476 14.449 7.91409Z" fill="url(#paint3_radial_2036_3331)"/>
<path d="M10.2556 8.522C10.2446 8.76899 9.39481 9.59979 9.09683 9.59979C6.37093 9.59979 5.91846 11.2838 5.91846 11.2838C6.03985 12.6985 7.01102 13.8661 8.18084 14.4835C8.23602 14.5172 8.2912 14.5397 8.34638 14.5621C8.44571 14.607 8.534 14.6407 8.63332 14.6744C9.03062 14.8204 9.46102 14.8989 9.88039 14.9214C14.67 15.1459 15.5971 9.09457 12.1428 7.34316C12.9594 7.23089 13.7871 7.4442 14.4603 7.91574C13.5995 6.37763 11.9993 5.42334 10.2556 5.41211C10.1453 5.41211 10.0349 5.42334 9.9135 5.43456C8.95337 5.50193 8.02634 5.86119 7.27589 6.46745C7.41936 6.59095 7.5849 6.75935 7.93805 7.10739C8.57814 7.75856 10.2446 8.43218 10.2556 8.522Z" fill="url(#paint4_radial_2036_3331)"/>
<path d="M10.2556 8.522C10.2446 8.76899 9.39481 9.59979 9.09683 9.59979C6.37093 9.59979 5.91846 11.2838 5.91846 11.2838C6.03985 12.6985 7.01102 13.8661 8.18084 14.4835C8.23602 14.5172 8.2912 14.5397 8.34638 14.5621C8.44571 14.607 8.534 14.6407 8.63332 14.6744C9.03062 14.8204 9.46102 14.8989 9.88039 14.9214C14.67 15.1459 15.5971 9.09457 12.1428 7.34316C12.9594 7.23089 13.7871 7.4442 14.4603 7.91574C13.5995 6.37763 11.9993 5.42334 10.2556 5.41211C10.1453 5.41211 10.0349 5.42334 9.9135 5.43456C8.95337 5.50193 8.02634 5.86119 7.27589 6.46745C7.41936 6.59095 7.5849 6.75935 7.93805 7.10739C8.57814 7.75856 10.2446 8.43218 10.2556 8.522Z" fill="url(#paint5_radial_2036_3331)"/>
<path d="M6.81227 6.1414C6.88952 6.18631 6.95573 6.23122 7.01091 6.27612C6.79019 5.50146 6.77916 4.67066 6.98884 3.88477C6.10596 4.32262 5.31137 4.94011 4.68231 5.70354C4.72646 5.70354 6.117 5.68109 6.81227 6.1414Z" fill="url(#paint6_radial_2036_3331)"/>
<path d="M0.719975 10.6203C1.45939 15.0774 5.43236 18.4792 9.93506 18.6027C14.1067 18.7262 16.7664 16.2563 17.87 13.8537C18.797 11.7767 18.9073 9.41901 18.1679 7.26342V7.25219C18.1679 7.24096 18.1679 7.24096 18.1679 7.24096V7.25219C18.5101 9.52005 17.3733 11.7093 15.6076 13.1913V13.2025C12.1643 16.0542 8.86456 14.9203 8.2024 14.4599C8.15826 14.4375 8.11411 14.415 8.05893 14.3926C6.05038 13.4158 5.22267 11.5521 5.39925 9.9579C4.42808 9.96913 3.53416 9.39655 3.12583 8.49839C4.19632 7.82477 5.53168 7.77986 6.65736 8.35244C7.79407 8.88011 9.08528 8.92502 10.2661 8.49839C10.2661 8.4198 8.58866 7.74618 7.93754 7.09501C7.58438 6.74697 7.41884 6.57857 7.27538 6.45507C7.19812 6.38771 7.10983 6.32035 7.03258 6.26421C6.9774 6.2193 6.91119 6.18562 6.83393 6.12949C6.13866 5.66918 4.73709 5.69163 4.69294 5.69163C4.31772 5.19764 4.33979 3.58095 4.36186 3.24414C4.2515 3.28905 4.14114 3.34518 4.04182 3.41255C3.71074 3.65954 3.39069 3.92899 3.10376 4.23212C2.77268 4.56893 2.4747 4.93942 2.1988 5.32114C1.56975 6.23053 1.12831 7.24096 0.896551 8.2963C0.896551 8.31876 0.554434 9.83441 0.719975 10.6203Z" fill="url(#paint7_radial_2036_3331)"/>
<path d="M13.6216 6.77039C13.9747 7.11843 14.2727 7.5226 14.5155 7.96046C14.5707 8.00536 14.6148 8.03904 14.659 8.08395C16.8331 10.1273 15.6964 13.0126 15.6081 13.2147C17.3738 11.7327 18.5105 9.54347 18.1684 7.27561C17.0869 4.52498 15.2439 3.41351 13.743 0.98847C13.6657 0.864973 13.5885 0.741476 13.5223 0.617978C13.4781 0.539389 13.445 0.472027 13.4119 0.415892C13.3457 0.292394 13.3015 0.15767 13.2684 0.0341728C13.2684 0.0229458 13.2574 0.0117188 13.2464 0.0117188C13.2353 0.0117188 13.2353 0.0117188 13.2243 0.0117188C13.2243 0.0117188 13.2243 0.0117188 13.2133 0.0117188C12.838 0.191351 10.6308 3.73909 13.6216 6.77039Z" fill="url(#paint8_radial_2036_3331)"/>
<path d="M14.6583 8.07311C14.6142 8.03943 14.57 7.99452 14.5149 7.94961C14.4928 7.93838 14.4707 7.91593 14.4597 7.9047C13.7865 7.43317 12.9588 7.21985 12.1421 7.33212C15.5964 9.08354 14.6694 15.1349 9.87972 14.9104C9.44932 14.8879 9.02995 14.8093 8.63265 14.6634C8.53333 14.6297 8.44504 14.5848 8.34572 14.5511C8.29054 14.5286 8.23536 14.5062 8.18018 14.4725H8.19121C8.85337 14.9328 12.1531 16.0668 15.5964 13.2151V13.2039C15.6957 13.0018 16.8324 10.1164 14.6583 8.07311Z" fill="url(#paint9_radial_2036_3331)"/>
<path d="M5.91845 11.2723C5.91845 11.2723 6.35989 9.58824 9.09682 9.58824C9.3948 9.58824 10.2335 8.74621 10.2556 8.51045C9.08579 8.9483 7.78354 8.89216 6.64682 8.36449C5.52115 7.78069 4.18579 7.83682 3.1153 8.51045C3.52363 9.40861 4.41755 9.98119 5.38872 9.96996C5.21214 11.5642 6.03984 13.4279 8.0484 14.4046C8.09254 14.4271 8.13669 14.4495 8.18083 14.472C7.01101 13.8545 6.03984 12.6869 5.91845 11.2723Z" fill="url(#paint10_radial_2036_3331)"/>
<path d="M19.1168 6.75867C18.6974 5.73701 17.8587 4.63676 17.1855 4.28873C17.66 5.22057 17.9911 6.21977 18.1566 7.25266V7.26389C17.0751 4.51327 15.2321 3.40179 13.7312 0.987979C13.6539 0.864481 13.5767 0.740984 13.5105 0.617487C13.4663 0.538897 13.4332 0.471535 13.4001 0.4154C13.3339 0.291903 13.2897 0.157178 13.2566 0.0336811C13.2566 0.0224541 13.2456 0.011227 13.2346 0.011227C13.2235 0.011227 13.2235 0.011227 13.2125 0.011227C13.2125 0.011227 13.2125 0.011227 13.2014 0.011227V0C10.7956 1.43706 9.97893 4.09787 9.90167 5.42266C10.012 5.41143 10.1224 5.4002 10.2438 5.4002C11.9875 5.4002 13.5877 6.3545 14.4485 7.90383C13.7753 7.43229 12.9476 7.21898 12.131 7.33125C15.5852 9.08267 14.6582 15.134 9.86856 14.9095C9.43816 14.887 9.01879 14.8085 8.62149 14.6625C8.52217 14.6288 8.43388 14.5839 8.33456 14.5502C8.27938 14.5278 8.2242 14.5053 8.16902 14.4716H8.18005C8.13591 14.4492 8.09176 14.4267 8.03658 14.4043C8.08073 14.4267 8.12487 14.4492 8.16902 14.4716C7.01023 13.8542 6.03906 12.6865 5.91767 11.2719C5.91767 11.2719 6.35911 9.58788 9.09604 9.58788C9.39402 9.58788 10.2328 8.74586 10.2548 8.51009C10.2548 8.4315 8.57735 7.75788 7.92622 7.10671C7.57307 6.75867 7.40753 6.59027 7.26406 6.46677C7.18681 6.39941 7.09852 6.33204 7.02127 6.27591C6.80055 5.50124 6.78951 4.67044 6.9992 3.88455C6.11632 4.32241 5.32172 4.93989 4.69267 5.70333C4.31744 5.20934 4.33951 3.59265 4.36159 3.25584C4.25123 3.30075 4.14087 3.35688 4.04154 3.42424C3.71046 3.67124 3.39042 3.94069 3.10348 4.24382C2.7724 4.58063 2.47443 4.95112 2.20956 5.34407C1.56947 6.231 1.12803 7.24143 0.896273 8.29677L0.885237 8.36414C0.863165 8.45395 0.785913 8.89181 0.774877 8.98162C0.774877 8.9704 0.774877 8.99285 0.774877 8.98162C0.697625 9.4307 0.653481 9.89101 0.631409 10.3401V10.385C0.631409 15.7852 4.93546 20.1525 10.2438 20.1413C14.912 20.1413 18.9071 16.717 19.7017 12.0354C19.7127 11.9119 19.7348 11.7884 19.7458 11.6537C19.9334 10.0033 19.7237 8.31923 19.1168 6.75867Z" fill="url(#paint11_linear_2036_3331)"/>
<defs>
<linearGradient id="paint0_linear_2036_3331" x1="17.8448" y1="3.12107" x2="1.64175" y2="18.488" gradientUnits="userSpaceOnUse">
<stop offset="0.048" stop-color="#FFF44F"/>
<stop offset="0.111" stop-color="#FFE847"/>
<stop offset="0.225" stop-color="#FFC830"/>
<stop offset="0.368" stop-color="#FF980E"/>
<stop offset="0.401" stop-color="#FF8B16"/>
<stop offset="0.462" stop-color="#FF672A"/>
<stop offset="0.534" stop-color="#FF3647"/>
<stop offset="0.705" stop-color="#E31587"/>
</linearGradient>
<radialGradient id="paint1_radial_2036_3331" cx="0" cy="0" r="1" gradientUnits="userSpaceOnUse" gradientTransform="translate(17.1102 2.23709) scale(20.0169 20.3633)">
<stop offset="0.129" stop-color="#FFBD4F"/>
<stop offset="0.186" stop-color="#FFAC31"/>
<stop offset="0.247" stop-color="#FF9D17"/>
<stop offset="0.283" stop-color="#FF980E"/>
<stop offset="0.403" stop-color="#FF563B"/>
<stop offset="0.467" stop-color="#FF3750"/>
<stop offset="0.71" stop-color="#F5156C"/>
<stop offset="0.782" stop-color="#EB0878"/>
<stop offset="0.86" stop-color="#E50080"/>
</radialGradient>
<radialGradient id="paint2_radial_2036_3331" cx="0" cy="0" r="1" gradientUnits="userSpaceOnUse" gradientTransform="translate(9.79586 10.5622) scale(20.0169 20.3633)">
<stop offset="0.3" stop-color="#960E18"/>
<stop offset="0.351" stop-color="#B11927" stop-opacity="0.74"/>
<stop offset="0.435" stop-color="#DB293D" stop-opacity="0.343"/>
<stop offset="0.497" stop-color="#F5334B" stop-opacity="0.094"/>
<stop offset="0.53" stop-color="#FF3750" stop-opacity="0"/>
</radialGradient>
<radialGradient id="paint3_radial_2036_3331" cx="0" cy="0" r="1" gradientUnits="userSpaceOnUse" gradientTransform="translate(12.209 -2.38539) scale(14.5008 14.7518)">
<stop offset="0.132" stop-color="#FFF44F"/>
<stop offset="0.252" stop-color="#FFDC3E"/>
<stop offset="0.506" stop-color="#FF9D12"/>
<stop offset="0.526" stop-color="#FF980E"/>
</radialGradient>
<radialGradient id="paint4_radial_2036_3331" cx="0" cy="0" r="1" gradientUnits="userSpaceOnUse" gradientTransform="translate(7.58189 15.8816) scale(9.53091 9.69585)">
<stop offset="0.353" stop-color="#3A8EE6"/>
<stop offset="0.472" stop-color="#5C79F0"/>
<stop offset="0.669" stop-color="#9059FF"/>
<stop offset="1" stop-color="#C139E6"/>
</radialGradient>
<radialGradient id="paint5_radial_2036_3331" cx="0" cy="0" r="1" gradientTransform="matrix(4.91171 -1.20805 -1.38963 -5.85006 10.8898 8.89361)" gradientUnits="userSpaceOnUse">
<stop offset="0.206" stop-color="#9059FF" stop-opacity="0"/>
<stop offset="0.278" stop-color="#8C4FF3" stop-opacity="0.064"/>
<stop offset="0.747" stop-color="#7716A8" stop-opacity="0.45"/>
<stop offset="0.975" stop-color="#6E008B" stop-opacity="0.6"/>
</radialGradient>
<radialGradient id="paint6_radial_2036_3331" cx="0" cy="0" r="1" gradientUnits="userSpaceOnUse" gradientTransform="translate(9.54314 1.40382) scale(6.85652 6.97519)">
<stop stop-color="#FFE226"/>
<stop offset="0.121" stop-color="#FFDB27"/>
<stop offset="0.295" stop-color="#FFC82A"/>
<stop offset="0.502" stop-color="#FFA930"/>
<stop offset="0.732" stop-color="#FF7E37"/>
<stop offset="0.792" stop-color="#FF7139"/>
</radialGradient>
<radialGradient id="paint7_radial_2036_3331" cx="0" cy="0" r="1" gradientUnits="userSpaceOnUse" gradientTransform="translate(14.9321 -3.02113) scale(29.2537 29.76)">
<stop offset="0.113" stop-color="#FFF44F"/>
<stop offset="0.456" stop-color="#FF980E"/>
<stop offset="0.622" stop-color="#FF5634"/>
<stop offset="0.716" stop-color="#FF3647"/>
<stop offset="0.904" stop-color="#E31587"/>
</radialGradient>
<radialGradient id="paint8_radial_2036_3331" cx="0" cy="0" r="1" gradientTransform="matrix(2.2501 21.6914 13.9935 -1.50423 12.4671 -1.3653)" gradientUnits="userSpaceOnUse">
<stop stop-color="#FFF44F"/>
<stop offset="0.06" stop-color="#FFE847"/>
<stop offset="0.168" stop-color="#FFC830"/>
<stop offset="0.304" stop-color="#FF980E"/>
<stop offset="0.356" stop-color="#FF8B16"/>
<stop offset="0.455" stop-color="#FF672A"/>
<stop offset="0.57" stop-color="#FF3647"/>
<stop offset="0.737" stop-color="#E31587"/>
</radialGradient>
<radialGradient id="paint9_radial_2036_3331" cx="0" cy="0" r="1" gradientUnits="userSpaceOnUse" gradientTransform="translate(9.38108 3.98812) scale(18.2636 18.5797)">
<stop offset="0.137" stop-color="#FFF44F"/>
<stop offset="0.48" stop-color="#FF980E"/>
<stop offset="0.592" stop-color="#FF5634"/>
<stop offset="0.655" stop-color="#FF3647"/>
<stop offset="0.904" stop-color="#E31587"/>
</radialGradient>
<radialGradient id="paint10_radial_2036_3331" cx="0" cy="0" r="1" gradientUnits="userSpaceOnUse" gradientTransform="translate(14.2028 5.0749) scale(19.9894 20.3353)">
<stop offset="0.094" stop-color="#FFF44F"/>
<stop offset="0.231" stop-color="#FFE141"/>
<stop offset="0.509" stop-color="#FFAF1E"/>
<stop offset="0.626" stop-color="#FF980E"/>
</radialGradient>
<linearGradient id="paint11_linear_2036_3331" x1="17.6535" y1="3.03763" x2="3.85787" y2="16.5983" gradientUnits="userSpaceOnUse">
<stop offset="0.167" stop-color="#FFF44F" stop-opacity="0.8"/>
<stop offset="0.266" stop-color="#FFF44F" stop-opacity="0.634"/>
<stop offset="0.489" stop-color="#FFF44F" stop-opacity="0.217"/>
<stop offset="0.6" stop-color="#FFF44F" stop-opacity="0"/>
</linearGradient>
</defs>
</svg>
