<svg width="60" height="21" viewBox="0 0 60 21" fill="none" xmlns="http://www.w3.org/2000/svg">
<path d="M24.4026 6.02796H29.7372V7.49085H25.9232V9.4834H29.7372V10.9211H25.9232V14.0991H24.4026V6.02796ZM31.557 5.47307C32.0805 5.47307 32.4544 5.8514 32.4544 6.38107C32.4544 6.91074 32.1054 7.28907 31.557 7.28907C31.0086 7.28907 30.6596 6.91074 30.6596 6.40629C30.6596 5.90185 31.0584 5.47307 31.557 5.47307ZM30.8091 8.14663H32.3297V14.1243H30.8091V8.14663ZM36.6922 9.81129C36.5177 9.65996 36.2185 9.53385 35.9693 9.53385C35.3461 9.53385 34.9971 9.9374 34.9971 10.795V14.0991H33.5014V8.1214H34.9223V8.97896C35.2214 8.29796 35.6951 8.07096 36.3432 8.07096C36.9913 8.07096 37.0661 8.17185 37.3403 8.37362L36.6922 9.78607V9.81129ZM37.3154 11.1733C37.3154 9.45818 38.5618 8.02051 40.3566 8.02051C42.1514 8.02051 43.3979 9.28163 43.3979 11.0724V11.703H38.8111C38.9856 12.4596 39.5589 12.9641 40.4314 12.9641C41.3039 12.9641 41.603 12.6362 41.9022 12.0813L43.1486 12.838C42.5254 13.7712 41.628 14.2504 40.3815 14.2504C38.4621 14.2504 37.3154 12.9641 37.3154 11.1733ZM38.8111 10.4923H41.9271C41.7526 9.73563 41.1543 9.30685 40.3566 9.30685C39.5589 9.30685 39.0354 9.7104 38.836 10.4923H38.8111ZM43.7468 8.14663H44.8188V7.84396C44.8188 6.22974 45.4918 5.54874 46.9875 5.54874H47.511V6.86029H47.0872C46.3892 6.86029 46.2397 7.11251 46.2397 7.84396V8.14663H47.511V9.50863H46.2646V14.0991H44.8188V9.50863H43.7468V8.14663ZM47.7852 11.1228C47.7852 9.40774 49.0815 8.02051 50.8763 8.02051C52.6711 8.02051 53.9674 9.40774 53.9674 11.1228C53.9674 12.838 52.5963 14.2252 50.8763 14.2252C49.1563 14.2252 47.7852 12.8632 47.7852 11.1228ZM52.4966 11.1228C52.4966 10.1644 51.7986 9.43296 50.8763 9.43296C49.954 9.43296 49.256 10.1644 49.256 11.1228C49.256 12.0813 49.954 12.8127 50.8763 12.8127C51.7986 12.8127 52.4966 12.0813 52.4966 11.1228ZM55.9866 11.0472L53.8428 8.1214H55.6127L56.8591 9.96263L58.1553 8.1214H59.9003L57.7316 11.022L60 14.0738H58.2301L56.8092 12.1317L55.4382 14.0738H53.6683L55.9367 11.022L55.9866 11.0472Z" fill="#F8F6F4"/>
<path d="M19.1165 6.7587C18.6971 5.73704 17.8583 4.63679 17.1852 4.28876C17.6597 5.2206 17.9908 6.2198 18.1563 7.25269V7.26392C17.0748 4.5133 15.2318 3.40182 13.7309 0.988009C13.6536 0.864512 13.5764 0.741014 13.5102 0.617517C13.466 0.538928 13.4329 0.471566 13.3998 0.415431C13.3336 0.291933 13.2894 0.157209 13.2563 0.0337116C13.2563 0.0224846 13.2453 0.0112575 13.2343 0.0112575C13.2232 0.0112575 13.2232 0.0112575 13.2122 0.0112575C13.2122 0.0112575 13.2122 0.0112575 13.2011 0.0112575V3.05176e-05C10.7953 1.43709 9.97862 4.0979 9.90137 5.42269C8.94123 5.49005 8.01421 5.84931 7.26376 6.45557C7.18651 6.38821 7.09822 6.32085 7.02097 6.26471C6.80024 5.49005 6.78921 4.65925 6.99889 3.87336C6.11601 4.31121 5.32142 4.9287 4.69236 5.69213C4.31714 5.19814 4.33921 3.58145 4.36128 3.24464C4.25092 3.28955 4.14056 3.34569 4.04124 3.41305C3.71016 3.66004 3.39011 3.92949 3.10317 4.23262C2.77209 4.56943 2.47412 4.93992 2.20926 5.33287C1.56917 6.23103 1.12772 7.24146 0.895968 8.29681L0.884932 8.36417C0.86286 8.45398 0.796644 8.88061 0.785608 8.97043C0.785608 8.98165 0.785608 8.98165 0.785608 8.99288C0.69732 9.44196 0.653176 9.89104 0.631104 10.3401V10.385C0.631104 15.7852 4.93516 20.1525 10.2435 20.1413C14.9117 20.1413 18.9068 16.7171 19.7014 12.0354C19.7124 11.9119 19.7345 11.7884 19.7455 11.6537C19.9331 10.0033 19.7234 8.31926 19.1165 6.7587ZM8.04732 14.4043C8.09146 14.4268 8.1356 14.4492 8.17975 14.4717H8.19078C8.14664 14.4604 8.09146 14.4268 8.04732 14.4043Z" fill="url(#paint0_linear_1286_2371)"/>
<path d="M19.1172 6.75879C18.6979 5.73713 17.8591 4.63689 17.1859 4.28885C17.6605 5.22069 17.9916 6.2199 18.1571 7.25278V7.26401V7.27524C18.8965 9.43083 18.7862 11.7885 17.8591 13.8655C16.7555 16.2681 14.0958 18.7268 9.92422 18.6145C5.42152 18.4798 1.44855 15.0892 0.709138 10.6321C0.576705 9.92481 0.709138 9.57678 0.775354 9.0042C0.687066 9.44205 0.631886 9.90236 0.62085 10.3514V10.3963C0.62085 15.7965 4.9249 20.1639 10.2332 20.1526C14.9015 20.1526 18.8965 16.7284 19.6911 12.0467C19.7021 11.9232 19.7242 11.7997 19.7353 11.665C19.9339 10.0034 19.7242 8.31935 19.1172 6.75879Z" fill="url(#paint1_radial_1286_2371)"/>
<path d="M19.1172 6.75879C18.6979 5.73713 17.8591 4.63689 17.1859 4.28885C17.6605 5.22069 17.9916 6.2199 18.1571 7.25278V7.26401V7.27524C18.8965 9.43083 18.7862 11.7885 17.8591 13.8655C16.7555 16.2681 14.0958 18.7268 9.92422 18.6145C5.42152 18.4798 1.44855 15.0892 0.709138 10.6321C0.576705 9.92481 0.709138 9.57678 0.775354 9.0042C0.687066 9.44205 0.631886 9.90236 0.62085 10.3514V10.3963C0.62085 15.7965 4.9249 20.1639 10.2332 20.1526C14.9015 20.1526 18.8965 16.7284 19.6911 12.0467C19.7021 11.9232 19.7242 11.7997 19.7353 11.665C19.9339 10.0034 19.7242 8.31935 19.1172 6.75879Z" fill="url(#paint2_radial_1286_2371)"/>
<path d="M14.4487 7.91479C14.4708 7.92602 14.4928 7.94847 14.5039 7.9597C14.2611 7.52184 13.9631 7.1289 13.61 6.78086C10.6302 3.74956 12.8264 0.201819 13.2016 0.0221863C10.7958 1.43679 9.97911 4.0976 9.90186 5.42239C10.0122 5.41116 10.1226 5.39993 10.244 5.39993C11.9877 5.41116 13.5879 6.36546 14.4487 7.91479Z" fill="url(#paint3_radial_1286_2371)"/>
<path d="M10.2554 8.5212C10.2443 8.7682 9.39456 9.599 9.09659 9.599C6.37069 9.599 5.91821 11.2831 5.91821 11.2831C6.03961 12.6977 7.01078 13.8653 8.1806 14.4828C8.23578 14.5164 8.29096 14.5389 8.34614 14.5613C8.44546 14.6063 8.53375 14.6399 8.63308 14.6736C9.03037 14.8196 9.46078 14.8982 9.88015 14.9206C14.6698 15.1451 15.5968 9.09378 12.1425 7.34236C12.9592 7.23009 13.7869 7.44341 14.4601 7.91494C13.5993 6.37684 11.9991 5.42254 10.2554 5.41132C10.145 5.41132 10.0347 5.42254 9.91326 5.43377C8.95312 5.50113 8.0261 5.8604 7.27565 6.46666C7.41911 6.59015 7.58465 6.75856 7.93781 7.1066C8.5779 7.75776 10.2443 8.43139 10.2554 8.5212Z" fill="url(#paint4_radial_1286_2371)"/>
<path d="M10.2554 8.5212C10.2443 8.7682 9.39456 9.599 9.09659 9.599C6.37069 9.599 5.91821 11.2831 5.91821 11.2831C6.03961 12.6977 7.01078 13.8653 8.1806 14.4828C8.23578 14.5164 8.29096 14.5389 8.34614 14.5613C8.44546 14.6063 8.53375 14.6399 8.63308 14.6736C9.03037 14.8196 9.46078 14.8982 9.88015 14.9206C14.6698 15.1451 15.5968 9.09378 12.1425 7.34236C12.9592 7.23009 13.7869 7.44341 14.4601 7.91494C13.5993 6.37684 11.9991 5.42254 10.2554 5.41132C10.145 5.41132 10.0347 5.42254 9.91326 5.43377C8.95312 5.50113 8.0261 5.8604 7.27565 6.46666C7.41911 6.59015 7.58465 6.75856 7.93781 7.1066C8.5779 7.75776 10.2443 8.43139 10.2554 8.5212Z" fill="url(#paint5_radial_1286_2371)"/>
<path d="M6.81208 6.14128C6.88933 6.18618 6.95555 6.23109 7.01073 6.276C6.79001 5.50134 6.77897 4.67054 6.98866 3.88464C6.10578 4.3225 5.31118 4.93998 4.68213 5.70342C4.72627 5.70342 6.11681 5.68097 6.81208 6.14128Z" fill="url(#paint6_radial_1286_2371)"/>
<path d="M0.719792 10.6212C1.45921 15.0784 5.43218 18.4802 9.93488 18.6037C14.1065 18.7271 16.7662 16.2572 17.8698 13.8546C18.7968 11.7776 18.9072 9.41994 18.1678 7.26435V7.25312C18.1678 7.24189 18.1678 7.24189 18.1678 7.24189V7.25312C18.5099 9.52098 17.3732 11.7103 15.6074 13.1922V13.2034C12.1642 16.0551 8.86438 14.9212 8.20222 14.4609C8.15807 14.4384 8.11393 14.416 8.05875 14.3935C6.05019 13.4168 5.22249 11.5531 5.39907 9.95884C4.4279 9.97006 3.53398 9.39748 3.12565 8.49932C4.19614 7.8257 5.5315 7.78079 6.65717 8.35337C7.79389 8.88104 9.0851 8.92595 10.266 8.49932C10.266 8.42073 8.58848 7.74711 7.93735 7.09594C7.5842 6.74791 7.41866 6.5795 7.27519 6.456C7.19794 6.38864 7.10965 6.32128 7.0324 6.26514C6.97722 6.22023 6.911 6.18655 6.83375 6.13042C6.13848 5.67011 4.73691 5.69256 4.69276 5.69256C4.31754 5.19857 4.33961 3.58188 4.36168 3.24507C4.25132 3.28998 4.14096 3.34611 4.04164 3.41348C3.71056 3.66047 3.39051 3.92992 3.10357 4.23305C2.77249 4.56986 2.47452 4.94035 2.19862 5.32207C1.56957 6.23146 1.12812 7.24189 0.896368 8.29724C0.896368 8.31969 0.554251 9.83534 0.719792 10.6212Z" fill="url(#paint7_radial_1286_2371)"/>
<path d="M13.6213 6.76978C13.9744 7.11782 14.2724 7.52199 14.5152 7.95985C14.5704 8.00475 14.6145 8.03843 14.6587 8.08334C16.8328 10.1267 15.6961 13.012 15.6078 13.2141C17.3735 11.7321 18.5102 9.54286 18.1681 7.275C17.0866 4.52437 15.2436 3.4129 13.7427 0.98786C13.6654 0.864363 13.5882 0.740865 13.522 0.617368C13.4778 0.538779 13.4447 0.471417 13.4116 0.415281C13.3454 0.291784 13.3012 0.15706 13.2681 0.0335625C13.2681 0.0223354 13.2571 0.0111084 13.2461 0.0111084C13.235 0.0111084 13.235 0.0111084 13.224 0.0111084C13.224 0.0111084 13.224 0.0111084 13.213 0.0111084C12.8377 0.190741 10.6305 3.73848 13.6213 6.76978Z" fill="url(#paint8_radial_1286_2371)"/>
<path d="M14.6581 8.07245C14.6139 8.03877 14.5698 7.99386 14.5146 7.94895C14.4925 7.93773 14.4705 7.91527 14.4594 7.90405C13.7862 7.43251 12.9585 7.2192 12.1419 7.33147C15.5961 9.08288 14.6691 15.1343 9.87948 14.9097C9.44907 14.8873 9.02971 14.8087 8.63241 14.6627C8.53308 14.629 8.4448 14.5841 8.34547 14.5504C8.29029 14.528 8.23511 14.5055 8.17993 14.4719H8.19097C8.85313 14.9322 12.1529 16.0661 15.5961 13.2144V13.2032C15.6955 13.0011 16.8322 10.1158 14.6581 8.07245Z" fill="url(#paint9_radial_1286_2371)"/>
<path d="M5.91839 11.2714C5.91839 11.2714 6.35983 9.58739 9.09676 9.58739C9.39473 9.58739 10.2335 8.74536 10.2555 8.50959C9.08573 8.94744 7.78347 8.89131 6.64676 8.36364C5.52109 7.77983 4.18573 7.83597 3.11523 8.50959C3.52357 9.40775 4.41749 9.98033 5.38866 9.9691C5.21208 11.5633 6.03978 13.427 8.04834 14.4038C8.09248 14.4262 8.13663 14.4487 8.18077 14.4711C7.01095 13.8537 6.03978 12.686 5.91839 11.2714Z" fill="url(#paint10_radial_1286_2371)"/>
<path d="M19.1165 6.7587C18.6971 5.73704 17.8583 4.63679 17.1851 4.28876C17.6597 5.2206 17.9908 6.2198 18.1563 7.25269V7.26392C17.0748 4.5133 15.2318 3.40182 13.7309 0.988009C13.6536 0.864512 13.5764 0.741014 13.5102 0.617517C13.466 0.538928 13.4329 0.471566 13.3998 0.415431C13.3336 0.291933 13.2894 0.157209 13.2563 0.0337116C13.2563 0.0224846 13.2453 0.0112575 13.2342 0.0112575C13.2232 0.0112575 13.2232 0.0112575 13.2122 0.0112575C13.2122 0.0112575 13.2122 0.0112575 13.2011 0.0112575V3.05176e-05C10.7953 1.43709 9.97862 4.0979 9.90137 5.42269C10.0117 5.41146 10.1221 5.40023 10.2435 5.40023C11.9872 5.40023 13.5874 6.35453 14.4482 7.90386C13.775 7.43232 12.9473 7.21901 12.1306 7.33128C15.5849 9.0827 14.6579 15.1341 9.86826 14.9095C9.43785 14.8871 9.01849 14.8085 8.62119 14.6625C8.52186 14.6289 8.43358 14.5839 8.33425 14.5503C8.27907 14.5278 8.22389 14.5054 8.16871 14.4717H8.17975C8.1356 14.4492 8.09146 14.4268 8.03628 14.4043C8.08042 14.4268 8.12457 14.4492 8.16871 14.4717C7.00993 13.8542 6.03876 12.6866 5.91736 11.272C5.91736 11.272 6.3588 9.58791 9.09574 9.58791C9.39371 9.58791 10.2324 8.74589 10.2545 8.51012C10.2545 8.43153 8.57705 7.75791 7.92592 7.10674C7.57277 6.7587 7.40723 6.5903 7.26376 6.4668C7.18651 6.39944 7.09822 6.33208 7.02097 6.27594C6.80024 5.50128 6.78921 4.67047 6.99889 3.88458C6.11601 4.32244 5.32142 4.93992 4.69236 5.70336C4.31714 5.20937 4.33921 3.59268 4.36128 3.25587C4.25092 3.30078 4.14056 3.35691 4.04124 3.42427C3.71016 3.67127 3.39011 3.94072 3.10317 4.24385C2.77209 4.58066 2.47412 4.95115 2.20926 5.3441C1.56917 6.23103 1.12772 7.24146 0.895968 8.29681L0.884932 8.36417C0.86286 8.45398 0.785608 8.89184 0.774572 8.98165C0.774572 8.97043 0.774572 8.99288 0.774572 8.98165C0.69732 9.43073 0.653176 9.89104 0.631104 10.3401V10.385C0.631104 15.7852 4.93516 20.1525 10.2435 20.1413C14.9117 20.1413 18.9068 16.7171 19.7014 12.0354C19.7124 11.9119 19.7345 11.7884 19.7455 11.6537C19.9331 10.0033 19.7234 8.31926 19.1165 6.7587Z" fill="url(#paint11_linear_1286_2371)"/>
<defs>
<linearGradient id="paint0_linear_1286_2371" x1="17.8445" y1="3.1211" x2="1.64145" y2="18.488" gradientUnits="userSpaceOnUse">
<stop offset="0.048" stop-color="#FFF44F"/>
<stop offset="0.111" stop-color="#FFE847"/>
<stop offset="0.225" stop-color="#FFC830"/>
<stop offset="0.368" stop-color="#FF980E"/>
<stop offset="0.401" stop-color="#FF8B16"/>
<stop offset="0.462" stop-color="#FF672A"/>
<stop offset="0.534" stop-color="#FF3647"/>
<stop offset="0.705" stop-color="#E31587"/>
</linearGradient>
<radialGradient id="paint1_radial_1286_2371" cx="0" cy="0" r="1" gradientUnits="userSpaceOnUse" gradientTransform="translate(17.11 2.23687) scale(20.0169 20.3633)">
<stop offset="0.129" stop-color="#FFBD4F"/>
<stop offset="0.186" stop-color="#FFAC31"/>
<stop offset="0.247" stop-color="#FF9D17"/>
<stop offset="0.283" stop-color="#FF980E"/>
<stop offset="0.403" stop-color="#FF563B"/>
<stop offset="0.467" stop-color="#FF3750"/>
<stop offset="0.71" stop-color="#F5156C"/>
<stop offset="0.782" stop-color="#EB0878"/>
<stop offset="0.86" stop-color="#E50080"/>
</radialGradient>
<radialGradient id="paint2_radial_1286_2371" cx="0" cy="0" r="1" gradientUnits="userSpaceOnUse" gradientTransform="translate(9.79567 10.562) scale(20.0169 20.3633)">
<stop offset="0.3" stop-color="#960E18"/>
<stop offset="0.351" stop-color="#B11927" stop-opacity="0.74"/>
<stop offset="0.435" stop-color="#DB293D" stop-opacity="0.343"/>
<stop offset="0.497" stop-color="#F5334B" stop-opacity="0.094"/>
<stop offset="0.53" stop-color="#FF3750" stop-opacity="0"/>
</radialGradient>
<radialGradient id="paint3_radial_1286_2371" cx="0" cy="0" r="1" gradientUnits="userSpaceOnUse" gradientTransform="translate(12.2087 -2.38469) scale(14.5008 14.7518)">
<stop offset="0.132" stop-color="#FFF44F"/>
<stop offset="0.252" stop-color="#FFDC3E"/>
<stop offset="0.506" stop-color="#FF9D12"/>
<stop offset="0.526" stop-color="#FF980E"/>
</radialGradient>
<radialGradient id="paint4_radial_1286_2371" cx="0" cy="0" r="1" gradientUnits="userSpaceOnUse" gradientTransform="translate(7.58164 15.8808) scale(9.53091 9.69585)">
<stop offset="0.353" stop-color="#3A8EE6"/>
<stop offset="0.472" stop-color="#5C79F0"/>
<stop offset="0.669" stop-color="#9059FF"/>
<stop offset="1" stop-color="#C139E6"/>
</radialGradient>
<radialGradient id="paint5_radial_1286_2371" cx="0" cy="0" r="1" gradientUnits="userSpaceOnUse" gradientTransform="translate(10.8895 8.89282) rotate(-13.8178) scale(5.05809 6.01266)">
<stop offset="0.206" stop-color="#9059FF" stop-opacity="0"/>
<stop offset="0.278" stop-color="#8C4FF3" stop-opacity="0.064"/>
<stop offset="0.747" stop-color="#7716A8" stop-opacity="0.45"/>
<stop offset="0.975" stop-color="#6E008B" stop-opacity="0.6"/>
</radialGradient>
<radialGradient id="paint6_radial_1286_2371" cx="0" cy="0" r="1" gradientUnits="userSpaceOnUse" gradientTransform="translate(9.54296 1.40369) scale(6.85652 6.97519)">
<stop stop-color="#FFE226"/>
<stop offset="0.121" stop-color="#FFDB27"/>
<stop offset="0.295" stop-color="#FFC82A"/>
<stop offset="0.502" stop-color="#FFA930"/>
<stop offset="0.732" stop-color="#FF7E37"/>
<stop offset="0.792" stop-color="#FF7139"/>
</radialGradient>
<radialGradient id="paint7_radial_1286_2371" cx="0" cy="0" r="1" gradientUnits="userSpaceOnUse" gradientTransform="translate(14.9319 -3.0202) scale(29.2537 29.76)">
<stop offset="0.113" stop-color="#FFF44F"/>
<stop offset="0.456" stop-color="#FF980E"/>
<stop offset="0.622" stop-color="#FF5634"/>
<stop offset="0.716" stop-color="#FF3647"/>
<stop offset="0.904" stop-color="#E31587"/>
</radialGradient>
<radialGradient id="paint8_radial_1286_2371" cx="0" cy="0" r="1" gradientUnits="userSpaceOnUse" gradientTransform="translate(12.4668 -1.36591) rotate(84.0778) scale(21.8078 14.074)">
<stop stop-color="#FFF44F"/>
<stop offset="0.06" stop-color="#FFE847"/>
<stop offset="0.168" stop-color="#FFC830"/>
<stop offset="0.304" stop-color="#FF980E"/>
<stop offset="0.356" stop-color="#FF8B16"/>
<stop offset="0.455" stop-color="#FF672A"/>
<stop offset="0.57" stop-color="#FF3647"/>
<stop offset="0.737" stop-color="#E31587"/>
</radialGradient>
<radialGradient id="paint9_radial_1286_2371" cx="0" cy="0" r="1" gradientUnits="userSpaceOnUse" gradientTransform="translate(9.38084 3.98746) scale(18.2636 18.5797)">
<stop offset="0.137" stop-color="#FFF44F"/>
<stop offset="0.48" stop-color="#FF980E"/>
<stop offset="0.592" stop-color="#FF5634"/>
<stop offset="0.655" stop-color="#FF3647"/>
<stop offset="0.904" stop-color="#E31587"/>
</radialGradient>
<radialGradient id="paint10_radial_1286_2371" cx="0" cy="0" r="1" gradientUnits="userSpaceOnUse" gradientTransform="translate(14.2028 5.07404) scale(19.9894 20.3353)">
<stop offset="0.094" stop-color="#FFF44F"/>
<stop offset="0.231" stop-color="#FFE141"/>
<stop offset="0.509" stop-color="#FFAF1E"/>
<stop offset="0.626" stop-color="#FF980E"/>
</radialGradient>
<linearGradient id="paint11_linear_1286_2371" x1="17.6532" y1="3.03766" x2="3.85756" y2="16.5983" gradientUnits="userSpaceOnUse">
<stop offset="0.167" stop-color="#FFF44F" stop-opacity="0.8"/>
<stop offset="0.266" stop-color="#FFF44F" stop-opacity="0.634"/>
<stop offset="0.489" stop-color="#FFF44F" stop-opacity="0.217"/>
<stop offset="0.6" stop-color="#FFF44F" stop-opacity="0"/>
</linearGradient>
</defs>
</svg>
