<svg width="194" height="143" viewBox="0 0 194 143" fill="none" xmlns="http://www.w3.org/2000/svg">
<path d="M132.642 104.126L129.224 105.042C129.285 104.228 129.797 103.572 130.628 103.35C131.458 103.127 132.217 103.392 132.642 104.126ZM69.2461 119.796C68.4155 120.018 67.9037 120.674 67.8421 121.488L71.2602 120.572C70.8352 119.838 70.1006 119.567 69.2461 119.796ZM98.9742 111.97C97.9659 112.24 97.4096 113.249 97.6754 114.241C97.9412 115.233 98.9275 115.829 99.9358 115.559C100.944 115.289 101.492 114.294 101.223 113.29C100.954 112.287 99.9598 111.706 98.9742 111.97ZM88.3996 114.803C87.414 115.067 86.832 116.071 87.1008 117.075C87.3696 118.078 88.377 118.656 89.3613 118.392C90.3457 118.128 90.9259 117.113 90.6601 116.121C90.3943 115.129 89.4079 114.533 88.3996 114.803ZM81.0545 116.632C80.2239 116.854 79.7121 117.51 79.6505 118.324L83.0686 117.408C82.6436 116.673 81.9091 116.403 81.0545 116.632ZM142.592 100.294C141.607 100.558 141.047 101.556 141.313 102.548C141.579 103.54 142.562 104.125 143.548 103.861C144.534 103.597 145.093 102.599 144.827 101.607C144.561 100.615 143.567 100.033 142.592 100.294ZM44.0675 124.429L42.4416 124.865L43.2992 128.065L44.925 127.63C45.922 127.362 46.4058 126.511 46.1591 125.591C45.9125 124.67 45.0645 124.162 44.0675 124.429ZM165.405 95.1561C167.422 102.682 162.926 110.424 155.362 112.45L45.8121 141.804C38.2486 143.831 30.4837 139.374 28.4673 131.849C26.4508 124.323 30.9469 116.581 38.5104 114.554L148.061 85.2003C155.624 83.1736 163.389 87.6306 165.405 95.1561ZM47.8569 125.136C47.3918 123.4 45.7127 122.357 43.7667 122.878L40.3486 123.794L42.6584 132.414L44.3435 131.963L43.7138 129.613L45.4342 129.152C47.3928 128.627 48.3146 126.849 47.8556 125.136L47.8569 125.136ZM55.7373 125.492C55.2437 123.65 53.3647 122.571 51.454 123.083C49.5433 123.595 48.4667 125.466 48.9603 127.308C49.4539 129.15 51.3089 130.235 53.2322 129.719C55.1556 129.204 56.2276 127.321 55.7373 125.492ZM65.4447 119.473L63.7836 119.918L63.5625 124.457L60.9477 120.678L59.4882 121.069L59.0834 125.633L56.6763 121.822L55.0152 122.267L58.8009 128.088L60.3675 127.668L60.7967 123.099L63.4416 126.844L64.9843 126.431L65.4473 119.472L65.4447 119.473ZM73.0635 120.798C72.5571 118.908 70.7982 117.9 68.8761 118.415C66.9541 118.93 65.9128 120.791 66.4094 122.644C66.906 124.498 68.6252 125.595 70.6896 125.042C72.1025 124.663 72.8488 123.844 73.2497 122.774L71.7 122.354C71.519 122.959 71.0973 123.427 70.3373 123.631C69.3882 123.885 68.5723 123.547 68.1366 122.778L73.2285 121.414L73.0638 120.799L73.0635 120.798ZM77.3514 118.143L77.5146 116.377C77.2032 116.309 76.7952 116.304 76.368 116.418C75.5487 116.638 75.0002 117.152 74.894 117.991L74.6313 117.01L73.0167 117.443L74.7254 123.819L76.3513 123.384L75.4494 120.018C75.1614 118.943 75.5932 118.372 76.4364 118.146C76.8045 118.047 77.1385 118.059 77.3511 118.141L77.3514 118.143ZM84.8719 117.634C84.3655 115.744 82.6066 114.736 80.6846 115.251C78.7625 115.766 77.7212 117.627 78.2178 119.48C78.7145 121.334 80.4336 122.431 82.4981 121.878C83.911 121.499 84.6572 120.68 85.0582 119.61L83.5085 119.19C83.3274 119.795 82.9057 120.263 82.1457 120.467C81.1966 120.721 80.3807 120.383 79.945 119.614L85.0369 118.25L84.8722 117.635L84.8719 117.634ZM90.5414 109.598L88.9268 110.03L89.9329 113.785C89.336 113.312 88.5405 113.146 87.6973 113.372C86.0601 113.81 84.9327 115.492 85.4771 117.523C86.0214 119.555 87.8736 120.437 89.4515 120.015C90.2821 119.792 90.9044 119.221 91.188 118.474L91.4222 119.348L93.0367 118.915L90.5404 109.599L90.5414 109.598ZM102.865 112.864C102.321 110.832 100.504 109.94 98.8907 110.373C98.0248 110.605 97.4172 111.185 97.1542 111.913L96.1324 108.1L94.5065 108.535L97.0028 117.851L98.6173 117.419L98.3801 116.533C98.9781 117.056 99.8269 117.234 100.681 117.005C102.259 116.583 103.411 114.895 102.866 112.864L102.865 112.864ZM108.799 107.856L107.09 108.314L106.613 112.846L103.851 109.182L102.106 109.649L106.317 115.064L106.28 115.352C106.162 116.194 105.875 116.549 105.294 116.705C104.926 116.804 104.613 116.724 104.323 116.547L103.729 118.124C104.296 118.339 105.038 118.407 105.715 118.225C107.067 117.863 107.608 117.123 107.835 115.316L108.8 107.856L108.799 107.856ZM117.372 103.154L111.794 104.649L114.104 113.269L115.789 112.818L114.855 109.334L118.747 108.291L118.33 106.732L114.438 107.775L113.903 105.78L117.795 104.737L117.371 103.155L117.372 103.154ZM120.881 104.619L119.207 105.067L120.916 111.444L122.59 110.995L120.881 104.619ZM120.613 102.767C120.448 102.153 119.901 101.819 119.272 101.988C118.643 102.156 118.348 102.717 118.512 103.33C118.676 103.943 119.218 104.255 119.835 104.09C120.453 103.924 120.775 103.37 120.613 102.767ZM126.612 103.223C126.3 103.155 125.892 103.15 125.465 103.264C124.646 103.484 124.097 103.998 123.991 104.836L123.728 103.856L122.114 104.288L123.822 110.665L125.448 110.23L124.546 106.864C124.258 105.789 124.69 105.218 125.533 104.992C125.901 104.893 126.235 104.904 126.448 104.987L126.611 103.222L126.612 103.223ZM134.445 104.351C133.938 102.461 132.18 101.453 130.258 101.968C128.335 102.483 127.294 104.344 127.791 106.197C128.287 108.051 130.007 109.148 132.071 108.595C133.484 108.216 134.23 107.397 134.631 106.327L133.081 105.907C132.9 106.512 132.479 106.98 131.719 107.184C130.77 107.438 129.954 107.1 129.519 106.331L134.611 104.967L134.446 104.352L134.445 104.351ZM137.506 97.0256L137.079 97.1401C134.99 97.6997 134.508 98.5117 135.062 100.578L135.122 100.803L134.066 101.086L134.458 102.551L135.514 102.268L136.831 107.18L138.456 106.744L137.14 101.832L138.683 101.419L138.29 99.9538L136.748 100.367L136.665 100.06C136.406 99.0918 136.493 98.8912 137.632 98.5859L137.906 98.5126L137.507 97.0253L137.506 97.0256ZM146.456 101.184C145.963 99.3416 144.084 98.263 142.173 98.775C140.262 99.287 139.186 101.157 139.679 103C140.173 104.842 142.028 105.927 143.951 105.411C145.875 104.896 146.947 103.013 146.456 101.184ZM154.003 102.578L150.685 99.9741L152.128 96.246L150.206 96.761L149.36 99.0132L147.513 97.4827L145.567 98.0042L148.666 100.502L147.145 104.414L149.115 103.887L150.016 101.507L152.023 103.108L154.004 102.577L154.003 102.578ZM51.8733 124.602C50.8877 124.867 50.3284 125.865 50.5942 126.856C50.8599 127.848 51.8433 128.433 52.8289 128.169C53.8145 127.905 54.3739 126.907 54.1081 125.915C53.8423 124.923 52.8476 124.341 51.8733 124.602ZM41.889 108.782L53.8991 105.564C60.1505 103.889 63.4036 100.27 63.0046 95.4481C62.7346 92.167 61.2591 90.3003 59.0777 89.4291C60.7169 87.8179 61.5986 85.8048 61.3995 83.3931C60.985 78.2112 56.4144 75.3956 50.5801 76.9589L39.3653 79.9639L41.889 108.782ZM51.7914 94.2094C54.6323 93.4482 55.9311 94.3529 56.0728 96.0918C56.1847 97.719 55.1968 99.0335 52.5437 99.7443L47.8085 101.013L47.3206 95.406L51.7911 94.2082L51.7914 94.2094ZM51.2054 82.9324C53.5547 82.3029 54.7464 83.1153 54.8301 84.7891C54.9265 86.0563 54.2238 87.3763 51.7233 88.0463L46.7977 89.3661L46.3555 84.232L51.2054 82.9324ZM64.7723 102.65L71.1372 100.945L68.406 69.8398L62.1167 71.525L64.7723 102.65ZM82.6519 98.3032C85.0769 97.6534 86.7059 96.0045 87.5571 93.8773L87.7687 96.4872L93.9446 94.8324L92.0899 73.5124L85.8007 75.1976L86.0552 78.1186C84.5444 76.4226 82.2789 75.6964 79.3246 76.488C74.1722 77.8685 70.873 82.8332 71.4416 88.7412C71.9739 95.4265 76.8189 99.8661 82.6532 98.3028L82.6519 98.3032ZM83.2744 91.834C80.4335 92.5952 78.0616 90.5641 77.7794 87.6909C77.4845 85.2242 79.0251 82.7913 81.5635 82.1111C84.3287 81.3702 86.7738 83.2204 87.0106 86.2268C87.2122 88.7991 85.6994 91.1842 83.2744 91.834ZM105.611 92.1513C111.067 90.6894 113.408 87.1536 113.084 83.5225C112.648 78.7109 108.397 78.1523 105.068 78.1559C102.489 78.0794 101.004 77.9922 100.905 77.1705C100.807 76.3488 101.433 75.6555 102.683 75.3205C104.502 74.8331 106.47 75.3569 107.616 76.3011L111.443 71.6398C109.069 70.0542 105.351 69.5141 101.487 70.5496C96.8652 71.788 93.9776 75.1074 94.2904 78.6996C94.6794 83.4838 98.8593 83.7777 102.274 83.7928C104.482 83.8478 106.384 83.8234 106.505 84.8809C106.596 85.8256 105.913 86.6147 104.663 86.9497C102.693 87.4776 100.354 86.9322 98.8212 85.6065L94.583 90.7017C97.1314 92.4839 100.837 93.4306 105.611 92.1513ZM113.02 73.884L116.657 72.9094L117.219 79.1014C117.795 86.099 119.82 87.8991 126.753 86.0413L128.685 85.5236L128.161 79.3215L127.252 79.565C123.994 80.438 123.476 80.1723 123.277 77.1557L122.757 71.2748L127.341 70.0466L126.832 64.2033L122.248 65.4315L121.523 56.818L115.736 62.0448L116.148 67.0661L112.548 68.0306L113.02 73.884ZM151.596 79.7894C159.475 77.678 164.091 70.5019 163.392 62.8922C162.591 54.299 154.969 48.5835 146.407 50.8776C138.792 52.918 133.874 60.1752 134.573 67.7849C135.374 76.3781 142.958 82.1038 151.596 79.7894ZM150.388 73.1642C145.652 74.433 141.778 71.1891 141.363 66.6133C141.033 62.5003 143.321 58.6143 147.527 57.4873C152.264 56.2182 156.175 59.4524 156.562 64.0759C156.93 68.1787 154.594 72.0373 150.388 73.1642ZM163.931 60.3633L166.925 59.5612L168.278 74.915L174.605 73.2196L173.214 57.876L177.874 56.6275L177.372 50.6612L172.674 51.9199L172.634 51.1633C172.435 48.7516 172.965 48.0033 174.897 47.4856L177.018 46.9172L176.496 40.8757L173.882 41.5761C167.176 43.3731 165.682 45.0665 166.4 53.3578L166.423 53.5937L163.429 54.3957L163.931 60.362L163.931 60.3633ZM179.222 56.2661L182.216 55.4641L183.568 70.8178L189.895 69.1225L188.505 53.7788L193.164 52.5303L192.663 46.564L187.965 47.8227L187.925 47.0661C187.725 44.6544 188.256 43.9061 190.188 43.3884L192.309 42.8201L191.787 36.7785L189.173 37.4789C182.467 39.2759 180.973 40.9693 181.691 49.2606L181.713 49.4965L178.72 50.2986L179.222 56.2649L179.222 56.2661ZM36.4625 68.4851C36.8616 73.3069 33.6072 76.9262 27.357 78.6009L15.3469 81.819L12.8233 53.0009L24.0381 49.9959C29.8723 48.4326 34.4442 51.2479 34.8575 56.4301C35.0565 58.8418 34.1748 60.8549 32.5357 62.4662C34.718 63.3357 36.1922 65.2027 36.4622 68.4839L36.4625 68.4851ZM25.2481 67.2468L20.7776 68.4447L21.2652 74.0505L26.0004 72.7817C28.6522 72.0712 29.6397 70.7555 29.5295 69.1291C29.3875 67.389 28.0903 66.4852 25.2481 67.2468ZM24.6637 55.9707L19.8138 57.2702L20.256 62.4044L25.1815 61.0846C27.6821 60.4145 28.3848 59.0946 28.2884 57.8274C28.2056 56.152 27.013 55.3412 24.6637 55.9707ZM39.9366 51.5948C42.1334 51.0061 43.2583 49.2907 43.1213 47.267C42.9525 44.9682 41.1014 43.3634 38.6764 44.0131C36.7443 44.5309 35.3168 46.3273 35.4639 48.3887C35.6907 50.7526 37.5885 52.2239 39.9366 51.5948ZM36.6025 54.3066L38.4193 75.6368L44.8598 73.9111L43.0052 52.591L36.6025 54.3066ZM43.6826 42.3895L46.3382 73.5149L52.7031 71.8095L49.9719 40.7043L43.6826 42.3895ZM51.5247 40.2882L54.1803 71.4137L60.5451 69.7082L57.8139 38.603L51.5247 40.2882ZM63.5395 45.2704C65.7364 44.6817 66.8613 42.9663 66.7243 40.9426C66.5555 38.6438 64.7044 37.039 62.2794 37.6887C60.3473 38.2065 58.9198 40.0029 59.0669 42.0643C59.2937 44.4282 61.1915 45.8995 63.5395 45.2704ZM60.2055 47.9822L62.0223 69.3124L68.4628 67.5867L66.6082 46.2666L60.2055 47.9822ZM90.6576 52.0644C91.0759 57.5679 87.9346 62.8141 81.721 64.479C74.4852 66.4179 69.2343 61.5225 68.7171 55.1961C68.319 49.7679 71.7262 44.4504 77.6739 42.8567C84.8719 40.928 90.1404 45.738 90.6576 52.0644ZM78.8399 48.7257C76.5662 49.3349 74.8618 51.6101 75.0937 54.2953C75.3759 57.1685 77.7302 59.285 80.5711 58.5238C82.8826 57.9044 84.5214 55.6871 84.2896 53.0019C84.0452 50.1185 81.7388 48.0296 78.8396 48.7244L78.8399 48.7257ZM102.489 36.2074C99.951 36.8876 98.3673 38.4033 97.433 40.6738L97.2214 38.0639L90.9321 39.7491L92.7489 61.0792L99.076 59.3839L98.1518 47.7526C97.8595 44.8417 98.8694 43.1558 100.953 42.5976C103.036 42.0393 104.32 43.19 104.542 45.8375L105.478 57.667L111.957 55.9312L110.909 43.6866C110.457 37.9084 106.922 35.0184 102.489 36.2061L102.489 36.2074ZM132.833 28.5217L134.688 49.8417L128.512 51.4965L128.3 48.8866C127.449 51.0138 125.82 52.6627 123.395 53.3125C117.561 54.8758 112.716 50.4361 112.184 43.7509C111.615 37.8428 114.914 32.8782 120.067 31.4976C123.022 30.7057 125.288 31.432 126.797 33.1283L126.543 30.2072L132.832 28.522L132.833 28.5217ZM122.305 37.1195C119.767 37.7997 118.226 40.2326 118.521 42.6993C118.803 45.5725 121.175 47.6036 124.016 46.8424C126.441 46.1926 127.954 43.8075 127.752 41.2352C127.515 38.2275 125.07 36.3786 122.305 37.1195ZM134.501 28.0749L136.317 49.4051L142.758 47.6793L140.903 26.3593L134.501 28.0749ZM137.835 25.363C140.033 24.774 141.156 23.059 141.019 21.0352C140.851 18.7364 139 17.1316 136.575 17.7814C134.642 18.2991 133.215 20.0956 133.362 22.1569C133.589 24.5209 135.487 25.9922 137.835 25.363ZM177.302 28.0808L177.461 29.7343L162.231 33.8152C163.249 35.6432 165.248 36.4408 167.711 35.7809C169.378 35.3341 170.623 34.0717 171.324 32.5911L177.145 34.4653C175.756 37.4638 173.293 39.9423 168.861 41.13C161.776 43.0283 156.322 38.5906 155.745 32.0384C155.665 31.1027 155.696 30.1898 155.825 29.3098L154.083 29.7766C150.559 30.7208 149.694 31.8815 150.012 35.7962L150.829 45.5166L144.389 47.2423L142.572 25.9122L148.559 24.308L148.869 28.3457C149.385 25.42 150.833 23.6988 153.371 23.0186L156.136 22.2777L156.506 26.755C157.892 23.24 160.959 20.5404 164.853 19.4972C171.369 17.7512 176.752 21.9244 177.304 28.0801L177.302 28.0808ZM170.638 26.5532C169.842 24.948 168.223 24.211 165.875 24.8402C163.527 25.4693 162.19 26.9995 161.697 28.9489L170.638 26.5532ZM37.2937 110.013C27.2094 112.715 16.8552 106.772 14.1668 96.7386C16.8552 106.772 10.8599 117.096 0.775643 119.798C10.8599 117.096 21.2141 123.039 23.9025 133.073C21.2141 123.039 27.2094 112.715 37.2937 110.013ZM188.563 8.33625C182.513 9.95729 176.301 6.39222 174.687 0.371597C176.3 6.39097 172.704 12.5857 166.653 14.2071C172.703 12.5861 178.916 16.1511 180.529 22.1718C178.916 16.1524 182.512 9.95763 188.563 8.33625Z" fill="#F8F6F4"/>
</svg>
