<svg width="128" height="16" viewBox="0 0 128 16" fill="none" xmlns="http://www.w3.org/2000/svg">
<path d="M51.1097 15.4316H49.1769L47.259 8.51823H47.1996V15.4316H45.1181V6.06509H48.6268L50.2771 12.3243H50.3217L51.8977 6.06509H55.3321V15.4316H53.0722V8.51823H53.0128L51.1097 15.4316ZM58.143 12.131C58.143 13.2312 58.5742 13.9895 59.5257 13.9895C60.4623 13.9895 60.9232 13.2312 60.9232 12.131C60.9232 11.0308 60.4623 10.2726 59.5257 10.2726C58.5742 10.2726 58.143 11.0308 58.143 12.131ZM63.0939 12.131C63.0939 14.1828 61.6369 15.6101 59.5257 15.6101C57.4145 15.6101 55.9723 14.1828 55.9723 12.131C55.9723 10.0942 57.4145 8.65204 59.5257 8.65204C61.6369 8.65204 63.0939 10.0942 63.0939 12.131ZM65.8212 12.0716V15.4316H63.6802V8.83045H65.8212V9.85631C66.178 9.1278 66.9808 8.65204 67.977 8.65204C69.7611 8.65204 70.3558 9.88605 70.3558 11.2985V15.4316H68.2148V11.8188C68.2148 10.8673 67.9026 10.3469 67.1146 10.3469C66.2523 10.3469 65.8212 11.0308 65.8212 12.0716ZM76.0216 12.2054V12.0567C76.0216 11.0011 75.412 10.3321 74.5348 10.3321C73.509 10.3321 73.0332 11.0606 73.0332 12.131C73.0332 13.2164 73.509 13.9449 74.5348 13.9449C75.412 13.9449 76.0216 13.2758 76.0216 12.2054ZM76.0216 15.4316V14.2571C75.7094 15.0302 74.9362 15.6101 73.8063 15.6101C71.8587 15.6101 70.8625 14.0787 70.8625 12.131C70.8625 10.1983 71.8587 8.65204 73.8063 8.65204C74.9362 8.65204 75.7094 9.23188 76.0216 10.0199V6.06509H78.1774V15.4316H76.0216ZM80.9066 12.131C80.9066 13.2312 81.3378 13.9895 82.2893 13.9895C83.2259 13.9895 83.6868 13.2312 83.6868 12.131C83.6868 11.0308 83.2259 10.2726 82.2893 10.2726C81.3378 10.2726 80.9066 11.0308 80.9066 12.131ZM85.8575 12.131C85.8575 14.1828 84.4005 15.6101 82.2893 15.6101C80.1781 15.6101 78.7359 14.1828 78.7359 12.131C78.7359 10.0942 80.1781 8.65204 82.2893 8.65204C84.4005 8.65204 85.8575 10.0942 85.8575 12.131ZM96.9951 15.4316H94.7055C94.5123 15.1789 94.3933 14.5693 94.319 13.5732C94.2446 12.5176 93.7689 12.1756 92.8322 12.1756H90.944V15.4316H88.7288V6.06509H93.2485C95.6719 6.06509 96.8613 7.19502 96.8613 8.994C96.8613 10.3767 95.9841 11.239 94.8393 11.3877C95.8355 11.5809 96.4004 12.1608 96.5045 13.261C96.6383 14.6437 96.6829 15.0897 96.9951 15.4316ZM90.944 10.4361H92.8917C94.0662 10.4361 94.6461 10.0942 94.6461 9.17241C94.6461 8.33982 94.0662 7.87893 92.8917 7.87893H90.944V10.4361ZM99.3145 12.131C99.3145 13.2312 99.7456 13.9895 100.697 13.9895C101.634 13.9895 102.095 13.2312 102.095 12.131C102.095 11.0308 101.634 10.2726 100.697 10.2726C99.7456 10.2726 99.3145 11.0308 99.3145 12.131ZM104.265 12.131C104.265 14.1828 102.808 15.6101 100.697 15.6101C98.586 15.6101 97.1438 14.1828 97.1438 12.131C97.1438 10.0942 98.586 8.65204 100.697 8.65204C102.808 8.65204 104.265 10.0942 104.265 12.131ZM106.993 12.0567V12.2054C106.993 13.2758 107.602 13.9449 108.494 13.9449C109.505 13.9449 109.996 13.2164 109.996 12.131C109.996 11.0606 109.505 10.3321 108.494 10.3321C107.602 10.3321 106.993 11.0011 106.993 12.0567ZM106.889 14.2422L106.502 15.4316H104.852V6.06509H106.993V10.0199C107.32 9.23188 108.078 8.65204 109.223 8.65204C111.156 8.65204 112.167 10.1983 112.167 12.131C112.167 14.0787 111.156 15.6101 109.178 15.6101C108.078 15.6101 107.245 15.0451 106.889 14.2422ZM114.582 12.131C114.582 13.2312 115.013 13.9895 115.965 13.9895C116.901 13.9895 117.362 13.2312 117.362 12.131C117.362 11.0308 116.901 10.2726 115.965 10.2726C115.013 10.2726 114.582 11.0308 114.582 12.131ZM119.533 12.131C119.533 14.1828 118.076 15.6101 115.965 15.6101C113.854 15.6101 112.411 14.1828 112.411 12.131C112.411 10.0942 113.854 8.65204 115.965 8.65204C118.076 8.65204 119.533 10.0942 119.533 12.131ZM120.357 13.6624V10.3321H119.435V9.02373L119.911 8.94939C120.565 8.83045 120.759 8.4885 120.922 7.87893L121.145 7.00174H122.468V8.83045H124.223V10.3321H122.468V13.0826C122.468 13.6475 122.736 13.8854 123.242 13.8854C123.569 13.8854 123.911 13.7962 124.312 13.6178V15.0302C123.821 15.4019 123.256 15.6101 122.394 15.6101C121.324 15.6101 120.357 15.1492 120.357 13.6624Z" fill="white"/>
<path d="M12.8182 1.06439C12.8182 1.02147 12.7752 1.02148 12.7323 1.02148H8.78364C8.74072 1.02148 8.74072 1.06439 8.74072 1.06439L15.7797 15.0136C15.7797 15.0565 15.8226 15.0565 15.8655 15.0565H19.8142C19.8571 15.0565 19.8571 15.0136 19.8571 15.0136L12.8182 1.06439Z" fill="white"/>
<path d="M5.39251 1.06439C5.39251 1.02147 5.34959 1.02148 5.30667 1.02148H0.199121C0.1562 1.02148 0.113281 1.10732 0.113281 1.15024L0.370807 1.62238C0.370807 1.6653 0.413722 1.7082 0.499563 1.7082H1.27213C1.52966 1.7082 1.74426 1.83698 1.87303 2.05159L8.43986 15.0565C8.43986 15.0994 8.48279 15.0994 8.52571 15.0994H12.4315C12.4744 15.0994 12.4744 15.0565 12.4744 15.0136L5.39251 1.06439Z" fill="white"/>
<path d="M20.2433 1.06439C20.2433 1.02147 20.2004 1.02148 20.1575 1.02148H16.2088C16.1659 1.02148 16.1659 1.06439 16.1659 1.06439L23.2049 15.0136C23.2049 15.0565 23.2478 15.0565 23.2907 15.0565H27.2394C27.2823 15.0565 27.2823 15.0136 27.2823 15.0136L20.2433 1.06439Z" fill="white"/>
<path d="M35.9094 14.9277L35.6519 14.4555C35.6519 14.4126 35.6089 14.3697 35.5231 14.3697H34.7934C34.493 14.3697 34.2355 14.241 34.1067 13.9834L31.231 8.275C31.1881 8.23208 31.231 8.14622 31.3169 8.14622C31.7032 8.01746 32.0465 7.8887 32.347 7.71702C33.5058 7.11613 34.2784 5.91437 34.2784 4.54091C34.2784 2.56657 32.6903 0.978516 30.716 0.978516H23.677C23.6341 0.978516 23.5912 1.06435 23.5912 1.10727L23.8487 1.57939C23.8487 1.62231 23.8916 1.66523 23.9775 1.66523H27.454C28.7416 1.66523 29.8147 2.52365 30.158 3.6825C30.158 3.72542 30.158 3.72543 30.2009 3.76835C30.2439 4.02587 30.2868 4.24045 30.2868 4.49798C30.2439 6.04312 28.9992 7.2449 27.454 7.2449C27.2394 7.2449 27.0248 7.20197 26.8102 7.15905C26.7673 7.15905 26.7244 7.20198 26.7673 7.2449L30.6302 14.9277C30.6731 14.9706 30.716 15.0135 30.8018 15.0135H35.8235C35.8665 15.0564 35.9094 15.0135 35.9094 14.9277Z" fill="white"/>
</svg>
