<svg width="82" height="82" viewBox="0 0 82 82" fill="none" xmlns="http://www.w3.org/2000/svg">
<path d="M0 40.9199C0 26.3457 7.6875 12.8926 20.5 5.52539C33.1523 -1.8418 48.6875 -1.8418 61.5 5.52539C74.1523 12.8926 82 26.3457 82 40.9199C82 55.6543 74.1523 69.1074 61.5 76.4746C48.6875 83.8418 33.1523 83.8418 20.5 76.4746C7.6875 69.1074 0 55.6543 0 40.9199Z" fill="#53FFBC"/>
<path d="M0 40.9199C0 26.3457 7.6875 12.8926 20.5 5.52539C33.1523 -1.8418 48.6875 -1.8418 61.5 5.52539C74.1523 12.8926 82 26.3457 82 40.9199C82 55.6543 74.1523 69.1074 61.5 76.4746C48.6875 83.8418 33.1523 83.8418 20.5 76.4746C7.6875 69.1074 0 55.6543 0 40.9199ZM30.1094 23.623C28.8281 24.2637 28.1875 25.5449 28.1875 26.8262V55.0137C28.1875 56.4551 28.8281 57.7363 30.1094 58.377C31.2305 59.1777 32.832 59.0176 33.9531 58.377L57.0156 44.2832C58.1367 43.4824 58.9375 42.3613 58.9375 40.9199C58.9375 39.6387 58.1367 38.3574 57.0156 37.7168L33.9531 23.623C32.832 22.8223 31.2305 22.8223 30.1094 23.4629V23.623Z" fill="#333336"/>
</svg>
