<svg width="21" height="20" viewBox="0 0 21 20" fill="none" xmlns="http://www.w3.org/2000/svg">
<path d="M6.96094 9.25781C6.82031 9.65625 6.375 9.86719 6 9.72656C5.60156 9.58594 5.39062 9.16406 5.53125 8.76562C5.78906 8.03906 6.21094 7.35938 6.77344 6.79688C8.83594 4.75781 12.1406 4.75781 14.2031 6.79688L14.6016 7.21875V6.375C14.6016 5.97656 14.9531 5.625 15.3516 5.625C15.7734 5.625 16.1016 5.97656 16.1016 6.375V9C16.1016 9.42188 15.7734 9.75 15.3516 9.75H12.75C12.3281 9.75 12 9.42188 12 9C12 8.60156 12.3281 8.25 12.75 8.25H13.5469L13.1484 7.85156C11.6719 6.39844 9.30469 6.39844 7.82812 7.85156C7.42969 8.27344 7.125 8.74219 6.96094 9.25781ZM5.41406 11.2969C5.4375 11.2734 5.48438 11.2734 5.50781 11.2734C5.55469 11.2734 5.57812 11.25 5.625 11.25H8.25C8.64844 11.25 9 11.6016 9 12C9 12.4219 8.64844 12.75 8.25 12.75H7.42969L7.82812 13.1484V13.1719C9.30469 14.625 11.6719 14.625 13.1484 13.1719C13.5469 12.75 13.8516 12.2812 14.0156 11.7656C14.1562 11.3672 14.6016 11.1562 14.9766 11.2969C15.375 11.4375 15.5859 11.8594 15.4453 12.2578C15.1875 12.9844 14.7656 13.6406 14.2031 14.2266C12.1406 16.2656 8.83594 16.2656 6.77344 14.2266L6.375 13.8047V14.625C6.375 15.0469 6.02344 15.375 5.625 15.375C5.20312 15.375 4.875 15.0469 4.875 14.625V12.0234C4.875 11.9766 4.875 11.9297 4.875 11.9062C4.875 11.8594 4.875 11.8359 4.89844 11.8125C4.92188 11.6953 4.99219 11.5781 5.08594 11.4844C5.17969 11.3906 5.29688 11.3203 5.41406 11.2969Z" fill="#53FFBC"/>
</svg>
