<svg width="124" height="77" viewBox="0 0 124 77" fill="none" xmlns="http://www.w3.org/2000/svg">
<path d="M24.5657 29.8037L-3.48091e-05 38.3199L13.1647 54.9238L13.1018 76.1133L37.6675 67.5971L24.5657 29.8037Z" fill="#53FFBC"/>
<rect width="65" height="40" transform="translate(24.5657 29.8037) rotate(-19.1199)" fill="#53FFBC"/>
<path d="M41.559 51.4308L37.255 39.0157L40.3503 37.9427L47.6096 43.7704L45.0272 36.3213L47.8504 35.3426L52.1544 47.7577L49.2802 48.7541L41.693 42.64L44.3991 50.4462L41.559 51.4308ZM54.0319 47.1068L49.7279 34.6917L58.2995 31.7202L59.2546 34.4753L53.6423 36.421L54.3498 38.4618L59.9621 36.5162L60.9172 39.2713L55.3049 41.217L56.036 43.3258L61.6483 41.3802L62.6034 44.1353L54.0319 47.1068ZM67.2219 42.5342L59.4995 31.3042L62.5098 30.2606L67.1187 37.2358L66.6085 28.8397L69.4487 27.8551L74.2506 34.7824L73.5473 26.4342L76.5236 25.4024L77.3581 39.0203L74.5009 40.0108L69.6119 32.9423L70.1811 41.5084L67.2219 42.5342ZM81.456 33.218C80.3338 31.2447 79.3882 29.2864 78.5981 27.0075L77.8788 24.9326L80.838 23.9067L81.5573 25.9816C82.3474 28.2605 82.8109 30.3669 83.1737 32.6225L81.456 33.218ZM81.4828 35.933C81.1408 34.9466 81.5794 34.0135 82.5658 33.6715C83.5522 33.3295 84.4742 33.791 84.8162 34.7774C85.1581 35.7638 84.7137 36.6799 83.7273 37.0219C82.7238 37.3697 81.8247 36.9194 81.4828 35.933Z" fill="#333336"/>
<path d="M85.98 8.51367L110.546 -0.00254738L110.483 21.187L123.648 37.7909L99.0819 46.3071L85.98 8.51367Z" fill="#53FFBC"/>
</svg>
