<svg width="21" height="20" viewBox="0 0 21 20" fill="none" xmlns="http://www.w3.org/2000/svg">
<path d="M11.6953 5.32031C11.9531 5.20312 12.2812 5.25 12.4922 5.46094L16.2422 8.83594C16.4062 8.97656 16.5 9.16406 16.5 9.375C16.5 9.60938 16.4062 9.79688 16.2422 9.9375L12.4922 13.3125C12.2812 13.5234 11.9531 13.5703 11.6953 13.4531C11.4141 13.3359 11.25 13.0547 11.25 12.75V11.25H9C7.75781 11.25 6.75 12.2578 6.75 13.5C6.75 14.2266 7.03125 14.625 7.26562 14.8359C7.38281 14.9531 7.5 15.1172 7.5 15.3047C7.5 15.5625 7.28906 15.75 7.03125 15.75C6.96094 15.75 6.89062 15.75 6.84375 15.7266C6.39844 15.4688 4.5 14.2969 4.5 11.625C4.5 9.35156 6.32812 7.5 8.625 7.5H11.25V6C11.25 5.71875 11.4141 5.4375 11.6953 5.32031Z" fill="#53FFBC"/>
</svg>
