<svg width="32" height="33" viewBox="0 0 32 33" fill="none" xmlns="http://www.w3.org/2000/svg">
<path d="M16 0.652344C24.8366 0.652344 32 7.81579 32 16.6523C32 25.4889 24.8366 32.6523 16 32.6523C7.16344 32.6523 0 25.4889 0 16.6523C0 7.81579 7.16344 0.652344 16 0.652344ZM16.5361 14.7822L16.5283 19.4668C16.5322 19.5016 16.5361 19.5404 16.5361 19.5752C16.5361 20.7481 15.4846 21.7049 14.1875 21.7051C12.8903 21.7051 11.8379 20.7517 11.8379 19.5752C11.8379 18.4021 12.8902 17.4453 14.1875 17.4453C14.456 17.4454 14.7173 17.4899 14.959 17.5664V15.2275C14.7096 15.1893 14.4522 15.168 14.1875 15.168C11.5126 15.1714 9.33231 17.1487 9.33203 19.5781C9.33203 22.0078 11.5125 23.9854 14.1914 23.9854C16.8702 23.9851 19.0498 22.0076 19.0498 19.5781V14.0059C20.0208 14.8865 21.2758 15.7464 22.665 16.0215V13.6299C21.1568 13.0241 19.6562 11.2346 19.1611 10.5176L18.7891 9.98535H16.5361V14.7822Z" fill="#53FFBC"/>
</svg>
