<svg width="32" height="33" viewBox="0 0 32 33" fill="none" xmlns="http://www.w3.org/2000/svg">
<path d="M16 0.652344C24.8366 0.652344 32 7.81579 32 16.6523C32 25.4889 24.8366 32.6523 16 32.6523C7.16344 32.6523 0 25.4889 0 16.6523C2.57703e-07 7.81579 7.16344 0.652344 16 0.652344ZM6.96875 11.458V24.8135H11.5576V27.3193H14.0635L16.5664 24.8135H20.3213L25.3301 19.8066V8.11914H8.2207L6.96875 11.458Z" fill="#53FFBC"/>
<path d="M23.6614 18.9697L20.7396 21.8916H16.1497L13.6468 24.3945V21.8916H9.88898V9.78711H23.6614V18.9697ZM14.4798 18.1357H16.1497V13.1279H14.4798V18.1357ZM19.0696 18.1357H20.7396V13.1279H19.0696V18.1357Z" fill="#53FFBC"/>
</svg>
