<svg width="32" height="33" viewBox="0 0 32 33" fill="none" xmlns="http://www.w3.org/2000/svg">
<path d="M16 0.652344C24.8366 0.652344 32 7.81579 32 16.6523C32 25.4889 24.8366 32.6523 16 32.6523C7.16344 32.6523 0 25.4889 0 16.6523C2.57703e-07 7.81579 7.16344 0.652344 16 0.652344ZM16 10.7861C16 10.7861 10.6629 10.7861 9.33203 11.1523C8.5978 11.3539 8.01949 11.9473 7.82324 12.7012C7.46767 14.064 7.4668 16.9033 7.4668 16.9189C7.4668 16.9189 7.46672 19.77 7.82324 21.1367C8.0195 21.8907 8.5977 22.4849 9.33203 22.6865C10.6629 23.0526 16 23.0527 16 23.0527C16.0016 23.0527 21.3374 23.0526 22.668 22.6865C23.4023 22.4849 23.9805 21.8907 24.1768 21.1367C24.5334 19.77 24.5332 16.9189 24.5332 16.9189C24.5332 16.9033 24.5324 14.064 24.1768 12.7012C23.9805 11.9473 23.4022 11.3539 22.668 11.1523C21.3374 10.7862 16.0016 10.7861 16 10.7861Z" fill="#53FFBC"/>
<path d="M14.4 19.8529V14.5195L18.6667 17.1863L14.4 19.8529Z" fill="#53FFBC"/>
</svg>
