<svg width="32" height="33" viewBox="0 0 32 33" fill="none" xmlns="http://www.w3.org/2000/svg">
<path d="M16 0.5C24.8366 0.5 32 7.66344 32 16.5C32 25.3366 24.8366 32.5 16 32.5C7.16344 32.5 0 25.3366 0 16.5C2.57703e-07 7.66344 7.16344 0.5 16 0.5ZM15.9971 7.9668C13.6814 7.9668 13.3904 7.97715 12.4805 8.01855C11.572 8.06015 10.9518 8.20401 10.4092 8.41504C9.84804 8.63297 9.3717 8.92406 8.89746 9.39844C8.42286 9.87268 8.13174 10.3492 7.91309 10.9102C7.70153 11.4529 7.55749 12.0733 7.5166 12.9814C7.47589 13.8916 7.46484 14.1827 7.46484 16.5C7.46484 18.8172 7.47537 19.1076 7.5166 20.0176C7.55838 20.926 7.70226 21.5463 7.91309 22.0889C8.13122 22.6501 8.42297 23.1263 8.89746 23.6006C9.37155 24.0752 9.84736 24.368 10.4082 24.5859C10.9511 24.7969 11.5714 24.9408 12.4795 24.9824C13.3897 25.0238 13.6807 25.0332 15.998 25.0332C18.3155 25.0332 18.6056 25.0238 19.5156 24.9824C20.424 24.9408 21.045 24.7969 21.5879 24.5859C22.149 24.368 22.6245 24.0753 23.0986 23.6006C23.5733 23.1263 23.8653 22.6499 24.084 22.0889C24.2936 21.5463 24.4368 20.9261 24.4795 20.0186C24.5204 19.1083 24.5312 18.8175 24.5312 16.5C24.5312 14.1827 24.5204 13.8916 24.4795 12.9814C24.4368 12.0731 24.2938 11.4527 24.084 10.9102C23.8653 10.349 23.5733 9.87272 23.0986 9.39844C22.6241 8.92399 22.1494 8.63277 21.5879 8.41504C21.0439 8.20402 20.4231 8.06016 19.5146 8.01855C18.6045 7.97714 18.3146 7.9668 15.9971 7.9668Z" fill="#53FFBC"/>
<path d="M15.2344 9.50439C15.4615 9.50404 15.7153 9.50439 16 9.50439C18.2776 9.5044 18.548 9.51236 19.4473 9.55322C20.2793 9.59127 20.7314 9.73037 21.0322 9.84717C21.4305 10.0018 21.7142 10.1872 22.0127 10.4858C22.3114 10.7845 22.4963 11.0691 22.6514 11.4673C22.7682 11.7677 22.9075 12.2194 22.9453 13.0513C22.9862 13.9507 22.9951 14.2213 22.9951 16.4985C22.9951 18.7756 22.9862 19.0463 22.9453 19.9458C22.9072 20.7776 22.7681 21.2294 22.6514 21.5298C22.4968 21.9278 22.3112 22.2109 22.0127 22.5093C21.714 22.8079 21.4306 22.9933 21.0322 23.1479C20.7318 23.2653 20.2793 23.4038 19.4473 23.4419C18.5481 23.4828 18.2776 23.4917 16 23.4917C13.7218 23.4917 13.451 23.4828 12.5518 23.4419C11.7198 23.4035 11.2678 23.2647 10.9668 23.1479C10.5686 22.9933 10.284 22.8079 9.98535 22.5093C9.68678 22.2107 9.50167 21.9271 9.34668 21.5288C9.22988 21.2284 9.09061 20.7768 9.05273 19.9448C9.01185 19.0453 9.00391 18.7749 9.00391 16.4966C9.00391 14.2181 9.01186 13.9486 9.05273 13.0493C9.09078 12.2173 9.22988 11.7652 9.34668 11.4644C9.50134 11.0662 9.68672 10.7815 9.98535 10.4829C10.284 10.1843 10.5686 9.99924 10.9668 9.84424C11.2676 9.72692 11.7199 9.58851 12.5518 9.55029C13.3386 9.51475 13.6443 9.50422 15.2344 9.50244V9.50439ZM15.999 12.1177C13.5791 12.118 11.6172 14.0805 11.6172 16.5005C11.6173 18.9205 13.58 20.8813 16 20.8813C18.4198 20.8811 20.3807 18.9203 20.3809 16.5005C20.3809 14.0804 18.4191 12.1177 15.999 12.1177ZM20.5557 10.9214C19.9904 10.9214 19.5313 11.3793 19.5312 11.9448C19.5312 12.5102 19.9903 12.9692 20.5557 12.9692C21.1208 12.969 21.5791 12.51 21.5791 11.9448C21.5791 11.3797 21.1208 10.9216 20.5557 10.9214Z" fill="#53FFBC"/>
<path d="M16.0008 13.6555C17.5717 13.6555 18.8453 14.929 18.8453 16.5C18.8453 18.0709 17.5717 19.3445 16.0008 19.3445C14.4298 19.3445 13.1564 18.0709 13.1564 16.5C13.1564 14.929 14.4298 13.6555 16.0008 13.6555Z" fill="#53FFBC"/>
</svg>
