<svg width="32" height="33" viewBox="0 0 32 33" fill="none" xmlns="http://www.w3.org/2000/svg">
<path d="M16 0.5C24.8366 0.5 32 7.66344 32 16.5C32 25.3366 24.8366 32.5 16 32.5C7.16344 32.5 0 25.3366 0 16.5C0 7.66344 7.16344 0.5 16 0.5ZM18.877 7.75586C17.126 7.23588 15.3532 7.23043 13.5889 7.70215C12.1785 8.07948 11.0034 8.83034 10.0947 9.96777C9.33633 10.9173 8.86522 12.0013 8.58496 13.1689C8.20799 14.7391 8.14431 16.3287 8.32715 17.9287C8.44589 18.9672 8.67943 19.9792 9.1084 20.9395C10.0357 23.0158 11.5944 24.3665 13.8408 24.915C15.1504 25.2349 16.475 25.2591 17.8037 25.0537C19.0129 24.8667 20.1065 24.415 21.0498 23.6318C22.223 22.6578 22.9475 21.4524 23.0098 19.9131C23.0515 18.8866 22.8048 17.9356 22.1807 17.0977C21.6682 16.4096 20.9914 15.9236 20.209 15.5742C20.1228 15.5359 20.0901 15.4898 20.0762 15.3955C20.0173 14.9994 19.9753 14.5972 19.8711 14.2119C19.6089 13.2439 19.0767 12.4593 18.1602 11.9727C17.4409 11.5907 16.6612 11.4813 15.8574 11.5303C14.754 11.5974 13.8176 12.0157 13.0977 12.8613C13.0094 12.9649 12.9319 13.0779 12.8447 13.1934C13.2886 13.4932 13.7131 13.7796 14.123 14.0566C14.2914 13.8886 14.434 13.7165 14.6055 13.5801C15.1093 13.1789 15.7053 13.0716 16.335 13.0996C16.7879 13.1198 17.2223 13.2111 17.5986 13.4756C18.1355 13.8531 18.3516 14.4081 18.4541 15.0215C18.4551 15.0272 18.4449 15.0347 18.4375 15.0439C18.4133 15.0421 18.3868 15.042 18.3613 15.0381C17.675 14.9309 16.9841 14.912 16.292 14.9482C15.4118 14.9944 14.5807 15.1988 13.8477 15.71C12.2435 16.8287 12.2304 19.2031 13.8594 20.29C15.1609 21.1583 16.5673 21.184 17.9707 20.543C18.8877 20.1243 19.4277 19.3498 19.7393 18.4229C19.8653 18.0479 19.9425 17.6567 20.0449 17.2598V17.2588C20.4402 17.4921 20.7906 17.7861 21.0244 18.1846C21.6467 19.2456 21.6041 20.3225 20.9844 21.3574C20.3789 22.3686 19.4486 23.0028 18.3145 23.3252C17.0105 23.6958 15.6866 23.6995 14.3643 23.417C13.2439 23.1777 12.2703 22.6703 11.502 21.8154C10.8376 21.0759 10.4279 20.2046 10.1719 19.2598C9.82489 17.9798 9.73451 16.6757 9.83008 15.3574C9.90651 14.3058 10.0953 13.2775 10.5166 12.3008C11.1999 10.7161 12.3649 9.66277 14.0596 9.20801C15.2401 8.89115 16.4359 8.86592 17.6377 9.07715C18.5965 9.24548 19.4797 9.59247 20.248 10.1943C21.1251 10.8814 21.6896 11.7808 22.0615 12.8086C22.1303 12.9983 22.1905 13.1916 22.2588 13.3945C22.7663 13.2612 23.2666 13.1289 23.7715 12.9961C23.7481 12.9106 23.7335 12.8431 23.7109 12.7783C23.6161 12.5051 23.5312 12.2272 23.4209 11.96C22.5603 9.87307 21.0888 8.41317 18.877 7.75586ZM16.8906 16.5244C16.9044 16.5253 17.9036 16.5896 18.4033 16.6484C18.4644 16.6557 18.5092 16.6669 18.501 16.75C18.4526 17.2377 18.364 17.7163 18.1631 18.168C17.8447 18.883 17.2882 19.2777 16.5029 19.3643C16.0259 19.4168 15.5576 19.3876 15.1113 19.2002C14.5846 18.979 14.2251 18.6184 14.2178 18.0225C14.2108 17.4427 14.5456 17.0685 15.0449 16.8184C15.426 16.6276 15.8395 16.5548 16.2607 16.5264C16.3654 16.5194 16.523 16.5193 16.6543 16.5205L16.8906 16.5244Z" fill="currentColor"/>
</svg>
