<svg width="32" height="33" viewBox="0 0 32 33" fill="none" xmlns="http://www.w3.org/2000/svg">
<path d="M16 0.5C24.8366 0.5 32 7.66344 32 16.5C32 25.3366 24.8366 32.5 16 32.5C7.16344 32.5 0 25.3366 0 16.5C0 7.66344 7.16344 0.5 16 0.5ZM16.5361 14.6299L16.5283 19.3145C16.5322 19.3493 16.5361 19.388 16.5361 19.4229C16.5361 20.5958 15.4846 21.5526 14.1875 21.5527C12.8903 21.5527 11.8379 20.5993 11.8379 19.4229C11.8379 18.2498 12.8902 17.293 14.1875 17.293C14.456 17.293 14.7173 17.3375 14.959 17.4141V15.0752C14.7096 15.0369 14.4522 15.0156 14.1875 15.0156C11.5126 15.0191 9.33231 16.9964 9.33203 19.4258C9.33203 21.8554 11.5125 23.833 14.1914 23.833C16.8702 23.8328 19.0498 21.8553 19.0498 19.4258V13.8535C20.0208 14.7341 21.2758 15.5941 22.665 15.8691V13.4775C21.1568 12.8718 19.6562 11.0823 19.1611 10.3652L18.7891 9.83301H16.5361V14.6299Z" fill="currentColor"/>
</svg>
