<svg width="32" height="33" viewBox="0 0 32 33" fill="none" xmlns="http://www.w3.org/2000/svg">
<path d="M16 0.5C24.8366 0.5 32 7.66344 32 16.5C32 25.3366 24.8366 32.5 16 32.5C7.16344 32.5 0 25.3366 0 16.5C2.57703e-07 7.66344 7.16344 0.5 16 0.5ZM15.998 10.6338C15.9678 10.6338 10.6572 10.6348 9.33008 11C8.5959 11.2016 8.01752 11.795 7.82129 12.5488C7.46545 13.9127 7.46485 16.7555 7.46484 16.7666C7.46484 16.7666 7.46477 19.6177 7.82129 20.9844C8.01754 21.7383 8.59581 22.3325 9.33008 22.5342C10.6572 22.8993 15.9678 22.9004 15.998 22.9004C15.998 22.9004 21.3352 22.9003 22.666 22.5342C23.4004 22.3326 23.9785 21.7384 24.1748 20.9844C24.5314 19.6177 24.5312 16.7666 24.5312 16.7666C24.5312 16.7555 24.5308 13.9127 24.1748 12.5488C23.9786 11.7949 23.4003 11.2016 22.666 11C21.3352 10.6338 15.998 10.6338 15.998 10.6338Z" fill="currentColor"/>
<path d="M14.3984 19.7V14.3667L18.6651 17.0335L14.3984 19.7Z" fill="currentColor"/>
</svg>
