<svg width="40" height="40" viewBox="0 0 40 40" fill="none" xmlns="http://www.w3.org/2000/svg">
<path d="M20 4C28.8366 4 36 11.1634 36 20C36 28.8366 28.8366 36 20 36C11.1634 36 4 28.8366 4 20C4 11.1634 11.1634 4 20 4ZM19.9971 11.4668C17.6814 11.4668 17.3904 11.4771 16.4805 11.5186C15.572 11.5602 14.9518 11.704 14.4092 11.915C13.848 12.133 13.3717 12.4241 12.8975 12.8984C12.4229 13.3727 12.1317 13.8492 11.9131 14.4102C11.7015 14.9529 11.5575 15.5733 11.5166 16.4814C11.4759 17.3916 11.4648 17.6827 11.4648 20C11.4648 22.3172 11.4754 22.6076 11.5166 23.5176C11.5584 24.426 11.7023 25.0463 11.9131 25.5889C12.1312 26.1501 12.423 26.6263 12.8975 27.1006C13.3716 27.5752 13.8474 27.868 14.4082 28.0859C14.9511 28.2969 15.5714 28.4408 16.4795 28.4824C17.3897 28.5238 17.6807 28.5332 19.998 28.5332C22.3155 28.5332 22.6056 28.5238 23.5156 28.4824C24.424 28.4408 25.045 28.2969 25.5879 28.0859C26.149 27.868 26.6245 27.5753 27.0986 27.1006C27.5733 26.6263 27.8653 26.1499 28.084 25.5889C28.2936 25.0463 28.4368 24.4261 28.4795 23.5186C28.5204 22.6083 28.5312 22.3175 28.5312 20C28.5312 17.6827 28.5204 17.3916 28.4795 16.4814C28.4368 15.5731 28.2938 14.9527 28.084 14.4102C27.8653 13.849 27.5733 13.3727 27.0986 12.8984C26.6241 12.424 26.1494 12.1328 25.5879 11.915C25.0439 11.704 24.4231 11.5602 23.5146 11.5186C22.6045 11.4771 22.3146 11.4668 19.9971 11.4668Z" fill="#53FFBC"/>
<path d="M19.2344 13.0044C19.4615 13.004 19.7153 13.0044 20 13.0044C22.2776 13.0044 22.548 13.0124 23.4473 13.0532C24.2793 13.0913 24.7314 13.2304 25.0322 13.3472C25.4305 13.5018 25.7142 13.6872 26.0127 13.9858C26.3114 14.2845 26.4963 14.5691 26.6514 14.9673C26.7682 15.2677 26.9075 15.7194 26.9453 16.5513C26.9862 17.4507 26.9951 17.7213 26.9951 19.9985C26.9951 22.2756 26.9862 22.5463 26.9453 23.4458C26.9072 24.2776 26.7681 24.7294 26.6514 25.0298C26.4968 25.4278 26.3112 25.7109 26.0127 26.0093C25.714 26.3079 25.4306 26.4933 25.0322 26.6479C24.7318 26.7653 24.2793 26.9038 23.4473 26.9419C22.5481 26.9828 22.2776 26.9917 20 26.9917C17.7218 26.9917 17.451 26.9828 16.5518 26.9419C15.7198 26.9035 15.2678 26.7647 14.9668 26.6479C14.5686 26.4933 14.284 26.3079 13.9854 26.0093C13.6868 25.7107 13.5017 25.4271 13.3467 25.0288C13.2299 24.7284 13.0906 24.2768 13.0527 23.4448C13.0118 22.5453 13.0039 22.2749 13.0039 19.9966C13.0039 17.7181 13.0119 17.4486 13.0527 16.5493C13.0908 15.7173 13.2299 15.2652 13.3467 14.9644C13.5013 14.5662 13.6867 14.2815 13.9854 13.9829C14.284 13.6843 14.5686 13.4992 14.9668 13.3442C15.2676 13.2269 15.7199 13.0885 16.5518 13.0503C17.3386 13.0148 17.6443 13.0042 19.2344 13.0024V13.0044ZM19.999 15.6177C17.5791 15.618 15.6172 17.5805 15.6172 20.0005C15.6173 22.4205 17.58 24.3813 20 24.3813C22.4198 24.3811 24.3807 22.4203 24.3809 20.0005C24.3809 17.5804 22.4191 15.6177 19.999 15.6177ZM24.5557 14.4214C23.9904 14.4214 23.5313 14.8793 23.5312 15.4448C23.5312 16.0102 23.9903 16.4692 24.5557 16.4692C25.1208 16.469 25.5791 16.01 25.5791 15.4448C25.5791 14.8797 25.1208 14.4216 24.5557 14.4214Z" fill="#53FFBC"/>
<path d="M20.0008 17.1556C21.5716 17.1556 22.8453 18.4291 22.8453 20.0001C22.8453 21.571 21.5716 22.8446 20.0008 22.8446C18.4297 22.8446 17.1563 21.571 17.1563 20.0001C17.1563 18.4291 18.4297 17.1556 20.0008 17.1556Z" fill="#53FFBC"/>
</svg>
