<?xml version="1.0" encoding="UTF-8" standalone="no"?>
<svg
   width="42"
   height="42"
   viewBox="0 0 42 42"
   fill="none"
   version="1.1"
   id="svg8"
   sodipodi:docname="Instagram-hover.svg"
   inkscape:version="1.3.2 (091e20e, 2023-11-25, custom)"
   xmlns:inkscape="http://www.inkscape.org/namespaces/inkscape"
   xmlns:sodipodi="http://sodipodi.sourceforge.net/DTD/sodipodi-0.dtd"
   xmlns="http://www.w3.org/2000/svg"
   xmlns:svg="http://www.w3.org/2000/svg">
  <sodipodi:namedview
     id="namedview8"
     pagecolor="#ffffff"
     bordercolor="#000000"
     borderopacity="0.25"
     inkscape:showpageshadow="2"
     inkscape:pageopacity="0.0"
     inkscape:pagecheckerboard="0"
     inkscape:deskcolor="#d1d1d1"
     inkscape:zoom="27.928571"
     inkscape:cx="21"
     inkscape:cy="21"
     inkscape:window-width="2560"
     inkscape:window-height="1369"
     inkscape:window-x="-8"
     inkscape:window-y="-8"
     inkscape:window-maximized="1"
     inkscape:current-layer="svg8" />
  <path
     d="m 20.507426,4.5074052 c 8.836512,-1.58e-5 15.999979,7.1634328 15.999989,16.0000178 3.5e-5,8.836519 -7.163423,15.999982 -16.000036,15.999982 C 11.67086,36.50744 4.5073968,29.343982 4.5074153,20.507375 4.5073995,11.670863 11.670857,4.5074004 20.507426,4.5074052 Z m -0.003,7.4667678 c -2.315651,0 -2.606656,0.0104 -3.516585,0.05178 -0.908417,0.04161 -1.528714,0.185432 -2.071319,0.396478 -0.561079,0.217943 -1.037477,0.509062 -1.5117,0.983373 -0.474633,0.474268 -0.765657,0.950768 -0.984333,1.511812 -0.211562,0.542668 -0.355653,1.163103 -0.396503,2.071196 -0.04069,0.91028 -0.05177,1.201237 -0.05175,3.518597 -4.3e-5,2.317232 0.01047,2.60764 0.05175,3.517534 0.04171,0.908451 0.185619,1.528783 0.396477,2.071319 0.218098,0.561241 0.509823,1.037435 0.984321,1.511726 0.474174,0.474599 0.949931,0.767374 1.510804,0.985349 0.542873,0.210999 1.163154,0.354927 2.07129,0.396537 0.910229,0.04142 1.201204,0.05069 3.518529,0.05077 2.317454,1.7e-5 2.60758,-0.0094 3.517602,-0.05077 0.908323,-0.04165 1.529381,-0.185509 2.072302,-0.396546 0.560984,-0.217978 1.036572,-0.510668 1.510709,-0.985329 0.474633,-0.474268 0.766699,-0.950709 0.985375,-1.511752 0.209598,-0.542532 0.352766,-1.162771 0.395435,-2.070308 0.04088,-0.910212 0.05179,-1.201016 0.05185,-3.518563 -5.1e-5,-2.317266 -0.01095,-2.608349 -0.05182,-3.518517 -0.04269,-0.908383 -0.185748,-1.528723 -0.39553,-2.071293 -0.218635,-0.561224 -0.510677,-1.037426 -0.985269,-1.511752 -0.474559,-0.474419 -0.949282,-0.765648 -1.510796,-0.983324 -0.54401,-0.211093 -1.164863,-0.354911 -2.073221,-0.396495 -0.910101,-0.04147 -1.200067,-0.05177 -3.517615,-0.05182 z"
     fill="url(#paint0_linear_2308_28648)"
     id="path1"
     style="fill:url(#paint0_linear_2308_28648)" />
  <path
     d="m 19.741785,13.511749 c 0.227114,-3.43e-4 0.481004,1.4e-5 0.76565,7.2e-5 2.277564,-2.9e-5 2.547949,0.0079 3.447216,0.04876 0.832057,0.03808 1.284142,0.177188 1.584927,0.294007 0.398324,0.154663 0.682053,0.33998 0.980494,0.638666 0.298664,0.29866 0.483703,0.583207 0.638745,0.981452 0.116779,0.300461 0.256,0.752115 0.293885,1.583938 0.04094,0.899445 0.04981,1.1701 0.04984,3.447348 1.2e-5,2.277025 -0.0089,2.5477 -0.04983,3.44725 -0.03807,0.83174 -0.177171,1.283509 -0.293982,1.583978 -0.154525,0.397948 -0.340175,0.68113 -0.638605,0.979452 -0.29866,0.298664 -0.582139,0.483984 -0.98047,0.638677 -0.300443,0.117317 -0.752935,0.255914 -1.585014,0.293918 -0.899095,0.04086 -1.16969,0.04985 -3.447254,0.04988 -2.278196,1.2e-5 -2.549059,-0.009 -3.448198,-0.04986 -0.831954,-0.03836 -1.284048,-0.177154 -1.584961,-0.293914 -0.398196,-0.154722 -0.682779,-0.340031 -0.981443,-0.638691 -0.29857,-0.298626 -0.483668,-0.582131 -0.638676,-0.98047 -0.116779,-0.300461 -0.256129,-0.752055 -0.293979,-1.583972 -0.04091,-0.899539 -0.0488,-1.169946 -0.04877,-3.448236 -4e-6,-2.278512 0.008,-2.548042 0.04879,-3.44731 0.03804,-0.831962 0.177188,-1.284142 0.293913,-1.584961 0.154688,-0.398102 0.340031,-0.682779 0.638691,-0.981443 0.298627,-0.298569 0.583302,-0.483668 0.981418,-0.63865 0.300854,-0.117275 0.753184,-0.255718 1.585015,-0.293919 0.786805,-0.03554 1.092463,-0.04614 2.68256,-0.0479 z m 0.764606,2.613313 c -2.419831,2.86e-4 -4.38181,1.96291 -4.38178,4.382861 1.23e-4,2.419986 1.962748,4.380794 4.382793,4.380798 2.419797,-1.92e-4 4.380682,-1.96098 4.38084,-4.380862 5e-6,-2.420045 -1.961714,-4.382759 -4.381853,-4.382797 z m 4.556651,-1.196278 c -0.565277,-3.9e-5 -1.024313,0.457984 -1.02442,1.023449 5.5e-5,0.565311 0.45912,1.024407 1.024431,1.024352 0.565158,-2.18e-4 1.02346,-0.459146 1.023464,-1.024329 -9e-5,-0.565218 -0.45836,-1.02328 -1.023475,-1.023472 z"
     fill="url(#paint1_linear_2308_28648)"
     id="path2"
     style="fill:url(#paint1_linear_2308_28648)" />
  <path
     d="m 20.508185,17.663026 c 1.570941,-7e-6 2.844524,1.273378 2.844497,2.844414 7e-6,1.570942 -1.273601,2.84455 -2.844415,2.844497 -1.57107,6.7e-5 -2.84455,-1.273601 -2.844497,-2.844414 -6.6e-5,-1.57107 1.273379,-2.844525 2.844415,-2.844497 z"
     fill="url(#paint2_linear_2308_28648)"
     id="path3"
     style="fill:url(#paint2_linear_2308_28648)" />
  <defs
     id="defs8">
    <linearGradient
       id="paint0_linear_2308_28648"
       x1="5.47232"
       y1="25.9797"
       x2="35.5425"
       y2="15.0351"
       gradientUnits="userSpaceOnUse"
       gradientTransform="rotate(20,20.507415,20.507414)">
      <stop
         stop-color="#53FFBC"
         id="stop3" />
      <stop
         offset="1"
         stop-color="#00A6F9"
         id="stop4" />
    </linearGradient>
    <linearGradient
       id="paint1_linear_2308_28648"
       x1="13.9322"
       y1="22.8975"
       x2="27.0797"
       y2="18.1122"
       gradientUnits="userSpaceOnUse"
       gradientTransform="rotate(20,20.507415,20.507414)">
      <stop
         stop-color="#53FFBC"
         id="stop5" />
      <stop
         offset="1"
         stop-color="#00A6F9"
         id="stop6" />
    </linearGradient>
    <linearGradient
       id="paint2_linear_2308_28648"
       x1="17.8353"
       y1="21.4801"
       x2="23.1811"
       y2="19.5343"
       gradientUnits="userSpaceOnUse"
       gradientTransform="rotate(20,20.507415,20.507414)">
      <stop
         stop-color="#53FFBC"
         id="stop7" />
      <stop
         offset="1"
         stop-color="#00A6F9"
         id="stop8" />
    </linearGradient>
  </defs>
</svg>
