<svg width="40" height="40" viewBox="0 0 40 40" fill="none" xmlns="http://www.w3.org/2000/svg">
<path d="M20 4C28.8366 4 36 11.1634 36 20C36 28.8366 28.8366 36 20 36C11.1634 36 4 28.8366 4 20C4 11.1634 11.1634 4 20 4ZM20.5361 18.1299L20.5283 22.8145C20.5322 22.8493 20.5361 22.888 20.5361 22.9229C20.5361 24.0958 19.4846 25.0526 18.1875 25.0527C16.8903 25.0527 15.8379 24.0993 15.8379 22.9229C15.8379 21.7498 16.8902 20.793 18.1875 20.793C18.456 20.793 18.7173 20.8375 18.959 20.9141V18.5752C18.7096 18.5369 18.4522 18.5156 18.1875 18.5156C15.5126 18.5191 13.3323 20.4964 13.332 22.9258C13.332 25.3554 15.5125 27.333 18.1914 27.333C20.8702 27.3328 23.0498 25.3553 23.0498 22.9258V17.3535C24.0208 18.2341 25.2758 19.0941 26.665 19.3691V16.9775C25.1568 16.3718 23.6562 14.5823 23.1611 13.8652L22.7891 13.333H20.5361V18.1299Z" fill="#53FFBC"/>
</svg>
