<?xml version="1.0" encoding="UTF-8" standalone="no"?>
<svg
   width="42"
   height="42"
   viewBox="0 0 42 42"
   fill="none"
   version="1.1"
   id="svg2"
   sodipodi:docname="TikTok-hover.svg"
   inkscape:version="1.3.2 (091e20e, 2023-11-25, custom)"
   xmlns:inkscape="http://www.inkscape.org/namespaces/inkscape"
   xmlns:sodipodi="http://sodipodi.sourceforge.net/DTD/sodipodi-0.dtd"
   xmlns="http://www.w3.org/2000/svg"
   xmlns:svg="http://www.w3.org/2000/svg">
  <sodipodi:namedview
     id="namedview2"
     pagecolor="#ffffff"
     bordercolor="#000000"
     borderopacity="0.25"
     inkscape:showpageshadow="2"
     inkscape:pageopacity="0.0"
     inkscape:pagecheckerboard="0"
     inkscape:deskcolor="#d1d1d1"
     inkscape:zoom="28.404762"
     inkscape:cx="21"
     inkscape:cy="21"
     inkscape:window-width="2560"
     inkscape:window-height="1369"
     inkscape:window-x="-8"
     inkscape:window-y="-8"
     inkscape:window-maximized="1"
     inkscape:current-layer="svg2" />
  <path
     d="m 20.507426,4.5074052 c 8.836512,-1.58e-5 15.999979,7.1634328 15.999989,16.0000178 3.5e-5,8.836519 -7.163423,15.999982 -16.000036,15.999982 C 11.67086,36.50744 4.5073968,29.343982 4.5074153,20.507375 4.5073995,11.670863 11.670857,4.5074004 20.507426,4.5074052 Z m 0.536128,14.1298828 -0.0078,4.684552 c 0.0038,0.03481 0.0078,0.0736 0.0078,0.108403 -6.4e-5,1.172914 -1.051608,2.129664 -2.348694,2.129845 -1.297145,5.3e-5 -2.349518,-0.953378 -2.349547,-2.129838 4e-6,-1.173041 1.052342,-2.129928 2.349547,-2.129853 0.268576,6.2e-5 0.529834,0.0445 0.771518,0.121077 l 3.2e-5,-2.338839 c -0.249436,-0.03832 -0.506771,-0.05962 -0.771553,-0.05958 -2.674893,0.0034 -4.855139,1.980695 -4.855462,4.410095 1.9e-5,2.429631 2.180431,4.407241 4.859406,4.407202 2.678788,-1.07e-4 4.85841,-1.977696 4.858452,-4.407199 l -7.5e-5,-5.572274 c 0.970974,0.880599 2.22602,1.740615 3.615236,2.015641 l -1.3e-5,-2.391638 C 25.664208,16.87922 24.163578,15.08965 23.66857,14.372604 l -0.37213,-0.532169 -2.252856,-2.4e-5 z"
     fill="url(#paint0_linear_2308_28646)"
     id="path1"
     style="fill:url(#paint0_linear_2308_28646)" />
  <defs
     id="defs2">
    <linearGradient
       id="paint0_linear_2308_28646"
       x1="5.47232"
       y1="25.9797"
       x2="35.5425"
       y2="15.0351"
       gradientUnits="userSpaceOnUse"
       gradientTransform="rotate(20,20.507415,20.507414)">
      <stop
         stop-color="#53FFBC"
         id="stop1" />
      <stop
         offset="1"
         stop-color="#00A6F9"
         id="stop2" />
    </linearGradient>
  </defs>
</svg>
