<?xml version="1.0" encoding="UTF-8" standalone="no"?>
<svg
   width="42"
   height="42"
   viewBox="0 0 42 42"
   fill="none"
   version="1.1"
   id="svg5"
   sodipodi:docname="Youtube-hover.svg"
   inkscape:version="1.3.2 (091e20e, 2023-11-25, custom)"
   xmlns:inkscape="http://www.inkscape.org/namespaces/inkscape"
   xmlns:sodipodi="http://sodipodi.sourceforge.net/DTD/sodipodi-0.dtd"
   xmlns="http://www.w3.org/2000/svg"
   xmlns:svg="http://www.w3.org/2000/svg">
  <sodipodi:namedview
     id="namedview5"
     pagecolor="#ffffff"
     bordercolor="#000000"
     borderopacity="0.25"
     inkscape:showpageshadow="2"
     inkscape:pageopacity="0.0"
     inkscape:pagecheckerboard="0"
     inkscape:deskcolor="#d1d1d1"
     inkscape:zoom="28.404762"
     inkscape:cx="21"
     inkscape:cy="21"
     inkscape:window-width="2560"
     inkscape:window-height="1369"
     inkscape:window-x="-8"
     inkscape:window-y="-8"
     inkscape:window-maximized="1"
     inkscape:current-layer="svg5" />
  <path
     d="m 20.507426,4.5074052 c 8.836512,-1.58e-5 15.999979,7.1634328 15.999989,16.0000178 3.5e-5,8.836519 -7.163423,15.999982 -16.000036,15.999982 C 11.67086,36.50744 4.5073968,29.343982 4.5074153,20.507375 4.5073995,11.670863 11.670857,4.5074004 20.507426,4.5074052 Z m -0.002,10.1337478 c -0.03025,6e-5 -5.340864,0.0011 -6.667977,0.366202 -0.734149,0.201669 -1.312571,0.79502 -1.508834,1.548856 -0.355763,1.36398 -0.356371,4.20671 -0.356357,4.217782 0,0 -1.4e-4,2.851094 0.356433,4.21777 0.196254,0.753995 0.774496,1.3482 1.508732,1.54978 1.327154,0.365134 6.637747,0.36623 6.667957,0.366264 0,0 5.337198,-7.5e-5 6.667977,-0.366202 0.734371,-0.201694 1.312562,-0.795874 1.50886,-1.549804 0.356533,-1.36668 0.356357,-4.217782 0.356357,-4.217782 2e-5,-0.01117 -4.49e-4,-2.853863 -0.356433,-4.21777 -0.196161,-0.75396 -0.774523,-1.347252 -1.508758,-1.548832 -1.330793,-0.366245 -6.667957,-0.366264 -6.667957,-0.366264 z"
     fill="url(#paint0_linear_2308_28650)"
     id="path1"
     style="fill:url(#paint0_linear_2308_28650)" />
  <path
     d="m 18.905849,23.707416 9e-6,-5.333337 4.266611,2.666795 z"
     fill="url(#paint1_linear_2308_28650)"
     id="path2"
     style="fill:url(#paint1_linear_2308_28650)" />
  <defs
     id="defs5">
    <linearGradient
       id="paint0_linear_2308_28650"
       x1="5.47232"
       y1="25.9797"
       x2="35.5425"
       y2="15.0351"
       gradientUnits="userSpaceOnUse"
       gradientTransform="rotate(20,20.507415,20.507414)">
      <stop
         stop-color="#53FFBC"
         id="stop2" />
      <stop
         offset="1"
         stop-color="#00A6F9"
         id="stop3" />
    </linearGradient>
    <linearGradient
       id="paint1_linear_2308_28650"
       x1="19.1849"
       y1="21.5564"
       x2="23.1942"
       y2="20.0971"
       gradientUnits="userSpaceOnUse"
       gradientTransform="rotate(20,20.507415,20.507414)">
      <stop
         stop-color="#53FFBC"
         id="stop4" />
      <stop
         offset="1"
         stop-color="#00A6F9"
         id="stop5" />
    </linearGradient>
  </defs>
</svg>
