<svg width="40" height="40" viewBox="0 0 40 40" fill="none" xmlns="http://www.w3.org/2000/svg">
<path d="M20 4C28.8366 4 36 11.1634 36 20C36 28.8366 28.8366 36 20 36C11.1634 36 4 28.8366 4 20C4 11.1634 11.1634 4 20 4ZM19.998 14.1338C19.9678 14.1338 14.6572 14.1348 13.3301 14.5C12.5959 14.7016 12.0175 15.295 11.8213 16.0488C11.4654 17.4127 11.4648 20.2555 11.4648 20.2666C11.4648 20.2666 11.4648 23.1177 11.8213 24.4844C12.0175 25.2383 12.5958 25.8325 13.3301 26.0342C14.6572 26.3993 19.9678 26.4004 19.998 26.4004C19.998 26.4004 25.3352 26.4003 26.666 26.0342C27.4004 25.8326 27.9785 25.2384 28.1748 24.4844C28.5314 23.1177 28.5312 20.2666 28.5312 20.2666C28.5312 20.2555 28.5308 17.4127 28.1748 16.0488C27.9786 15.2949 27.4003 14.7016 26.666 14.5C25.3352 14.1338 19.998 14.1338 19.998 14.1338Z" fill="#53FFBC"/>
<path d="M18.3984 23.2V17.8667L22.6651 20.5335L18.3984 23.2Z" fill="#53FFBC"/>
</svg>
