<svg width="254" height="188" viewBox="0 0 254 188" fill="none" xmlns="http://www.w3.org/2000/svg">
<path d="M156.248 141.781L158.428 141.165L158.578 141.664C158.402 142.79 157.488 143.796 156.345 144.131C155.374 144.407 154.805 144.185 154.622 143.533C154.411 142.816 154.848 142.203 156.25 141.803L156.248 141.781ZM142.34 138.876L140.894 139.279L143.163 147.349L144.673 146.919C147.199 146.208 148.345 143.961 147.726 141.697C147.08 139.392 145.08 138.082 142.34 138.876ZM172.12 138.529C172.306 139.203 172.875 139.425 173.844 139.126C174.967 138.815 175.9 137.786 176.076 136.66L175.927 136.16L173.747 136.777C172.344 137.177 171.907 137.789 172.118 138.506L172.12 138.529ZM81.6611 159.225C80.4524 159.565 79.7345 160.534 79.6751 161.739L84.6161 160.326C83.9808 159.265 82.9137 158.882 81.683 159.224L81.6611 159.225ZM101.233 153.658C100.024 153.997 99.3065 154.966 99.2471 156.171L104.188 154.759C103.553 153.697 102.486 153.314 101.255 153.656L101.233 153.658ZM63.4467 161.307L61.095 161.981L62.4126 166.658L64.7642 165.983C66.2107 165.58 66.884 164.326 66.5128 162.977C66.118 161.607 64.8931 160.904 63.4467 161.307ZM204.359 129.36C204.545 130.035 205.114 130.257 206.083 129.958C207.206 129.647 208.14 128.617 208.316 127.492L208.166 126.992L205.986 127.609C204.583 128.008 204.146 128.621 204.357 129.338L204.359 129.36ZM239.393 116.458C242.278 126.748 236.368 137.419 226.163 140.336L61.6495 187.196C51.442 190.091 40.8444 184.123 37.9371 173.835C35.0517 163.546 40.9614 152.874 51.1671 149.957L215.68 103.098C225.888 100.203 236.485 106.171 239.393 116.458ZM68.9505 162.273C68.2423 159.728 65.7856 158.232 62.9804 159.031L58.0394 160.444L61.5919 173.037L64.0295 172.334L63.0525 168.898L65.534 168.19C68.3611 167.389 69.6534 164.753 68.9487 162.251L68.9505 162.273ZM76.2806 158.983C75.8316 158.885 75.2361 158.887 74.6107 159.07C73.4239 159.408 72.6465 160.181 72.5213 161.392L72.1213 159.956L69.7915 160.628L72.4231 169.937L74.7747 169.263L73.3942 164.347C72.9617 162.78 73.5568 161.932 74.7875 161.591C75.3269 161.437 75.8128 161.443 76.11 161.575L76.3026 158.981L76.2806 158.983ZM87.2216 160.632C86.4521 157.869 83.8674 156.428 81.1043 157.202C78.3413 157.975 76.8603 160.738 77.6263 163.457C78.3923 166.176 80.8981 167.735 83.8769 166.899C85.9049 166.317 86.9781 165.098 87.5376 163.52L85.2857 162.942C85.0467 163.828 84.4394 164.521 83.3386 164.83C81.9799 165.226 80.7724 164.743 80.1319 163.615L87.4685 161.525L87.2216 160.632ZM96.8913 159.87C96.3363 157.868 94.3709 157.845 92.7264 157.975C91.3011 158.087 90.4881 158.129 90.3314 157.541C90.18 157.019 90.5161 156.526 91.4433 156.253C92.3064 156.007 92.9834 156.198 93.5313 156.711L95.444 155.226C94.2403 154.231 92.861 153.806 90.9207 154.382C88.6313 155.007 87.5156 156.807 87.9481 158.374C88.4996 160.331 90.3756 160.339 92.0201 160.209C93.2699 160.111 94.297 159.985 94.5045 160.658C94.6577 161.202 94.2881 161.832 93.3154 162.086C92.3426 162.341 91.4885 162.141 90.8372 161.437L88.8184 162.975C89.9772 164.239 91.6012 164.689 93.7792 164.051C96.4782 163.304 97.2913 161.306 96.8895 159.848L96.8913 159.87ZM106.792 155.042C106.022 152.279 103.438 150.838 100.675 151.612C97.9134 152.407 96.4307 155.148 97.1966 157.867C97.9627 160.586 100.468 162.145 103.447 161.309C105.475 160.727 106.548 159.508 107.108 157.93L104.856 157.352C104.617 158.238 104.01 158.93 102.909 159.24C101.55 159.636 100.343 159.153 99.7022 158.025L107.039 155.934L106.792 155.042ZM116.557 151.293C115.879 148.856 114.075 147.798 111.875 148.438C110.732 148.773 109.911 149.549 109.551 150.578L109.215 149.404L106.842 150.08L109.473 159.389L111.847 158.713L110.405 153.579C110.003 152.121 110.625 151.049 111.726 150.74C112.977 150.375 113.845 151.04 114.215 152.367L115.689 157.631L118.106 156.952L116.515 151.318L116.557 151.293ZM125.785 154.167L124.184 152.603C123.989 152.93 123.76 153.104 123.414 153.198C122.811 153.379 122.306 153.13 122.03 152.151L120.956 148.322L123.394 147.619L122.808 145.508L120.37 146.212L119.419 142.818L117.484 144.861L118.063 146.883L116.358 147.373L116.944 149.484L118.648 148.993L119.751 152.909C120.459 155.454 121.853 156.056 123.795 155.502C124.658 155.256 125.326 154.781 125.807 154.165L125.785 154.167ZM134.028 149.292C133.473 147.291 131.507 147.268 129.863 147.397C128.437 147.51 127.624 147.552 127.468 146.964C127.316 146.442 127.652 145.949 128.58 145.675C129.443 145.429 130.12 145.621 130.668 146.133L132.58 144.648C131.377 143.654 129.997 143.229 128.057 143.804C125.768 144.43 124.652 146.23 125.084 147.797C125.636 149.754 127.512 149.762 129.156 149.632C130.406 149.534 131.433 149.408 131.641 150.081C131.794 150.625 131.424 151.254 130.452 151.509C129.479 151.763 128.625 151.564 127.974 150.859L125.955 152.397C127.113 153.662 128.738 154.112 130.916 153.473C133.615 152.727 134.428 150.728 134.026 149.27L134.028 149.292ZM150.165 141.016C149.156 137.449 145.842 135.442 141.872 136.578L137.836 137.719L141.389 150.313L145.489 149.145C149.221 148.072 151.196 144.581 150.185 140.992L150.165 141.016ZM160.202 138.757C159.531 136.408 157.579 135.429 154.859 136.199C152.788 136.785 151.674 138.051 151.087 139.565L153.574 140.036C153.789 139.129 154.356 138.484 155.415 138.201C156.753 137.828 157.608 138.317 157.885 139.318L157.896 139.45L155.48 140.152C152.913 140.888 151.652 142.522 152.201 144.457C152.661 146.089 154.181 146.903 156.209 146.32C157.656 145.917 158.745 144.897 159.138 143.732L159.538 145.168L161.826 144.521L160.205 138.801L160.202 138.757ZM169.461 141.74L167.859 140.176C167.665 140.503 167.436 140.677 167.112 140.769C166.508 140.95 166.003 140.701 165.728 139.722L164.653 135.893L167.091 135.19L166.505 133.079L164.068 133.783L163.116 130.389L161.181 132.432L161.76 134.454L160.056 134.944L160.641 137.055L162.346 136.565L163.449 140.48C164.157 143.025 165.55 143.627 167.492 143.074C168.355 142.828 169.024 142.352 169.505 141.736L169.461 141.74ZM177.724 133.773C177.053 131.425 175.101 130.445 172.382 131.215C170.31 131.801 169.196 133.067 168.61 134.581L171.096 135.052C171.311 134.145 171.878 133.5 172.937 133.217C174.275 132.844 175.13 133.333 175.408 134.334L175.418 134.466L173.002 135.168C170.435 135.904 169.174 137.538 169.723 139.473C170.183 141.105 171.703 141.919 173.731 141.336C175.178 140.933 176.267 139.914 176.66 138.749L177.06 140.184L179.348 139.537L177.728 133.817L177.724 133.773ZM199.096 120.259L196.659 120.962L196.787 130.424L191.718 122.375L189.388 123.048L189.255 132.552L184.489 124.435L182.008 125.142L189.034 136.75L191.472 136.046L191.595 126.409L196.695 134.567L199.068 133.891L199.076 120.283L199.096 120.259ZM209.941 124.606C209.271 122.258 207.318 121.278 204.599 122.048C202.527 122.634 201.413 123.9 200.827 125.414L203.313 125.885C203.528 124.979 204.095 124.334 205.154 124.05C206.492 123.678 207.347 124.166 207.625 125.167L207.635 125.3L205.219 126.002C202.652 126.738 201.391 128.371 201.941 130.307C202.4 131.938 203.921 132.752 205.949 132.17C207.395 131.767 208.484 130.747 208.878 129.582L209.278 131.018L211.565 130.37L209.945 124.651L209.941 124.606ZM217.08 118.885C216.631 118.787 216.035 118.79 215.41 118.972C214.223 119.31 213.446 120.083 213.32 121.294L212.92 119.858L210.591 120.531L213.222 129.84L215.574 129.165L214.193 124.249C213.761 122.682 214.356 121.835 215.587 121.493C216.126 121.339 216.59 121.347 216.909 121.478L217.102 118.883L217.08 118.885ZM52.1989 142.338L68.1668 137.788C76.4743 135.421 80.7401 130.482 80.1164 123.972C79.6784 119.538 77.6731 117.05 74.7365 115.903C76.8802 113.711 78.0323 110.974 77.7086 107.709C77.0465 100.713 70.8847 96.9963 63.1367 99.1859L48.2259 103.43L52.2191 142.315L52.1989 142.338ZM65.1068 122.488C68.883 121.412 70.632 122.608 70.8623 124.969C71.0349 127.157 69.764 128.947 66.2255 129.959L59.924 131.746L59.1509 124.18L65.0849 122.49L65.1068 122.488ZM64.0833 107.271C67.2121 106.38 68.8191 107.454 68.953 109.711C69.0872 111.413 68.1926 113.217 64.8699 114.169L58.3324 116.041L57.6317 109.114L64.0833 107.271ZM83.1215 133.541L91.5808 131.139L87.2778 89.1665L78.9264 91.5372L83.1434 133.539L83.1215 133.541ZM106.883 127.376C110.097 126.455 112.236 124.196 113.332 121.308L113.676 124.839L121.876 122.502L118.944 93.7175L110.593 96.0882L110.992 100.037C108.939 97.775 105.908 96.8356 101.98 97.9458C95.1392 99.8861 90.8409 106.651 91.713 114.631C92.5573 123.658 99.1346 129.565 106.881 127.353L106.883 127.376ZM107.583 118.627C103.806 119.703 100.593 116.999 100.154 113.12C99.7157 109.797 101.705 106.483 105.093 105.527C108.762 104.482 112.066 106.934 112.452 110.994C112.77 114.46 110.797 117.706 107.583 118.627ZM137.394 118.677C144.644 116.615 147.706 111.794 147.187 106.899C146.498 100.394 140.819 99.7299 136.366 99.7698C132.919 99.7081 130.949 99.619 130.794 98.4972C130.641 97.3976 131.47 96.4428 133.132 95.9782C135.55 95.2984 138.183 95.9578 139.739 97.2137L144.753 90.8594C141.543 88.7558 136.569 88.0807 131.434 89.5529C125.285 91.3053 121.515 95.8271 122.008 100.68C122.629 107.146 128.213 107.461 132.778 107.435C135.716 107.47 138.27 107.402 138.449 108.833C138.594 110.111 137.707 111.181 136.025 111.67C133.413 112.409 130.271 111.724 128.189 109.953L122.648 116.905C126.079 119.28 131.05 120.489 137.394 118.677ZM146.91 93.8688L151.743 92.4871L152.623 100.845C153.544 110.288 156.293 112.695 165.506 110.056L168.074 109.32L167.238 100.959L166.029 101.299C161.691 102.531 161.002 102.185 160.682 98.119L159.857 90.1797L165.943 88.4546L165.143 80.5577L159.058 82.2828L157.898 70.6567L150.277 77.8168L150.944 84.5902L146.153 85.9464L146.908 93.8467L146.91 93.8688ZM198.522 101.227C208.988 98.2449 215.013 88.4758 213.915 78.201C212.67 66.604 202.363 59.0122 190.991 62.2436C180.871 65.1318 174.458 75.0204 175.554 85.2731C176.799 96.8701 187.064 104.487 198.542 101.203L198.522 101.227ZM196.781 92.2927C190.479 94.0792 185.24 89.7565 184.599 83.5814C184.072 78.0199 187.031 72.7393 192.619 71.1424C198.921 69.3558 204.202 73.6531 204.827 79.8961C205.418 85.4304 202.369 90.6958 196.779 92.2706L196.781 92.2927ZM214.571 74.7697L218.541 73.6339L220.684 94.3653L229.099 91.9673L226.915 71.2615L233.108 69.5057L232.319 61.4524L226.083 63.2338L226.003 62.2173C225.703 58.9725 226.394 57.9397 228.961 57.2036L231.788 56.4025L230.968 48.2405L227.494 49.226C218.583 51.7742 216.625 54.0854 217.749 65.2695L217.774 65.5789L213.804 66.7146L214.593 74.7679L214.571 74.7697ZM234.899 68.9865L238.869 67.8507L241.011 88.5821L249.427 86.1842L247.242 65.4783L253.436 63.7225L252.646 55.6692L246.41 57.4506L246.33 56.4341C246.03 53.1893 246.721 52.1565 249.288 51.4204L252.116 50.6194L251.295 42.4573L247.821 43.4428C238.91 45.9911 236.952 48.3022 238.077 59.4864L238.101 59.7957L234.131 60.9315L234.921 68.9848L234.899 68.9865ZM16.6123 107.102L32.5801 102.552C40.8877 100.185 45.1535 95.2457 44.5298 88.7357C44.0918 84.3011 42.0864 81.8134 39.1498 80.6664C41.2935 78.474 42.4456 75.7373 42.1219 72.4721C41.4599 65.476 35.298 61.7597 27.5501 63.9493L12.6392 68.1936L16.6325 107.078L16.6123 107.102ZM29.5201 87.2513C33.2963 86.1753 35.0454 87.3714 35.2757 89.7323C35.4482 91.9199 34.1774 93.71 30.6389 94.7228L24.3374 96.5093L23.5642 88.9439L29.4982 87.253L29.5201 87.2513ZM28.4949 72.0126C31.6237 71.1211 33.2307 72.195 33.3646 74.4524C33.4988 76.1538 32.6042 77.9587 29.2815 78.91L22.744 80.7818L22.0433 73.8555L28.4949 72.0126ZM55.8406 95.9148L52.9087 67.1301L44.4072 69.5571L47.2954 98.3452L55.8626 95.9131L55.8406 95.9148ZM48.7706 65.8555C51.6837 65.0255 53.1539 62.6861 52.9378 59.9461C52.6719 56.8542 50.163 54.6952 46.9262 55.6175C44.3588 56.3536 42.4991 58.7904 42.7406 61.5729C43.1029 64.7683 45.662 66.7233 48.7908 65.8317L48.7706 65.8555ZM57.8046 95.3597L66.2639 92.9583L61.9609 50.9855L53.6095 53.3562L57.8265 95.358L57.8046 95.3597ZM68.2279 92.4031L76.6872 90.0017L72.3842 48.029L64.0328 50.3996L68.2498 92.4014L68.2279 92.4031ZM87.2167 86.9924L84.2847 58.2077L75.7832 60.6346L78.6714 89.4228L87.2386 86.9906L87.2167 86.9924ZM80.1449 56.911C83.0579 56.081 84.5282 53.7416 84.3121 51.0015C84.0462 47.9097 81.5372 45.7507 78.3005 46.673C75.7331 47.4091 73.8734 49.8459 74.1149 52.6284C74.4772 55.8238 77.0362 57.7787 80.1651 56.8872L80.1449 56.911ZM104.828 82.5796C113.093 80.2379 117.163 73.091 116.488 65.6512C115.66 57.1118 108.535 50.6921 98.9546 53.4265C91.0567 55.6725 86.6195 62.9151 87.2639 70.2461C88.0918 78.7855 95.2038 85.3174 104.828 82.5796ZM103.18 74.5495C99.4036 75.6255 96.2249 72.8079 95.7867 68.9292C95.4132 65.3122 97.6389 62.2017 100.66 61.3409C104.509 60.3481 107.642 63.1471 108.036 67.0293C108.41 70.6463 106.267 73.6835 103.202 74.5478L103.18 74.5495ZM119.476 77.8002L127.891 75.4022L126.411 59.7103C125.948 55.7891 127.266 53.4839 130.051 52.7084C132.836 51.9329 134.567 53.464 134.914 57.0164L136.415 72.9735L145.024 70.5158L143.368 53.9928C142.643 46.2012 137.861 42.3538 131.969 44.0191C128.603 44.9739 126.516 47.0506 125.326 50.1461L124.981 46.6158L116.63 48.9864L119.518 77.7746L119.476 77.8002ZM160.242 66.8032C163.456 65.8826 165.595 63.6239 166.691 60.7359L167.036 64.2663L175.235 61.9298L172.303 33.1451L163.952 35.5158L164.352 39.4642C162.298 37.2026 159.267 36.2632 155.339 37.3734C148.498 39.3137 144.2 46.0784 145.072 54.0585C145.916 63.0858 152.494 68.9928 160.24 66.7811L160.242 66.8032ZM160.918 58.0339C157.142 59.1099 153.928 56.4062 153.49 52.5275C153.051 49.2047 155.04 45.8906 158.429 44.9341C162.097 43.8888 165.401 46.3408 165.788 50.4015C166.105 53.8672 164.133 57.1134 160.918 58.0339ZM185.959 58.8607L183.027 30.076L174.525 32.5029L177.413 61.2911L185.981 58.8589L185.959 58.8607ZM178.91 28.7997C181.824 27.9696 183.294 25.6302 183.078 22.8902C182.812 19.7984 180.303 17.6394 177.066 18.5617C174.499 19.2978 172.639 21.7346 172.88 24.5171C173.243 27.7125 175.802 29.6674 178.931 28.7759L178.91 28.7997ZM188.116 58.2458L196.684 55.8136L195.384 42.6867C194.879 37.4124 196.011 35.8112 200.694 34.4858L204.168 33.5003L203.268 24.3218L199.6 25.3671C196.233 26.3218 194.323 28.6737 193.708 32.6354L193.212 27.1827L185.25 29.4559L188.138 58.2441L188.116 58.2458ZM220.66 49.587C226.551 47.8996 229.793 44.5311 231.568 40.4556L223.764 38.0249C222.863 40.0304 221.235 41.7597 219.013 42.4018C215.732 43.3276 213.047 42.2942 211.663 39.8464L231.904 34.0923L231.662 31.8657C230.786 23.5524 223.51 18.0118 214.856 20.473C207.304 22.625 202.178 29.5217 202.967 37.575C203.885 46.4186 211.257 52.3297 220.664 49.6312L220.66 49.587ZM216.325 27.6278C219.454 26.7362 221.626 27.6989 222.723 29.8581L210.833 33.2415C211.44 30.5922 213.304 28.4886 216.325 27.6278ZM48.6824 143.349C35.2382 147.167 21.2466 139.288 17.442 125.736C21.2466 139.288 13.4442 153.377 8.1886e-06 157.194C13.4442 153.377 27.4358 161.256 31.2404 174.808C27.4358 161.256 35.2382 147.167 48.6824 143.349ZM242.357 8.85449C235.582 10.7896 228.539 6.8092 226.634 5.39036e-05C228.563 6.82957 224.621 13.9219 217.866 15.8332C224.641 13.8981 231.684 17.8785 233.589 24.6876C231.661 17.8581 235.602 10.7657 242.357 8.85449Z" fill="#F8F6F4"/>
</svg>
