<svg width="30" height="30" viewBox="0 0 30 30" fill="none" xmlns="http://www.w3.org/2000/svg">
<g clip-path="url(#clip0_2020_3828)">
<path d="M14.9987 28.7136C22.5725 28.7136 28.7123 22.5738 28.7123 15C28.7123 7.42626 22.5725 1.2865 14.9987 1.2865C7.42492 1.2865 1.28516 7.42626 1.28516 15C1.28516 22.5738 7.42492 28.7136 14.9987 28.7136Z" fill="url(#paint0_linear_2020_3828)" stroke="#472B72" stroke-width="3" stroke-miterlimit="10"/>
<path d="M11.9198 18.8841L11.089 18.0532C10.8746 17.8388 10.7942 17.5172 10.9014 17.1956C10.9818 16.9544 11.089 16.6596 11.1962 16.2844H8.38208C8.14087 16.2844 7.92646 16.1771 7.81925 15.9627C7.68525 15.7751 7.68525 15.5339 7.81925 15.3195L9.21291 12.961C9.56132 12.3714 10.2045 11.9962 10.8746 11.9962H13.0991C13.1527 11.889 13.2063 11.8086 13.2867 11.7014C15.4843 8.45845 18.7541 8.35125 20.6837 8.72646C21.0054 8.78007 21.2466 9.02128 21.3002 9.34289C21.6754 11.2726 21.5682 14.5423 18.3253 16.74C18.2181 16.8204 18.1377 16.874 18.0304 16.9276V19.1521C18.0304 19.8221 17.6552 20.4653 17.0656 20.8137L14.7071 22.2074C14.4927 22.3414 14.2515 22.3414 14.0639 22.2074C13.8495 22.1002 13.7423 21.8858 13.7423 21.6446V18.7768C13.3403 18.9109 13.0187 19.0181 12.7774 19.0985C12.4826 19.2057 12.1342 19.1253 11.9198 18.8841ZM18.0304 13.0682C18.4057 13.0682 18.7541 12.8806 18.9417 12.5322C19.1293 12.2106 19.1293 11.8086 18.9417 11.4602C18.7541 11.1386 18.4057 10.9241 18.0304 10.9241C17.6284 10.9241 17.28 11.1386 17.0924 11.4602C16.9048 11.8086 16.9048 12.2106 17.0924 12.5322C17.28 12.8806 17.6284 13.0682 18.0304 13.0682Z" fill="white"/>
</g>
<defs>
<linearGradient id="paint0_linear_2020_3828" x1="7.13421" y1="26.235" x2="22.8718" y2="3.76506" gradientUnits="userSpaceOnUse">
<stop stop-color="#61439A"/>
<stop offset="1" stop-color="#F37238"/>
</linearGradient>
<clipPath id="clip0_2020_3828">
<rect width="30" height="30" fill="white"/>
</clipPath>
</defs>
</svg>
