<svg xmlns="http://www.w3.org/2000/svg" width="35" height="35" viewBox="0 0 35 35" fill="none">
    <g clip-path="url(#clip0_1_279)">
        <path d="M17.49 33.48C26.321 33.48 33.48 26.321 33.48 17.49C33.48 8.65897 26.321 1.5 17.49 1.5C8.65897 1.5 1.5 8.65897 1.5 17.49C1.5 26.321 8.65897 33.48 17.49 33.48Z" fill="url(#paint0_linear_1_279)" stroke="#7C2A17" stroke-width="3" stroke-miterlimit="10"/>
        <path d="M15.3401 9.19984C15.6001 8.96984 16.0001 8.96984 16.2701 9.19984C17.1601 10.0598 18.0301 10.9898 18.8201 11.9798C19.1801 11.5198 19.6101 10.9898 20.0501 10.5598C20.3101 10.3298 20.7101 10.3298 20.9801 10.5598C22.1401 11.6498 23.1001 13.1098 23.7901 14.4698C24.4501 15.8298 24.9201 17.2198 24.9201 18.1798C24.9201 22.4198 21.6101 25.9598 17.5001 25.9598C13.3901 25.9598 10.0801 22.4198 10.0801 18.1798C10.0801 16.9198 10.6401 15.3698 11.5701 13.8098C12.5001 12.2498 13.7901 10.6298 15.3501 9.20984L15.3401 9.19984ZM17.5201 22.7798C18.3801 22.7798 19.1101 22.5498 19.8001 22.0798C21.1901 21.1198 21.5601 19.1698 20.7301 17.6398C20.6001 17.3398 20.2001 17.3098 20.0001 17.5698L19.1401 18.5298C18.9401 18.7898 18.5401 18.7898 18.3501 18.5298C17.7901 17.8298 16.8301 16.5798 16.2601 15.8798C16.0601 15.6198 15.6601 15.6198 15.4301 15.8798C14.3001 17.2698 13.7401 18.1598 13.7401 19.1598C13.7701 21.4398 15.4301 22.7698 17.5201 22.7698V22.7798Z" fill="white"/>
    </g>
    <defs>
        <linearGradient id="paint0_linear_1_279" x1="8.32" y1="30.59" x2="26.67" y2="4.39" gradientUnits="userSpaceOnUse">
            <stop stop-color="#FDE983"/>
            <stop offset="1" stop-color="#F37238"/>
        </linearGradient>
        <clipPath id="clip0_1_279">
            <rect width="34.98" height="34.98" fill="white"/>
        </clipPath>
    </defs>
</svg>