<svg xmlns="http://www.w3.org/2000/svg" width="35" height="35" viewBox="0 0 35 35" fill="none">
    <g clip-path="url(#clip0_1_261)">
        <path d="M17.49 33.48C26.321 33.48 33.48 26.321 33.48 17.49C33.48 8.65897 26.321 1.5 17.49 1.5C8.65897 1.5 1.5 8.65897 1.5 17.49C1.5 26.321 8.65897 33.48 17.49 33.48Z" fill="url(#paint0_linear_1_261)" stroke="#472B72" stroke-width="3" stroke-miterlimit="10"/>
        <path d="M13.8984 22.0188L12.9297 21.0501C12.6797 20.8001 12.5859 20.4251 12.7109 20.0501C12.8047 19.7688 12.9297 19.4251 13.0547 18.9876H9.77344C9.49219 18.9876 9.24219 18.8626 9.11719 18.6126C8.96094 18.3938 8.96094 18.1126 9.11719 17.8626L10.7422 15.1126C11.1484 14.4251 11.8984 13.9876 12.6797 13.9876H15.2734C15.3359 13.8626 15.3984 13.7688 15.4922 13.6438C18.0547 9.8626 21.8672 9.7376 24.1172 10.1751C24.4922 10.2376 24.7734 10.5188 24.8359 10.8938C25.2734 13.1438 25.1484 16.9563 21.3672 19.5188C21.2422 19.6126 21.1484 19.6751 21.0234 19.7376V22.3313C21.0234 23.1126 20.5859 23.8626 19.8984 24.2688L17.1484 25.8938C16.8984 26.0501 16.6172 26.0501 16.3984 25.8938C16.1484 25.7688 16.0234 25.5188 16.0234 25.2376V21.8938C15.5547 22.0501 15.1797 22.1751 14.8984 22.2688C14.5547 22.3938 14.1484 22.3001 13.8984 22.0188ZM21.0234 15.2376C21.4609 15.2376 21.8672 15.0188 22.0859 14.6126C22.3047 14.2376 22.3047 13.7688 22.0859 13.3626C21.8672 12.9876 21.4609 12.7376 21.0234 12.7376C20.5547 12.7376 20.1484 12.9876 19.9297 13.3626C19.7109 13.7688 19.7109 14.2376 19.9297 14.6126C20.1484 15.0188 20.5547 15.2376 21.0234 15.2376Z" fill="white"/>
    </g>
    <defs>
        <linearGradient id="paint0_linear_1_261" x1="8.32" y1="30.59" x2="26.67" y2="4.39" gradientUnits="userSpaceOnUse">
            <stop stop-color="#61439A"/>
            <stop offset="1" stop-color="#F37238"/>
        </linearGradient>
        <clipPath id="clip0_1_261">
            <rect width="34.98" height="34.98" fill="white"/>
        </clipPath>
    </defs>
</svg>