<svg width="95" height="33" viewBox="0 0 95 33" fill="none" xmlns="http://www.w3.org/2000/svg">
<path d="M37.8865 9.60397H46.3851V11.9345H40.309V15.1088H46.3851V17.3992H40.309V22.4621H37.8865V9.60397ZM49.2842 8.71997C50.1182 8.71997 50.7139 9.32269 50.7139 10.1665C50.7139 11.0103 50.1579 11.613 49.2842 11.613C48.4105 11.613 47.8545 11.0103 47.8545 10.2067C47.8545 9.40306 48.4899 8.71997 49.2842 8.71997ZM48.0928 12.9792H50.5153V22.5022H48.0928V12.9792ZM57.4651 15.6312C57.1871 15.3901 56.7106 15.1892 56.3134 15.1892C55.3206 15.1892 54.7646 15.8321 54.7646 17.1983V22.4621H52.3818V12.939H54.6455V14.3052C55.122 13.2203 55.8766 12.8587 56.9091 12.8587C57.9417 12.8587 58.0608 13.0194 58.4976 13.3409L57.4651 15.591V15.6312ZM58.4579 17.801C58.4579 15.0687 60.4436 12.7783 63.3029 12.7783C66.1623 12.7783 68.1479 14.7874 68.1479 17.6403V18.6448H60.8407C61.1187 19.8503 62.0321 20.6539 63.4221 20.6539C64.812 20.6539 65.2886 20.1315 65.7651 19.2475L67.7508 20.453C66.758 21.9397 65.3283 22.7032 63.3426 22.7032C60.2847 22.7032 58.4579 20.6539 58.4579 17.801ZM60.8407 16.7161H65.8048C65.5269 15.5107 64.5737 14.8276 63.3029 14.8276C62.0321 14.8276 61.1981 15.4705 60.8804 16.7161H60.8407ZM68.7039 12.9792H70.4116V12.497C70.4116 9.92542 71.4838 8.84052 73.8666 8.84052H74.7006V10.93H74.0255C72.9135 10.93 72.6752 11.3318 72.6752 12.497V12.9792H74.7006V15.149H72.7149V22.4621H70.4116V15.149H68.7039V12.9792ZM75.1374 17.7206C75.1374 14.9883 77.2025 12.7783 80.0619 12.7783C82.9212 12.7783 84.9863 14.9883 84.9863 17.7206C84.9863 20.453 82.8021 22.663 80.0619 22.663C77.3216 22.663 75.1374 20.4932 75.1374 17.7206ZM82.6432 17.7206C82.6432 16.1937 81.5312 15.0285 80.0619 15.0285C78.5925 15.0285 77.4805 16.1937 77.4805 17.7206C77.4805 19.2475 78.5925 20.4128 80.0619 20.4128C81.5312 20.4128 82.6432 19.2475 82.6432 17.7206ZM88.203 17.6001L84.7877 12.939H87.6073L89.593 15.8723L91.6581 12.939H94.438L90.983 17.5599L94.5969 22.4219H91.7772L89.5136 19.3279L87.3294 22.4219H84.5097L88.1236 17.5599L88.203 17.6001Z" fill="#F8F6F4"/>
<path d="M29.4648 10.7673C28.7967 9.13964 27.4605 7.38683 26.388 6.83237C27.144 8.3169 27.6715 9.90873 27.9352 11.5542V11.5721C26.2122 7.19009 23.2761 5.4194 20.885 1.57395C20.7619 1.37721 20.6389 1.18046 20.5334 0.983719C20.463 0.858518 20.4103 0.751203 20.3576 0.661775C20.2521 0.465031 20.1817 0.250401 20.129 0.0536574C20.129 0.0357716 20.1114 0.0178858 20.0938 0.0178858C20.0763 0.0178858 20.0763 0.0178858 20.0587 0.0178858C20.0587 0.0178858 20.0587 0.0178858 20.0411 0.0178858V0C16.2083 2.28938 14.9073 6.52832 14.7842 8.63884C13.2546 8.74615 11.7778 9.3185 10.5822 10.2843C10.4592 10.177 10.3185 10.0697 10.1954 9.98027C9.84381 8.74615 9.82623 7.42261 10.1603 6.1706C8.75376 6.86815 7.48789 7.85186 6.48574 9.0681C5.88797 8.28112 5.92314 5.70557 5.9583 5.169C5.78248 5.24054 5.60667 5.32997 5.44844 5.43728C4.92099 5.83077 4.41113 6.26003 3.95401 6.74295C3.42656 7.27952 2.95186 7.86975 2.5299 8.49575C1.51018 9.92662 0.806915 11.5363 0.437703 13.2176L0.420122 13.3249C0.384959 13.468 0.27947 14.1477 0.261888 14.2908C0.261888 14.3086 0.261888 14.3086 0.261888 14.3265C0.121236 15.042 0.0509101 15.7574 0.0157471 16.4728V16.5444C0.0157471 25.1474 6.87254 32.105 15.3292 32.0871C22.7662 32.0871 29.1307 26.632 30.3966 19.1736C30.4142 18.9768 30.4493 18.7801 30.4669 18.5655C30.7658 15.9362 30.4318 13.2534 29.4648 10.7673ZM11.8305 22.9475C11.9009 22.9832 11.9712 23.019 12.0415 23.0548H12.0591C11.9888 23.0369 11.9009 22.9832 11.8305 22.9475Z" fill="url(#paint0_linear_1352_298)"/>
<path d="M29.4666 10.7681C28.7985 9.14052 27.4623 7.38771 26.3898 6.83325C27.1459 8.31777 27.6733 9.90961 27.937 11.5551V11.573V11.5909C29.115 15.0249 28.9392 18.781 27.4623 22.0898C25.7042 25.9174 21.467 29.8344 14.8212 29.6555C7.64796 29.4409 1.31861 24.0394 0.140652 16.9387C-0.070326 15.8119 0.140652 15.2575 0.246141 14.3453C0.105489 15.0428 0.0175815 15.7761 0 16.4916V16.5631C0 25.1662 6.85679 32.1238 15.3135 32.1059C22.7505 32.1059 29.115 26.6507 30.3808 19.1923C30.3984 18.9956 30.4336 18.7988 30.4512 18.5842C30.7676 15.9371 30.4336 13.2543 29.4666 10.7681Z" fill="url(#paint1_radial_1352_298)"/>
<path d="M29.4666 10.7681C28.7985 9.14052 27.4623 7.38771 26.3898 6.83325C27.1459 8.31777 27.6733 9.90961 27.937 11.5551V11.573V11.5909C29.115 15.0249 28.9392 18.781 27.4623 22.0898C25.7042 25.9174 21.467 29.8344 14.8212 29.6555C7.64796 29.4409 1.31861 24.0394 0.140652 16.9387C-0.070326 15.8119 0.140652 15.2575 0.246141 14.3453C0.105489 15.0428 0.0175815 15.7761 0 16.4916V16.5631C0 25.1662 6.85679 32.1238 15.3135 32.1059C22.7505 32.1059 29.115 26.6507 30.3808 19.1923C30.3984 18.9956 30.4336 18.7988 30.4512 18.5842C30.7676 15.9371 30.4336 13.2543 29.4666 10.7681Z" fill="url(#paint2_radial_1352_298)"/>
<path d="M22.0286 12.6069C22.0637 12.6248 22.0989 12.6606 22.1165 12.6785C21.7297 11.9809 21.255 11.3549 20.6924 10.8005C15.9454 5.97129 19.4441 0.319376 20.0418 0.0332031C16.2091 2.28681 14.908 6.52575 14.785 8.63627C14.9608 8.61839 15.1366 8.6005 15.33 8.6005C18.1079 8.61839 20.6572 10.1387 22.0286 12.6069Z" fill="url(#paint3_radial_1352_298)"/>
<path d="M15.3496 13.5757C15.332 13.9692 13.9782 15.2927 13.5035 15.2927C9.1609 15.2927 8.44006 17.9756 8.44006 17.9756C8.63346 20.2292 10.1806 22.0893 12.0443 23.0731C12.1322 23.1267 12.2201 23.1625 12.308 23.1983C12.4662 23.2698 12.6069 23.3235 12.7651 23.3771C13.3981 23.6096 14.0837 23.7348 14.7518 23.7706C22.3822 24.1283 23.8591 14.4879 18.356 11.6977C19.6571 11.5188 20.9757 11.8587 22.0482 12.6099C20.6768 10.1595 18.1275 8.63922 15.3496 8.62134C15.1738 8.62134 14.998 8.63922 14.8046 8.65711C13.275 8.76442 11.7981 9.33677 10.6026 10.3026C10.8312 10.4993 11.0949 10.7676 11.6575 11.3221C12.6772 12.3595 15.332 13.4326 15.3496 13.5757Z" fill="url(#paint4_radial_1352_298)"/>
<path d="M15.3496 13.5757C15.332 13.9692 13.9782 15.2927 13.5035 15.2927C9.1609 15.2927 8.44006 17.9756 8.44006 17.9756C8.63346 20.2292 10.1806 22.0893 12.0443 23.0731C12.1322 23.1267 12.2201 23.1625 12.308 23.1983C12.4662 23.2698 12.6069 23.3235 12.7651 23.3771C13.3981 23.6096 14.0837 23.7348 14.7518 23.7706C22.3822 24.1283 23.8591 14.4879 18.356 11.6977C19.6571 11.5188 20.9757 11.8587 22.0482 12.6099C20.6768 10.1595 18.1275 8.63922 15.3496 8.62134C15.1738 8.62134 14.998 8.63922 14.8046 8.65711C13.275 8.76442 11.7981 9.33677 10.6026 10.3026C10.8312 10.4993 11.0949 10.7676 11.6575 11.3221C12.6772 12.3595 15.332 13.4326 15.3496 13.5757Z" fill="url(#paint5_radial_1352_298)"/>
<path d="M9.86296 9.78352C9.98603 9.85507 10.0915 9.92661 10.1794 9.99815C9.8278 8.76403 9.81021 7.44048 10.1443 6.18848C8.73774 6.88602 7.47187 7.86974 6.46973 9.08598C6.54005 9.08598 8.75532 9.0502 9.86296 9.78352Z" fill="url(#paint6_radial_1352_298)"/>
<path d="M0.159948 16.9211C1.33791 24.0218 7.66726 29.4412 14.8405 29.6379C21.4863 29.8347 25.7235 25.8998 27.4816 22.0722C28.9585 18.7634 29.1343 15.0074 27.9563 11.5733V11.5554C27.9563 11.5375 27.9563 11.5375 27.9563 11.5375V11.5554C28.5013 15.1683 26.6905 18.6561 23.8774 21.017V21.0349C18.392 25.5779 13.1351 23.7714 12.0802 23.0381C12.0099 23.0023 11.9396 22.9665 11.8517 22.9308C8.65182 21.3747 7.33321 18.4057 7.61451 15.8659C6.06734 15.8838 4.64323 14.9716 3.99272 13.5407C5.69813 12.4676 7.82549 12.396 9.6188 13.3082C11.4297 14.1488 13.4867 14.2204 15.368 13.5407C15.368 13.4155 12.6956 12.3424 11.6583 11.305C11.0956 10.7505 10.8319 10.4822 10.6034 10.2855C10.4803 10.1782 10.3396 10.0709 10.2166 9.98145C10.1287 9.9099 10.0232 9.85625 9.90011 9.76682C8.79247 9.0335 6.55962 9.06927 6.48929 9.06927C5.89152 8.28229 5.92668 5.70674 5.96185 5.17017C5.78603 5.24171 5.61022 5.33114 5.45198 5.43845C4.92454 5.83194 4.41468 6.2612 3.95756 6.74412C3.43011 7.28069 2.95541 7.87092 2.51587 8.47904C1.51373 9.92779 0.810465 11.5375 0.441253 13.2188C0.441253 13.2545 -0.103774 15.6691 0.159948 16.9211Z" fill="url(#paint7_radial_1352_298)"/>
<path d="M20.7133 10.7839C21.2759 11.3383 21.7506 11.9822 22.1374 12.6797C22.2253 12.7513 22.2956 12.8049 22.3659 12.8765C25.8295 16.1317 24.0186 20.7284 23.878 21.0503C26.691 18.6894 28.5019 15.2016 27.9569 11.5887C26.2339 7.20669 23.2978 5.436 20.9067 1.57267C20.7836 1.37592 20.6605 1.17918 20.555 0.982435C20.4847 0.857234 20.432 0.749919 20.3792 0.66049C20.2737 0.463746 20.2034 0.249117 20.1507 0.0523732C20.1507 0.0344874 20.1331 0.0166016 20.1155 0.0166016C20.0979 0.0166016 20.0979 0.0166016 20.0803 0.0166016C20.0803 0.0166016 20.0803 0.0166016 20.0628 0.0166016C19.465 0.302774 15.9487 5.95469 20.7133 10.7839Z" fill="url(#paint8_radial_1352_298)"/>
<path d="M22.3635 12.8596C22.2932 12.806 22.2228 12.7344 22.1349 12.6629C22.0998 12.645 22.0646 12.6092 22.047 12.5913C20.9746 11.8401 19.6559 11.5003 18.3549 11.6791C23.8579 14.4693 22.3811 24.1098 14.7507 23.7521C14.065 23.7163 13.3969 23.5911 12.764 23.3586C12.6058 23.3049 12.4651 23.2334 12.3069 23.1797C12.219 23.1439 12.1311 23.1082 12.0432 23.0545H12.0607C13.1156 23.7878 18.3725 25.5943 23.8579 21.0513V21.0334C24.0162 20.7115 25.8271 16.1148 22.3635 12.8596Z" fill="url(#paint9_radial_1352_298)"/>
<path d="M8.43879 17.9556C8.43879 17.9556 9.14205 15.2727 13.5023 15.2727C13.977 15.2727 15.3132 13.9313 15.3483 13.5557C13.4847 14.2532 11.4101 14.1638 9.59917 13.3231C7.80585 12.3931 5.67849 12.4825 3.97308 13.5557C4.6236 14.9865 6.0477 15.8987 7.59488 15.8808C7.31357 18.4206 8.63218 21.3896 11.832 22.9457C11.9023 22.9815 11.9727 23.0172 12.043 23.053C10.1794 22.0693 8.63218 20.2092 8.43879 17.9556Z" fill="url(#paint10_radial_1352_298)"/>
<path d="M29.4648 10.7673C28.7967 9.13964 27.4605 7.38684 26.388 6.83238C27.144 8.3169 27.6715 9.90873 27.9352 11.5542V11.5721C26.2122 7.19009 23.2761 5.4194 20.885 1.57395C20.7619 1.37721 20.6389 1.18046 20.5334 0.983719C20.463 0.858518 20.4103 0.751203 20.3576 0.661775C20.2521 0.465031 20.1817 0.250401 20.129 0.0536574C20.129 0.0357716 20.1114 0.0178858 20.0938 0.0178858C20.0763 0.0178858 20.0763 0.0178858 20.0587 0.0178858C20.0587 0.0178858 20.0587 0.0178858 20.0411 0.0178858V0C16.2083 2.28938 14.9073 6.52832 14.7842 8.63884C14.96 8.62095 15.1358 8.60307 15.3292 8.60307C18.1071 8.60307 20.6564 10.1234 22.0278 12.5916C20.9553 11.8404 19.6367 11.5006 18.3357 11.6794C23.8387 14.4696 22.3619 24.1101 14.7315 23.7523C14.0458 23.7166 13.3777 23.5914 12.7448 23.3589C12.5865 23.3052 12.4459 23.2337 12.2876 23.18C12.1997 23.1442 12.1118 23.1084 12.0239 23.0548H12.0415C11.9712 23.019 11.9009 22.9833 11.8129 22.9475C11.8833 22.9833 11.9536 23.019 12.0239 23.0548C10.1779 22.0711 8.63069 20.211 8.43729 17.9573C8.43729 17.9573 9.14055 15.2745 13.5008 15.2745C13.9755 15.2745 15.3117 13.933 15.3468 13.5574C15.3468 13.4322 12.6744 12.3591 11.6371 11.3217C11.0745 10.7673 10.8108 10.499 10.5822 10.3022C10.4592 10.1949 10.3185 10.0876 10.1954 9.99816C9.84381 8.76404 9.82623 7.44049 10.1603 6.18849C8.75376 6.88603 7.48789 7.86975 6.48574 9.08599C5.88797 8.29901 5.92314 5.72346 5.9583 5.18688C5.78248 5.25842 5.60667 5.34785 5.44844 5.45517C4.92099 5.84866 4.41113 6.27792 3.95401 6.76083C3.42656 7.29741 2.95186 7.88764 2.5299 8.51364C1.51018 9.92662 0.806915 11.5363 0.437703 13.2176L0.420122 13.3249C0.384959 13.468 0.261888 14.1656 0.244307 14.3086C0.244307 14.2908 0.244307 14.3265 0.244307 14.3086C0.121236 15.0241 0.0509101 15.7574 0.0157471 16.4728V16.5444C0.0157471 25.1474 6.87254 32.105 15.3292 32.0871C22.7662 32.0871 29.1307 26.632 30.3966 19.1736C30.4142 18.9768 30.4494 18.7801 30.4669 18.5655C30.7658 15.9362 30.4318 13.2534 29.4648 10.7673Z" fill="url(#paint11_linear_1352_298)"/>
<defs>
<linearGradient id="paint0_linear_1352_298" x1="27.4384" y1="4.97218" x2="1.62533" y2="29.4532" gradientUnits="userSpaceOnUse">
<stop offset="0.048" stop-color="#FFF44F"/>
<stop offset="0.111" stop-color="#FFE847"/>
<stop offset="0.225" stop-color="#FFC830"/>
<stop offset="0.368" stop-color="#FF980E"/>
<stop offset="0.401" stop-color="#FF8B16"/>
<stop offset="0.462" stop-color="#FF672A"/>
<stop offset="0.534" stop-color="#FF3647"/>
<stop offset="0.705" stop-color="#E31587"/>
</linearGradient>
<radialGradient id="paint1_radial_1352_298" cx="0" cy="0" r="1" gradientUnits="userSpaceOnUse" gradientTransform="translate(26.2689 3.56425) scale(31.8889 32.4408)">
<stop offset="0.129" stop-color="#FFBD4F"/>
<stop offset="0.186" stop-color="#FFAC31"/>
<stop offset="0.247" stop-color="#FF9D17"/>
<stop offset="0.283" stop-color="#FF980E"/>
<stop offset="0.403" stop-color="#FF563B"/>
<stop offset="0.467" stop-color="#FF3750"/>
<stop offset="0.71" stop-color="#F5156C"/>
<stop offset="0.782" stop-color="#EB0878"/>
<stop offset="0.86" stop-color="#E50080"/>
</radialGradient>
<radialGradient id="paint2_radial_1352_298" cx="0" cy="0" r="1" gradientUnits="userSpaceOnUse" gradientTransform="translate(14.6164 16.827) scale(31.8889 32.4408)">
<stop offset="0.3" stop-color="#960E18"/>
<stop offset="0.351" stop-color="#B11927" stop-opacity="0.74"/>
<stop offset="0.435" stop-color="#DB293D" stop-opacity="0.343"/>
<stop offset="0.497" stop-color="#F5334B" stop-opacity="0.094"/>
<stop offset="0.53" stop-color="#FF3750" stop-opacity="0"/>
</radialGradient>
<radialGradient id="paint3_radial_1352_298" cx="0" cy="0" r="1" gradientUnits="userSpaceOnUse" gradientTransform="translate(18.46 -3.80119) scale(23.1013 23.5011)">
<stop offset="0.132" stop-color="#FFF44F"/>
<stop offset="0.252" stop-color="#FFDC3E"/>
<stop offset="0.506" stop-color="#FF9D12"/>
<stop offset="0.526" stop-color="#FF980E"/>
</radialGradient>
<radialGradient id="paint4_radial_1352_298" cx="0" cy="0" r="1" gradientUnits="userSpaceOnUse" gradientTransform="translate(11.0901 25.3002) scale(15.1837 15.4465)">
<stop offset="0.353" stop-color="#3A8EE6"/>
<stop offset="0.472" stop-color="#5C79F0"/>
<stop offset="0.669" stop-color="#9059FF"/>
<stop offset="1" stop-color="#C139E6"/>
</radialGradient>
<radialGradient id="paint5_radial_1352_298" cx="0" cy="0" r="1" gradientTransform="matrix(7.82485 -1.92455 -2.21382 -9.31974 16.3598 14.1677)" gradientUnits="userSpaceOnUse">
<stop offset="0.206" stop-color="#9059FF" stop-opacity="0"/>
<stop offset="0.278" stop-color="#8C4FF3" stop-opacity="0.064"/>
<stop offset="0.747" stop-color="#7716A8" stop-opacity="0.45"/>
<stop offset="0.975" stop-color="#6E008B" stop-opacity="0.6"/>
</radialGradient>
<radialGradient id="paint6_radial_1352_298" cx="0" cy="0" r="1" gradientUnits="userSpaceOnUse" gradientTransform="translate(14.2135 2.23607) scale(10.9231 11.1122)">
<stop stop-color="#FFE226"/>
<stop offset="0.121" stop-color="#FFDB27"/>
<stop offset="0.295" stop-color="#FFC82A"/>
<stop offset="0.502" stop-color="#FFA930"/>
<stop offset="0.732" stop-color="#FF7E37"/>
<stop offset="0.792" stop-color="#FF7139"/>
</radialGradient>
<radialGradient id="paint7_radial_1352_298" cx="0" cy="0" r="1" gradientUnits="userSpaceOnUse" gradientTransform="translate(22.8014 -4.81104) scale(46.6041 47.4107)">
<stop offset="0.113" stop-color="#FFF44F"/>
<stop offset="0.456" stop-color="#FF980E"/>
<stop offset="0.622" stop-color="#FF5634"/>
<stop offset="0.716" stop-color="#FF3647"/>
<stop offset="0.904" stop-color="#E31587"/>
</radialGradient>
<radialGradient id="paint8_radial_1352_298" cx="0" cy="0" r="1" gradientTransform="matrix(3.58463 34.5565 22.293 -2.39638 18.874 -2.17713)" gradientUnits="userSpaceOnUse">
<stop stop-color="#FFF44F"/>
<stop offset="0.06" stop-color="#FFE847"/>
<stop offset="0.168" stop-color="#FFC830"/>
<stop offset="0.304" stop-color="#FF980E"/>
<stop offset="0.356" stop-color="#FF8B16"/>
<stop offset="0.455" stop-color="#FF672A"/>
<stop offset="0.57" stop-color="#FF3647"/>
<stop offset="0.737" stop-color="#E31587"/>
</radialGradient>
<radialGradient id="paint9_radial_1352_298" cx="0" cy="0" r="1" gradientUnits="userSpaceOnUse" gradientTransform="translate(13.9563 6.35181) scale(29.0957 29.5993)">
<stop offset="0.137" stop-color="#FFF44F"/>
<stop offset="0.48" stop-color="#FF980E"/>
<stop offset="0.592" stop-color="#FF5634"/>
<stop offset="0.655" stop-color="#FF3647"/>
<stop offset="0.904" stop-color="#E31587"/>
</radialGradient>
<radialGradient id="paint10_radial_1352_298" cx="0" cy="0" r="1" gradientUnits="userSpaceOnUse" gradientTransform="translate(21.6367 8.08248) scale(31.8451 32.3962)">
<stop offset="0.094" stop-color="#FFF44F"/>
<stop offset="0.231" stop-color="#FFE141"/>
<stop offset="0.509" stop-color="#FFAF1E"/>
<stop offset="0.626" stop-color="#FF980E"/>
</radialGradient>
<linearGradient id="paint11_linear_1352_298" x1="27.1336" y1="4.83925" x2="5.15582" y2="26.4428" gradientUnits="userSpaceOnUse">
<stop offset="0.167" stop-color="#FFF44F" stop-opacity="0.8"/>
<stop offset="0.266" stop-color="#FFF44F" stop-opacity="0.634"/>
<stop offset="0.489" stop-color="#FFF44F" stop-opacity="0.217"/>
<stop offset="0.6" stop-color="#FFF44F" stop-opacity="0"/>
</linearGradient>
</defs>
</svg>
