<svg xmlns="http://www.w3.org/2000/svg" width="35" height="35" viewBox="0 0 35 35" fill="none">
    <g clip-path="url(#clip0_1_276)">
        <path d="M17.49 33.48C26.321 33.48 33.48 26.321 33.48 17.49C33.48 8.65897 26.321 1.5 17.49 1.5C8.65897 1.5 1.5 8.65897 1.5 17.49C1.5 26.321 8.65897 33.48 17.49 33.48Z" fill="url(#paint0_linear_1_276)" stroke="#472B72" stroke-width="3" stroke-miterlimit="10"/>
        <path d="M19.5797 10.7498H15.6197L14.1397 8.54979C13.9197 8.23979 14.1697 7.77979 14.5397 7.77979H20.6297C20.9997 7.77979 21.2497 8.23979 21.0297 8.54979L19.5797 10.7498ZM15.6197 11.7298H19.5797C19.6697 11.8198 19.8297 11.9198 19.9797 12.0098C21.7097 13.1198 25.5097 15.5298 25.5097 20.6398C25.5097 22.2798 24.1797 23.6098 22.5397 23.6098H12.6497C11.0097 23.6098 9.67969 22.2798 9.67969 20.6398C9.67969 15.5398 13.4497 13.1298 15.2097 12.0098C15.3297 11.9198 15.4897 11.8198 15.6097 11.7298H15.6197ZM18.2197 14.4598C18.2197 14.1198 17.9397 13.8398 17.5997 13.8398C17.2597 13.8398 16.9797 14.1198 16.9797 14.4598V14.8898C16.7297 14.9498 16.4897 15.0398 16.2697 15.1698C15.8397 15.4198 15.4697 15.8798 15.4997 16.5298C15.4997 17.1498 15.8697 17.5498 16.2397 17.7998C16.5797 17.9898 17.0097 18.1098 17.3497 18.2298H17.4097C17.7797 18.3498 18.0597 18.4498 18.2797 18.5698C18.4297 18.6598 18.4297 18.7198 18.4297 18.8198C18.4597 18.9698 18.3997 19.0698 18.2797 19.1298C18.1297 19.2498 17.8797 19.2798 17.5997 19.2798C17.2597 19.2798 16.9497 19.1598 16.5197 19.0298C16.4597 18.9998 16.3697 18.9698 16.2997 18.9398C15.9597 18.8498 15.6197 18.9998 15.5297 19.3398C15.4097 19.6498 15.5897 20.0198 15.8997 20.1098C15.9597 20.1398 16.0197 20.1398 16.0897 20.1698C16.3697 20.2598 16.6497 20.3598 16.9597 20.4498V20.8798C16.9597 21.2198 17.2397 21.4998 17.5797 21.4998C17.9197 21.4998 18.1997 21.2198 18.1997 20.8798V20.4498C18.4497 20.4198 18.6897 20.3298 18.9397 20.1698C19.3697 19.9198 19.7097 19.4298 19.6797 18.7798C19.6797 18.1598 19.3397 17.7598 18.9397 17.5098C18.5697 17.2898 18.1397 17.1398 17.7997 17.0498H17.7697C17.3697 16.9298 17.0897 16.8298 16.8997 16.7098C16.7497 16.6198 16.7097 16.5598 16.7097 16.4898C16.7097 16.3998 16.7697 16.2998 16.9297 16.2098C17.0797 16.1198 17.3297 16.0598 17.5797 16.0598C17.8897 16.0598 18.1997 16.1198 18.5397 16.2098C18.8797 16.2998 19.2197 16.1198 19.3097 15.7798C19.3997 15.4398 19.1897 15.1298 18.8797 15.0398C18.6597 14.9798 18.4497 14.9198 18.2297 14.8898V14.4598H18.2197Z" fill="white"/>
    </g>
    <defs>
        <linearGradient id="paint0_linear_1_276" x1="8.32" y1="30.59" x2="26.67" y2="4.39" gradientUnits="userSpaceOnUse">
            <stop stop-color="#00A3E6"/>
            <stop offset="1" stop-color="#61439A"/>
        </linearGradient>
        <clipPath id="clip0_1_276">
            <rect width="34.98" height="34.98" fill="white"/>
        </clipPath>
    </defs>
</svg>