<svg xmlns="http://www.w3.org/2000/svg" width="24" height="22" viewBox="0 0 24 22" fill="none">
    <path d="M1.01758 5.04992C1.01758 3.18001 1.01758 2.24506 1.59848 1.66416C2.17939 1.08325 3.11434 1.08325 4.98424 1.08325C6.85415 1.08325 7.7891 1.08325 8.37001 1.66416C8.95091 2.24506 8.95091 3.18001 8.95091 5.04992V16.9499C8.95091 18.8198 8.95091 19.7548 8.37001 20.3357C7.7891 20.9166 6.85415 20.9166 4.98424 20.9166C3.11434 20.9166 2.17939 20.9166 1.59848 20.3357C1.01758 19.7548 1.01758 18.8198 1.01758 16.9499V5.04992Z" stroke="#53FFBC" stroke-width="1.5"/>
    <path d="M14.334 5.04992C14.334 3.18001 14.334 2.24506 14.9149 1.66416C15.4958 1.08325 16.4307 1.08325 18.3007 1.08325C20.1706 1.08325 21.1055 1.08325 21.6864 1.66416C22.2673 2.24506 22.2673 3.18001 22.2673 5.04992V16.9499C22.2673 18.8198 22.2673 19.7548 21.6864 20.3357C21.1055 20.9166 20.1706 20.9166 18.3007 20.9166C16.4307 20.9166 15.4958 20.9166 14.9149 20.3357C14.334 19.7548 14.334 18.8198 14.334 16.9499V5.04992Z" stroke="#53FFBC" stroke-width="1.5"/>
</svg>