<svg xmlns="http://www.w3.org/2000/svg" width="70" height="24" viewBox="0 0 70 24" fill="none">
    <path d="M7.01024 22.2307L2.48045 18.7873L1.28221 20.3636L0.000497927 19.3893L3.41365 14.8993L4.69537 15.8736L3.50924 17.434L8.03903 20.8774L7.01024 22.2307ZM12.6613 16.1759C11.2926 17.3448 9.71668 17.2704 8.48925 15.8333L5.61225 12.4646L6.95818 11.3151L9.83518 14.6837C10.3612 15.2997 11.0098 15.3507 11.5497 14.8896C12.0819 14.435 12.1558 13.767 11.6298 13.1511L8.75276 9.78244L10.0987 8.63293L12.9757 12.0016C14.2031 13.4388 14.03 15.0069 12.6613 16.1759ZM16.317 13.0753L12.8846 6.63256L15.6559 5.15616C17.2092 4.32863 18.6054 4.86514 19.2543 6.08308C19.6916 6.90387 19.6659 7.81268 19.2238 8.53542L21.6654 10.2259L19.9708 11.1287L18.0321 9.68018L16.823 10.3243L17.8527 12.2572L16.317 13.0753ZM16.2888 6.62057L15.1679 7.21771L16.0801 8.92989L17.2009 8.33274C17.854 7.9848 17.956 7.43191 17.7021 6.95532C17.42 6.42578 16.933 6.27733 16.2888 6.62057ZM23.0359 9.63353L21.1424 2.5834L22.9001 2.1113L26.6921 5.62805L25.5559 1.39797L27.1591 0.967376L29.0527 8.01751L27.4205 8.45589L23.4581 4.76745L24.6488 9.20035L23.0359 9.63353ZM36.1601 7.46709L33.7324 0.0720778L35.5511 0.139502L37.0873 5.12984L38.9988 0.267311L40.8075 0.334364L37.8389 7.52933L36.1601 7.46709ZM40.2684 7.63623L44.6837 1.22645L46.3119 1.64036L47.1302 9.38054L45.4147 8.94447L45.315 7.79444L42.611 7.10706L41.9742 8.06984L40.2684 7.63623ZM44.9459 3.60436L43.5088 5.76696L45.1758 6.19072L44.9459 3.60436ZM48.4454 9.82996L51.6664 3.27902L53.2369 4.05119L50.7527 9.10349L53.6064 10.5066L52.8695 12.0053L48.4454 9.82996ZM56.4381 14.6546C55.0178 13.5488 54.7739 11.9901 55.9351 10.4989L58.6567 7.00349L60.0533 8.09091L57.3317 11.5863C56.834 12.2254 56.9144 12.871 57.4746 13.3071C58.0269 13.7372 58.6961 13.6753 59.1938 13.0362L61.9154 9.5408L63.312 10.6282L60.5903 14.1236C59.4292 15.6149 57.8583 15.7605 56.4381 14.6546ZM60.2196 17.6055L65.7392 12.828L69.0376 16.6387L67.8127 17.6989L65.653 15.2038L64.7457 15.9891L66.9054 18.4843L65.6805 19.5445L63.5208 17.0494L62.5833 17.8609L64.743 20.356L63.5181 21.4162L60.2196 17.6055Z" fill="white"/>
</svg>